<svg width="12" height="12" viewBox="0 0 12 12" fill="none" xmlns="http://www.w3.org/2000/svg">
<path d="M5.78097 1.63284C5.80255 1.59364 5.83425 1.56096 5.87278 1.53819C5.9113 1.51543 5.95522 1.50342 5.99997 1.50342C6.04471 1.50342 6.08864 1.51543 6.12716 1.53819C6.16568 1.56096 6.19739 1.59364 6.21897 1.63284L7.69497 4.43484C7.73017 4.49972 7.77929 4.556 7.83882 4.59965C7.89835 4.64329 7.9668 4.67322 8.03927 4.68727C8.11173 4.70132 8.18641 4.69916 8.25794 4.68093C8.32946 4.6627 8.39607 4.62886 8.45297 4.58184L10.5915 2.74984C10.6325 2.71645 10.6831 2.69695 10.7359 2.69414C10.7888 2.69133 10.8412 2.70536 10.8855 2.73421C10.9299 2.76306 10.9639 2.80524 10.9828 2.85469C11.0017 2.90413 11.0043 2.95828 10.9905 3.00934L9.57347 8.13234C9.54454 8.23717 9.48223 8.32972 9.39597 8.39595C9.30971 8.46217 9.20421 8.49847 9.09547 8.49934H2.90497C2.79614 8.49858 2.69052 8.46233 2.60416 8.3961C2.5178 8.32986 2.45542 8.23725 2.42647 8.13234L1.00997 3.00984C0.996093 2.95878 0.998779 2.90463 1.01764 2.85519C1.0365 2.80574 1.07056 2.76356 1.11492 2.73471C1.15928 2.70586 1.21165 2.69183 1.26449 2.69464C1.31733 2.69745 1.36792 2.71695 1.40897 2.75034L3.54697 4.58234C3.60387 4.62936 3.67047 4.6632 3.742 4.68143C3.81353 4.69966 3.8882 4.70182 3.96067 4.68777C4.03313 4.67372 4.10159 4.64379 4.16111 4.60015C4.22064 4.5565 4.26977 4.50022 4.30497 4.43534L5.78097 1.63284Z" stroke="#FFB900" stroke-linecap="round" stroke-linejoin="round"/>
<path d="M2.5 10.5H9.5" stroke="#FFB900" stroke-linecap="round" stroke-linejoin="round"/>
</svg>
