<svg width="10" height="10" viewBox="0 0 10 10" fill="none" xmlns="http://www.w3.org/2000/svg">
<g clip-path="url(#clip0_3997_945)">
<path d="M8.33341 5.41653C8.33341 7.49986 6.87508 8.54153 5.14175 9.1457C5.05098 9.17645 4.95239 9.17498 4.86258 9.14153C3.12508 8.54153 1.66675 7.49986 1.66675 5.41653V2.49986C1.66675 2.38935 1.71065 2.28337 1.78879 2.20523C1.86693 2.12709 1.97291 2.0832 2.08341 2.0832C2.91675 2.0832 3.95841 1.5832 4.68341 0.949862C4.77169 0.874445 4.88398 0.833008 5.00008 0.833008C5.11618 0.833008 5.22848 0.874445 5.31675 0.949862C6.04591 1.58736 7.08341 2.0832 7.91675 2.0832C8.02725 2.0832 8.13324 2.12709 8.21138 2.20523C8.28952 2.28337 8.33341 2.38935 8.33341 2.49986V5.41653Z" stroke="white" stroke-opacity="0.25" stroke-width="0.833333" stroke-linecap="round" stroke-linejoin="round"/>
</g>
<defs>
<clipPath id="clip0_3997_945">
<rect width="10" height="10" fill="white"/>
</clipPath>
</defs>
</svg>
