<svg width="10" height="10" viewBox="0 0 10 10" fill="none" xmlns="http://www.w3.org/2000/svg">
<g clip-path="url(#clip0_3997_1045)">
<path d="M9.1666 7.0502V8.3002C9.16707 8.41625 9.1433 8.53111 9.09681 8.63743C9.05032 8.74376 8.98214 8.8392 8.89663 8.91765C8.81112 8.9961 8.71017 9.05582 8.60024 9.093C8.49032 9.13017 8.37384 9.14398 8.25826 9.13354C6.97611 8.99422 5.74451 8.5561 4.66243 7.85437C3.65569 7.21465 2.80215 6.36111 2.16243 5.35437C1.45826 4.26737 1.02003 3.02978 0.883265 1.74187C0.872852 1.62665 0.886546 1.51052 0.923473 1.40088C0.960401 1.29124 1.01975 1.19049 1.09775 1.10505C1.17575 1.0196 1.27068 0.951332 1.37651 0.904587C1.48234 0.857843 1.59674 0.833645 1.71243 0.833536H2.96243C3.16464 0.831546 3.36068 0.903153 3.514 1.03501C3.66732 1.16686 3.76746 1.34997 3.79576 1.5502C3.84852 1.95023 3.94637 2.34301 4.08743 2.72104C4.14349 2.87017 4.15562 3.03225 4.12239 3.18807C4.08916 3.34389 4.01196 3.48692 3.89993 3.6002L3.37076 4.12937C3.96391 5.17251 4.82762 6.03622 5.87076 6.62937L6.39993 6.1002C6.51322 5.98818 6.65625 5.91097 6.81206 5.87774C6.96788 5.84451 7.12996 5.85664 7.2791 5.9127C7.65713 6.05377 8.0499 6.15161 8.44993 6.20437C8.65233 6.23292 8.83718 6.33487 8.96932 6.49083C9.10146 6.64678 9.17167 6.84586 9.1666 7.0502Z" stroke="white" stroke-opacity="0.25" stroke-width="0.833333" stroke-linecap="round" stroke-linejoin="round"/>
</g>
<defs>
<clipPath id="clip0_3997_1045">
<rect width="10" height="10" fill="white"/>
</clipPath>
</defs>
</svg>
