<svg width="20" height="20" viewBox="0 0 20 20" fill="none" xmlns="http://www.w3.org/2000/svg">
<path d="M13.3333 1.6665V3.33317" stroke="#DBEAFE" stroke-opacity="0.6" stroke-width="1.66667" stroke-linecap="round" stroke-linejoin="round"/>
<path d="M14.9292 18.3335C14.9292 17.0074 14.4024 15.7356 13.4647 14.798C12.5271 13.8603 11.2553 13.3335 9.9292 13.3335C8.60312 13.3335 7.33135 13.8603 6.39367 14.798C5.45598 15.7356 4.9292 17.0074 4.9292 18.3335" stroke="#DBEAFE" stroke-opacity="0.6" stroke-width="1.66667" stroke-linecap="round" stroke-linejoin="round"/>
<path d="M6.66675 1.6665V3.33317" stroke="#DBEAFE" stroke-opacity="0.6" stroke-width="1.66667" stroke-linecap="round" stroke-linejoin="round"/>
<path d="M10.0001 13.3332C11.841 13.3332 13.3334 11.8408 13.3334 9.99984C13.3334 8.15889 11.841 6.6665 10.0001 6.6665C8.15913 6.6665 6.66675 8.15889 6.66675 9.99984C6.66675 11.8408 8.15913 13.3332 10.0001 13.3332Z" stroke="#DBEAFE" stroke-opacity="0.6" stroke-width="1.66667" stroke-linecap="round" stroke-linejoin="round"/>
<path d="M15.8333 3.3335H4.16667C3.24619 3.3335 2.5 4.07969 2.5 5.00016V16.6668C2.5 17.5873 3.24619 18.3335 4.16667 18.3335H15.8333C16.7538 18.3335 17.5 17.5873 17.5 16.6668V5.00016C17.5 4.07969 16.7538 3.3335 15.8333 3.3335Z" stroke="#DBEAFE" stroke-opacity="0.6" stroke-width="1.66667" stroke-linecap="round" stroke-linejoin="round"/>
</svg>
