<svg width="19" height="19" viewBox="0 0 19 19" fill="none" xmlns="http://www.w3.org/2000/svg">
<g clip-path="url(#clip0_283_11)">
<path d="M12.2401 15.3V3.06001C12.2401 2.65422 12.0789 2.26506 11.792 1.97813C11.5051 1.6912 11.1159 1.53001 10.7101 1.53001H7.65012C7.24434 1.53001 6.85517 1.6912 6.56824 1.97813C6.28131 2.26506 6.12012 2.65422 6.12012 3.06001V15.3" stroke="#51A2FF" stroke-width="1.53" stroke-linecap="round" stroke-linejoin="round"/>
<path d="M15.3 4.59H3.06003C2.21503 4.59 1.53003 5.27501 1.53003 6.12V13.77C1.53003 14.615 2.21503 15.3 3.06003 15.3H15.3C16.145 15.3 16.83 14.615 16.83 13.77V6.12C16.83 5.27501 16.145 4.59 15.3 4.59Z" stroke="#51A2FF" stroke-width="1.53" stroke-linecap="round" stroke-linejoin="round"/>
</g>
<defs>
<clipPath id="clip0_283_11">
<rect width="18.36" height="18.36" fill="white"/>
</clipPath>
</defs>
</svg>
