<svg width="16" height="16" viewBox="0 0 16 16" fill="none" xmlns="http://www.w3.org/2000/svg">
<path d="M8.00016 8.66665C8.36835 8.66665 8.66683 8.36817 8.66683 7.99998C8.66683 7.63179 8.36835 7.33331 8.00016 7.33331C7.63197 7.33331 7.3335 7.63179 7.3335 7.99998C7.3335 8.36817 7.63197 8.66665 8.00016 8.66665Z" stroke="white" stroke-opacity="0.2" stroke-width="1.33333" stroke-linecap="round" stroke-linejoin="round"/>
<path d="M12.6667 8.66665C13.0349 8.66665 13.3333 8.36817 13.3333 7.99998C13.3333 7.63179 13.0349 7.33331 12.6667 7.33331C12.2985 7.33331 12 7.63179 12 7.99998C12 8.36817 12.2985 8.66665 12.6667 8.66665Z" stroke="white" stroke-opacity="0.2" stroke-width="1.33333" stroke-linecap="round" stroke-linejoin="round"/>
<path d="M3.33317 8.66665C3.70136 8.66665 3.99984 8.36817 3.99984 7.99998C3.99984 7.63179 3.70136 7.33331 3.33317 7.33331C2.96498 7.33331 2.6665 7.63179 2.6665 7.99998C2.6665 8.36817 2.96498 8.66665 3.33317 8.66665Z" stroke="white" stroke-opacity="0.2" stroke-width="1.33333" stroke-linecap="round" stroke-linejoin="round"/>
</svg>
