<svg width="20" height="20" viewBox="0 0 20 20" fill="none" xmlns="http://www.w3.org/2000/svg">
<path d="M14.9999 4.16666L12.9883 2.15499C12.6758 1.84241 12.2519 1.66675 11.8099 1.66666H4.99992C4.55789 1.66666 4.13397 1.84225 3.82141 2.15481C3.50885 2.46737 3.33325 2.8913 3.33325 3.33332V16.6667C3.33325 17.1087 3.50885 17.5326 3.82141 17.8452C4.13397 18.1577 4.55789 18.3333 4.99992 18.3333H14.9999C15.4419 18.3333 15.8659 18.1577 16.1784 17.8452C16.491 17.5326 16.6666 17.1087 16.6666 16.6667" stroke="#DBEAFE" stroke-opacity="0.6" stroke-width="1.66667" stroke-linecap="round" stroke-linejoin="round"/>
<path d="M17.8151 10.5217C18.147 10.1897 18.3335 9.73947 18.3335 9.27C18.3335 8.80054 18.147 8.3503 17.8151 8.01834C17.4831 7.68637 17.0329 7.49988 16.5634 7.49988C16.0939 7.49988 15.6437 7.68637 15.3117 8.01834L11.9701 11.3617C11.7719 11.5597 11.6269 11.8044 11.5484 12.0733L10.8509 14.465C10.83 14.5367 10.8287 14.6127 10.8473 14.6851C10.8658 14.7574 10.9035 14.8235 10.9563 14.8763C11.0091 14.9291 11.0751 14.9668 11.1475 14.9853C11.2198 15.0038 11.2959 15.0026 11.3676 14.9817L13.7592 14.2842C14.0281 14.2057 14.2729 14.0606 14.4709 13.8625L17.8151 10.5217Z" stroke="#DBEAFE" stroke-opacity="0.6" stroke-width="1.66667" stroke-linecap="round" stroke-linejoin="round"/>
<path d="M6.66675 15H7.50008" stroke="#DBEAFE" stroke-opacity="0.6" stroke-width="1.66667" stroke-linecap="round" stroke-linejoin="round"/>
</svg>
