<svg width="19" height="19" viewBox="0 0 19 19" fill="none" xmlns="http://www.w3.org/2000/svg">
<path d="M6.12047 16.83C6.54297 16.83 6.88547 16.4875 6.88547 16.065C6.88547 15.6425 6.54297 15.3 6.12047 15.3C5.69797 15.3 5.35547 15.6425 5.35547 16.065C5.35547 16.4875 5.69797 16.83 6.12047 16.83Z" stroke="#51A2FF" stroke-width="1.53" stroke-linecap="round" stroke-linejoin="round"/>
<path d="M14.5345 16.83C14.957 16.83 15.2995 16.4875 15.2995 16.065C15.2995 15.6425 14.957 15.3 14.5345 15.3C14.112 15.3 13.7695 15.6425 13.7695 16.065C13.7695 16.4875 14.112 16.83 14.5345 16.83Z" stroke="#51A2FF" stroke-width="1.53" stroke-linecap="round" stroke-linejoin="round"/>
<path d="M1.56836 1.56825H3.09836L5.13326 11.0695C5.2079 11.4175 5.40152 11.7286 5.68078 11.9492C5.96003 12.1698 6.30746 12.2862 6.66326 12.2782H14.1449C14.4932 12.2777 14.8308 12.1584 15.102 11.94C15.3732 11.7216 15.5618 11.4173 15.6367 11.0772L16.8989 5.39325H3.91691" stroke="#51A2FF" stroke-width="1.53" stroke-linecap="round" stroke-linejoin="round"/>
</svg>
