<svg width="14" height="14" viewBox="0 0 14 14" fill="none" xmlns="http://www.w3.org/2000/svg">
<path d="M5.25 1.75H2.33333C2.01117 1.75 1.75 2.01117 1.75 2.33333V5.25C1.75 5.57217 2.01117 5.83333 2.33333 5.83333H5.25C5.57217 5.83333 5.83333 5.57217 5.83333 5.25V2.33333C5.83333 2.01117 5.57217 1.75 5.25 1.75Z" stroke="white" stroke-width="1.16667" stroke-linecap="round" stroke-linejoin="round"/>
<path d="M5.25 8.16666H2.33333C2.01117 8.16666 1.75 8.42782 1.75 8.74999V11.6667C1.75 11.9888 2.01117 12.25 2.33333 12.25H5.25C5.57217 12.25 5.83333 11.9888 5.83333 11.6667V8.74999C5.83333 8.42782 5.57217 8.16666 5.25 8.16666Z" stroke="white" stroke-width="1.16667" stroke-linecap="round" stroke-linejoin="round"/>
<path d="M8.16602 2.33334H12.2493" stroke="white" stroke-width="1.16667" stroke-linecap="round" stroke-linejoin="round"/>
<path d="M8.16602 5.25H12.2493" stroke="white" stroke-width="1.16667" stroke-linecap="round" stroke-linejoin="round"/>
<path d="M8.16602 8.75H12.2493" stroke="white" stroke-width="1.16667" stroke-linecap="round" stroke-linejoin="round"/>
<path d="M8.16602 11.6667H12.2493" stroke="white" stroke-width="1.16667" stroke-linecap="round" stroke-linejoin="round"/>
</svg>
