<svg width="20" height="20" viewBox="0 0 20 20" fill="none" xmlns="http://www.w3.org/2000/svg">
<path d="M13.3327 16.6667V3.33332C13.3327 2.8913 13.1571 2.46737 12.8445 2.15481C12.532 1.84225 12.108 1.66666 11.666 1.66666H8.33268C7.89065 1.66666 7.46673 1.84225 7.15417 2.15481C6.84161 2.46737 6.66602 2.8913 6.66602 3.33332V16.6667" stroke="#DBEAFE" stroke-opacity="0.6" stroke-width="1.66667" stroke-linecap="round" stroke-linejoin="round"/>
<path d="M16.666 5H3.33268C2.41221 5 1.66602 5.74619 1.66602 6.66667V15C1.66602 15.9205 2.41221 16.6667 3.33268 16.6667H16.666C17.5865 16.6667 18.3327 15.9205 18.3327 15V6.66667C18.3327 5.74619 17.5865 5 16.666 5Z" stroke="#DBEAFE" stroke-opacity="0.6" stroke-width="1.66667" stroke-linecap="round" stroke-linejoin="round"/>
</svg>
