<svg width="8" height="8" viewBox="0 0 8 8" fill="none" xmlns="http://www.w3.org/2000/svg">
<g clip-path="url(#clip0_3929_1787)">
<path d="M0.900133 3.43355C0.825449 3.50816 0.766202 3.59675 0.72578 3.69427C0.685357 3.79179 0.664551 3.89632 0.664551 4.00188C0.664551 4.10745 0.685357 4.21198 0.72578 4.3095C0.766202 4.40702 0.825449 4.49561 0.900133 4.57022L3.43013 7.10022C3.50474 7.1749 3.59334 7.23415 3.69085 7.27457C3.78837 7.31499 3.8929 7.3358 3.99847 7.3358C4.10403 7.3358 4.20856 7.31499 4.30608 7.27457C4.4036 7.23415 4.49219 7.1749 4.5668 7.10022L7.0968 4.57022C7.17148 4.49561 7.23073 4.40702 7.27115 4.3095C7.31158 4.21198 7.33238 4.10745 7.33238 4.00188C7.33238 3.89632 7.31158 3.79179 7.27115 3.69427C7.23073 3.59675 7.17148 3.50816 7.0968 3.43355L4.5668 0.903551C4.49219 0.828867 4.4036 0.76962 4.30608 0.729198C4.20856 0.688775 4.10403 0.667969 3.99847 0.667969C3.8929 0.667969 3.78837 0.688775 3.69085 0.729198C3.59334 0.76962 3.50474 0.828867 3.43013 0.903551L0.900133 3.43355Z" stroke="#FFB900" stroke-width="0.666667" stroke-linecap="round" stroke-linejoin="round"/>
</g>
<defs>
<clipPath id="clip0_3929_1787">
<rect width="8" height="8" fill="white"/>
</clipPath>
</defs>
</svg>
