<svg width="9" height="9" viewBox="0 0 9 9" fill="none" xmlns="http://www.w3.org/2000/svg">
<g clip-path="url(#clip0_3929_2209)">
<path d="M1.01259 3.86226C0.928569 3.94619 0.861917 4.04586 0.816441 4.15557C0.770966 4.26528 0.747559 4.38287 0.747559 4.50163C0.747559 4.62039 0.770966 4.73799 0.816441 4.8477C0.861917 4.9574 0.928569 5.05707 1.01259 5.14101L3.85884 7.98726C3.94277 8.07128 4.04244 8.13793 4.15215 8.1834C4.26186 8.22888 4.37945 8.25229 4.49821 8.25229C4.61697 8.25229 4.73457 8.22888 4.84428 8.1834C4.95399 8.13793 5.05366 8.07128 5.13759 7.98726L7.98384 5.14101C8.06786 5.05707 8.13451 4.9574 8.17999 4.8477C8.22546 4.73799 8.24887 4.62039 8.24887 4.50163C8.24887 4.38287 8.22546 4.26528 8.17999 4.15557C8.13451 4.04586 8.06786 3.94619 7.98384 3.86226L5.13759 1.01601C5.05366 0.931987 4.95399 0.865335 4.84428 0.819859C4.73457 0.774383 4.61697 0.750977 4.49821 0.750977C4.37945 0.750977 4.26186 0.774383 4.15215 0.819859C4.04244 0.865335 3.94277 0.931987 3.85884 1.01601L1.01259 3.86226Z" stroke="#00D492" stroke-width="0.75" stroke-linecap="round" stroke-linejoin="round"/>
</g>
<defs>
<clipPath id="clip0_3929_2209">
<rect width="9" height="9" fill="white"/>
</clipPath>
</defs>
</svg>
