<svg width="13" height="13" viewBox="0 0 13 13" fill="none" xmlns="http://www.w3.org/2000/svg">
<g clip-path="url(#clip0_3929_1685)">
<path d="M6.49992 11.9168C9.49146 11.9168 11.9166 9.49171 11.9166 6.50016C11.9166 3.50862 9.49146 1.0835 6.49992 1.0835C3.50838 1.0835 1.08325 3.50862 1.08325 6.50016C1.08325 9.49171 3.50838 11.9168 6.49992 11.9168Z" stroke="white" stroke-opacity="0.4" stroke-width="1.08333" stroke-linecap="round" stroke-linejoin="round"/>
<path d="M6.5 9.75C8.29493 9.75 9.75 8.29493 9.75 6.5C9.75 4.70507 8.29493 3.25 6.5 3.25C4.70507 3.25 3.25 4.70507 3.25 6.5C3.25 8.29493 4.70507 9.75 6.5 9.75Z" stroke="white" stroke-opacity="0.4" stroke-width="1.08333" stroke-linecap="round" stroke-linejoin="round"/>
<path d="M6.50008 7.58317C7.09839 7.58317 7.58341 7.09815 7.58341 6.49984C7.58341 5.90153 7.09839 5.4165 6.50008 5.4165C5.90177 5.4165 5.41675 5.90153 5.41675 6.49984C5.41675 7.09815 5.90177 7.58317 6.50008 7.58317Z" stroke="white" stroke-opacity="0.4" stroke-width="1.08333" stroke-linecap="round" stroke-linejoin="round"/>
</g>
<defs>
<clipPath id="clip0_3929_1685">
<rect width="13" height="13" fill="white"/>
</clipPath>
</defs>
</svg>
