<svg width="14" height="14" viewBox="0 0 14 14" fill="none" xmlns="http://www.w3.org/2000/svg">
<g clip-path="url(#clip0_283_124)">
<path d="M7.48394 1.27168C7.33195 1.20235 7.16684 1.16647 6.99978 1.16647C6.83272 1.16647 6.6676 1.20235 6.51561 1.27168L1.51644 3.54668C1.41293 3.59232 1.32492 3.66708 1.26314 3.76185C1.20135 3.85661 1.16846 3.9673 1.16846 4.08043C1.16846 4.19356 1.20135 4.30425 1.26314 4.39902C1.32492 4.49378 1.41293 4.56854 1.51644 4.61418L6.52144 6.89501C6.67344 6.96434 6.83855 7.00022 7.00561 7.00022C7.17267 7.00022 7.33778 6.96434 7.48978 6.89501L12.4948 4.62001C12.5983 4.57437 12.6863 4.49962 12.7481 4.40485C12.8099 4.31008 12.8428 4.19939 12.8428 4.08627C12.8428 3.97314 12.8099 3.86245 12.7481 3.76768C12.6863 3.67291 12.5983 3.59816 12.4948 3.55252L7.48394 1.27168Z" stroke="white" stroke-opacity="0.5" stroke-width="1.16667" stroke-linecap="round" stroke-linejoin="round"/>
<path d="M1.16651 7C1.16623 7.11157 1.19796 7.22088 1.25792 7.31497C1.31789 7.40906 1.40358 7.48397 1.50484 7.53083L6.52151 9.81167C6.67271 9.88013 6.83678 9.91555 7.00276 9.91555C7.16874 9.91555 7.3328 9.88013 7.48401 9.81167L12.489 7.53667C12.5923 7.49026 12.6798 7.4148 12.7409 7.31951C12.802 7.22422 12.8341 7.1132 12.8332 7" stroke="white" stroke-opacity="0.5" stroke-width="1.16667" stroke-linecap="round" stroke-linejoin="round"/>
<path d="M1.16651 9.91666C1.16623 10.0282 1.19796 10.1375 1.25792 10.2316C1.31789 10.3257 1.40358 10.4006 1.50484 10.4475L6.52151 12.7283C6.67271 12.7968 6.83678 12.8322 7.00276 12.8322C7.16874 12.8322 7.3328 12.7968 7.48401 12.7283L12.489 10.4533C12.5923 10.4069 12.6798 10.3315 12.7409 10.2362C12.802 10.1409 12.8341 10.0299 12.8332 9.91666" stroke="white" stroke-opacity="0.5" stroke-width="1.16667" stroke-linecap="round" stroke-linejoin="round"/>
</g>
<defs>
<clipPath id="clip0_283_124">
<rect width="14" height="14" fill="white"/>
</clipPath>
</defs>
</svg>
