<svg width="19" height="19" viewBox="0 0 19 19" fill="none" xmlns="http://www.w3.org/2000/svg">
<path d="M3.0593 15.3H15.2993C15.7051 15.3 16.0942 15.1388 16.3812 14.8519C16.6681 14.5649 16.8293 14.1758 16.8293 13.77V6.12C16.8293 5.71421 16.6681 5.32505 16.3812 5.03812C16.0942 4.75119 15.7051 4.59 15.2993 4.59H9.23284C8.98084 4.58869 8.73306 4.52516 8.51152 4.40505C8.28998 4.28494 8.10154 4.11196 7.96294 3.9015L7.33564 2.9835C7.19704 2.77303 7.0086 2.60006 6.78706 2.47994C6.56552 2.35983 6.31774 2.2963 6.06574 2.295H3.0593C2.65351 2.295 2.26435 2.45619 1.97742 2.74312C1.69049 3.03005 1.5293 3.41922 1.5293 3.825V13.77C1.5293 14.6115 2.2178 15.3 3.0593 15.3Z" stroke="#51A2FF" stroke-width="1.53" stroke-linecap="round" stroke-linejoin="round"/>
<path d="M6.11914 7.65001V10.71" stroke="#51A2FF" stroke-width="1.53" stroke-linecap="round" stroke-linejoin="round"/>
<path d="M9.17969 7.65001V9.18001" stroke="#51A2FF" stroke-width="1.53" stroke-linecap="round" stroke-linejoin="round"/>
<path d="M12.2402 7.65001V12.24" stroke="#51A2FF" stroke-width="1.53" stroke-linecap="round" stroke-linejoin="round"/>
</svg>
