<svg width="14" height="14" viewBox="0 0 14 14" fill="none" xmlns="http://www.w3.org/2000/svg">
<path d="M11.6667 5.83333C11.8214 5.83333 11.9697 5.77187 12.0791 5.66248C12.1885 5.55308 12.25 5.40471 12.25 5.25V3.5C12.25 3.34529 12.1885 3.19692 12.0791 3.08752C11.9697 2.97812 11.8214 2.91667 11.6667 2.91667H10.2083C10.1178 2.91667 10.0285 2.89558 9.94746 2.85508C9.86646 2.81458 9.796 2.75578 9.74167 2.68333L9.21667 1.98333C9.16233 1.91089 9.09187 1.85208 9.01087 1.81158C8.92988 1.77108 8.84056 1.75 8.75 1.75H7.58333C7.42862 1.75 7.28025 1.81146 7.17085 1.92085C7.06146 2.03025 7 2.17862 7 2.33333V5.25C7 5.40471 7.06146 5.55308 7.17085 5.66248C7.28025 5.77187 7.42862 5.83333 7.58333 5.83333H11.6667Z" stroke="white" stroke-opacity="0.3" stroke-width="1.16667" stroke-linecap="round" stroke-linejoin="round"/>
<path d="M11.6667 12.25C11.8214 12.25 11.9697 12.1885 12.0791 12.0791C12.1885 11.9697 12.25 11.8214 12.25 11.6667V9.91666C12.25 9.76195 12.1885 9.61358 12.0791 9.50418C11.9697 9.39478 11.8214 9.33333 11.6667 9.33333H9.975C9.86827 9.33193 9.76397 9.30128 9.67346 9.24471C9.58295 9.18814 9.50969 9.10782 9.46167 9.01249L9.21667 8.51666C9.17113 8.41231 9.09605 8.32358 9.00069 8.26138C8.90533 8.19919 8.79385 8.16626 8.68 8.16666H7.58333C7.42862 8.16666 7.28025 8.22812 7.17085 8.33751C7.06146 8.44691 7 8.59528 7 8.74999V11.6667C7 11.8214 7.06146 11.9697 7.17085 12.0791C7.28025 12.1885 7.42862 12.25 7.58333 12.25H11.6667Z" stroke="white" stroke-opacity="0.3" stroke-width="1.16667" stroke-linecap="round" stroke-linejoin="round"/>
<path d="M1.75 2.91666C1.75 3.22608 1.87292 3.52282 2.09171 3.74161C2.3105 3.96041 2.60725 4.08332 2.91667 4.08332H4.66667" stroke="white" stroke-opacity="0.3" stroke-width="1.16667" stroke-linecap="round" stroke-linejoin="round"/>
<path d="M1.75 1.75V9.33333C1.75 9.64275 1.87292 9.9395 2.09171 10.1583C2.3105 10.3771 2.60725 10.5 2.91667 10.5H4.66667" stroke="white" stroke-opacity="0.3" stroke-width="1.16667" stroke-linecap="round" stroke-linejoin="round"/>
</svg>
