<svg width="12" height="12" viewBox="0 0 12 12" fill="none" xmlns="http://www.w3.org/2000/svg">
<g clip-path="url(#clip0_3998_1723)">
<path d="M1.03125 6.174C0.989582 6.06174 0.989582 5.93825 1.03125 5.826C1.4371 4.84192 2.12601 4.00052 3.01064 3.40845C3.89527 2.81638 4.93577 2.50031 6.00025 2.50031C7.06473 2.50031 8.10524 2.81638 8.98987 3.40845C9.87449 4.00052 10.5634 4.84192 10.9693 5.826C11.0109 5.93825 11.0109 6.06174 10.9693 6.174C10.5634 7.15807 9.87449 7.99948 8.98987 8.59155C8.10524 9.18362 7.06473 9.49969 6.00025 9.49969C4.93577 9.49969 3.89527 9.18362 3.01064 8.59155C2.12601 7.99948 1.4371 7.15807 1.03125 6.174Z" stroke="white" stroke-opacity="0.5" stroke-linecap="round" stroke-linejoin="round"/>
<path d="M6 7.5C6.82843 7.5 7.5 6.82843 7.5 6C7.5 5.17157 6.82843 4.5 6 4.5C5.17157 4.5 4.5 5.17157 4.5 6C4.5 6.82843 5.17157 7.5 6 7.5Z" stroke="white" stroke-opacity="0.5" stroke-linecap="round" stroke-linejoin="round"/>
</g>
<defs>
<clipPath id="clip0_3998_1723">
<rect width="12" height="12" fill="white"/>
</clipPath>
</defs>
</svg>
