<svg width="18" height="18" viewBox="0 0 18 18" fill="none" xmlns="http://www.w3.org/2000/svg">
<g clip-path="url(#clip0_3998_1578)">
<path d="M9.62186 1.63499C9.42644 1.54585 9.21415 1.49973 8.99936 1.49973C8.78457 1.49973 8.57228 1.54585 8.37686 1.63499L1.94936 4.55999C1.81627 4.61868 1.70312 4.71479 1.62368 4.83664C1.54425 4.95848 1.50195 5.10079 1.50195 5.24624C1.50195 5.39169 1.54425 5.53401 1.62368 5.65585C1.70312 5.77769 1.81627 5.87381 1.94936 5.93249L8.38436 8.86499C8.57978 8.95413 8.79207 9.00026 9.00686 9.00026C9.22165 9.00026 9.43394 8.95413 9.62936 8.86499L16.0644 5.93999C16.1975 5.88131 16.3106 5.78519 16.39 5.66335C16.4695 5.54151 16.5118 5.39919 16.5118 5.25374C16.5118 5.10829 16.4695 4.96598 16.39 4.84414C16.3106 4.72229 16.1975 4.62618 16.0644 4.56749L9.62186 1.63499Z" stroke="#00D492" stroke-width="1.5" stroke-linecap="round" stroke-linejoin="round"/>
<path d="M1.5 9C1.49965 9.14345 1.54044 9.28399 1.61754 9.40496C1.69464 9.52593 1.80482 9.62225 1.935 9.6825L8.385 12.615C8.5794 12.703 8.79035 12.7486 9.00375 12.7486C9.21715 12.7486 9.4281 12.703 9.6225 12.615L16.0575 9.69C16.1903 9.63033 16.3028 9.53332 16.3814 9.4108C16.4599 9.28828 16.5012 9.14555 16.5 9" stroke="#00D492" stroke-width="1.5" stroke-linecap="round" stroke-linejoin="round"/>
<path d="M1.5 12.75C1.49965 12.8935 1.54044 13.034 1.61754 13.155C1.69464 13.2759 1.80482 13.3723 1.935 13.4325L8.385 16.365C8.5794 16.453 8.79035 16.4986 9.00375 16.4986C9.21715 16.4986 9.4281 16.453 9.6225 16.365L16.0575 13.44C16.1903 13.3803 16.3028 13.2833 16.3814 13.1608C16.4599 13.0383 16.5012 12.8955 16.5 12.75" stroke="#00D492" stroke-width="1.5" stroke-linecap="round" stroke-linejoin="round"/>
</g>
<defs>
<clipPath id="clip0_3998_1578">
<rect width="18" height="18" fill="white"/>
</clipPath>
</defs>
</svg>
