<svg width="18" height="18" viewBox="0 0 18 18" fill="none" xmlns="http://www.w3.org/2000/svg">
<g clip-path="url(#clip0_3998_1607)">
<path d="M8.64315 1.72125C8.67601 1.65484 8.72679 1.59895 8.78974 1.55987C8.85268 1.52079 8.9253 1.50008 8.9994 1.50008C9.07349 1.50008 9.14611 1.52079 9.20906 1.55987C9.27201 1.59895 9.32278 1.65484 9.35565 1.72125L11.0881 5.2305C11.2023 5.46147 11.3708 5.6613 11.5791 5.81284C11.7875 5.96437 12.0295 6.06308 12.2844 6.1005L16.1589 6.6675C16.2323 6.67813 16.3013 6.7091 16.358 6.7569C16.4147 6.80469 16.457 6.86741 16.4799 6.93795C16.5029 7.0085 16.5056 7.08405 16.4878 7.15607C16.4701 7.2281 16.4325 7.29371 16.3794 7.3455L13.5774 10.074C13.3926 10.2541 13.2544 10.4764 13.1745 10.7217C13.0947 10.9671 13.0757 11.2282 13.1191 11.4825L13.7806 15.3375C13.7936 15.4109 13.7857 15.4864 13.7578 15.5555C13.7299 15.6246 13.6831 15.6845 13.6228 15.7282C13.5625 15.772 13.4911 15.798 13.4168 15.8032C13.3425 15.8083 13.2682 15.7925 13.2024 15.7575L9.7389 13.9365C9.51068 13.8167 9.25678 13.7541 8.99902 13.7541C8.74126 13.7541 8.48736 13.8167 8.25915 13.9365L4.7964 15.7575C4.73064 15.7923 4.65644 15.808 4.58223 15.8027C4.50803 15.7974 4.43679 15.7714 4.37662 15.7277C4.31645 15.6839 4.26977 15.6241 4.24189 15.5552C4.21401 15.4862 4.20604 15.4108 4.2189 15.3375L4.87965 11.4832C4.92329 11.2288 4.90438 10.9675 4.82455 10.722C4.74472 10.4765 4.60635 10.2541 4.4214 10.074L1.6194 7.34625C1.56584 7.29452 1.52789 7.22879 1.50987 7.15655C1.49185 7.08431 1.49447 7.00846 1.51746 6.93764C1.54044 6.86682 1.58285 6.80388 1.63985 6.75598C1.69686 6.70809 1.76617 6.67717 1.8399 6.66675L5.71365 6.1005C5.96884 6.06337 6.21119 5.96479 6.41983 5.81324C6.62848 5.66168 6.79717 5.4617 6.9114 5.2305L8.64315 1.72125Z" stroke="#FFB900" stroke-width="1.5" stroke-linecap="round" stroke-linejoin="round"/>
</g>
<defs>
<clipPath id="clip0_3998_1607">
<rect width="18" height="18" fill="white"/>
</clipPath>
</defs>
</svg>
