<svg width="14" height="14" viewBox="0 0 14 14" fill="none" xmlns="http://www.w3.org/2000/svg">
<path d="M6.99935 7.58332C7.32152 7.58332 7.58268 7.32216 7.58268 6.99999C7.58268 6.67782 7.32152 6.41666 6.99935 6.41666C6.67718 6.41666 6.41602 6.67782 6.41602 6.99999C6.41602 7.32216 6.67718 7.58332 6.99935 7.58332Z" stroke="white" stroke-opacity="0.5" stroke-width="1.16667" stroke-linecap="round" stroke-linejoin="round"/>
<path d="M6.99935 3.50001C7.32152 3.50001 7.58268 3.23884 7.58268 2.91668C7.58268 2.59451 7.32152 2.33334 6.99935 2.33334C6.67718 2.33334 6.41602 2.59451 6.41602 2.91668C6.41602 3.23884 6.67718 3.50001 6.99935 3.50001Z" stroke="white" stroke-opacity="0.5" stroke-width="1.16667" stroke-linecap="round" stroke-linejoin="round"/>
<path d="M6.99935 11.6667C7.32152 11.6667 7.58268 11.4055 7.58268 11.0833C7.58268 10.7612 7.32152 10.5 6.99935 10.5C6.67718 10.5 6.41602 10.7612 6.41602 11.0833C6.41602 11.4055 6.67718 11.6667 6.99935 11.6667Z" stroke="white" stroke-opacity="0.5" stroke-width="1.16667" stroke-linecap="round" stroke-linejoin="round"/>
</svg>
