<svg width="14" height="14" viewBox="0 0 14 14" fill="none" xmlns="http://www.w3.org/2000/svg">
<path d="M6.99935 7.58332C7.32152 7.58332 7.58268 7.32216 7.58268 6.99999C7.58268 6.67782 7.32152 6.41666 6.99935 6.41666C6.67718 6.41666 6.41602 6.67782 6.41602 6.99999C6.41602 7.32216 6.67718 7.58332 6.99935 7.58332Z" stroke="white" stroke-opacity="0.2" stroke-width="1.16667" stroke-linecap="round" stroke-linejoin="round"/>
<path d="M11.0833 7.58332C11.4055 7.58332 11.6667 7.32216 11.6667 6.99999C11.6667 6.67782 11.4055 6.41666 11.0833 6.41666C10.7612 6.41666 10.5 6.67782 10.5 6.99999C10.5 7.32216 10.7612 7.58332 11.0833 7.58332Z" stroke="white" stroke-opacity="0.2" stroke-width="1.16667" stroke-linecap="round" stroke-linejoin="round"/>
<path d="M2.91732 7.58332C3.23948 7.58332 3.50065 7.32216 3.50065 6.99999C3.50065 6.67782 3.23948 6.41666 2.91732 6.41666C2.59515 6.41666 2.33398 6.67782 2.33398 6.99999C2.33398 7.32216 2.59515 7.58332 2.91732 7.58332Z" stroke="white" stroke-opacity="0.2" stroke-width="1.16667" stroke-linecap="round" stroke-linejoin="round"/>
</svg>
