<svg width="13" height="13" viewBox="0 0 13 13" fill="none" xmlns="http://www.w3.org/2000/svg">
<path d="M10.8337 7.04167C10.8337 9.75 8.93783 11.1042 6.68449 11.8896C6.5665 11.9296 6.43833 11.9277 6.32158 11.8842C4.06283 11.1042 2.16699 9.75 2.16699 7.04167V3.25C2.16699 3.10634 2.22406 2.96857 2.32564 2.86699C2.42722 2.7654 2.565 2.70834 2.70866 2.70834C3.79199 2.70834 5.14616 2.05834 6.08866 1.235C6.20341 1.13696 6.34939 1.08309 6.50033 1.08309C6.65126 1.08309 6.79724 1.13696 6.91199 1.235C7.85991 2.06375 9.20866 2.70834 10.292 2.70834C10.4357 2.70834 10.5734 2.7654 10.675 2.86699C10.7766 2.96857 10.8337 3.10634 10.8337 3.25V7.04167Z" stroke="white" stroke-opacity="0.4" stroke-width="1.08333" stroke-linecap="round" stroke-linejoin="round"/>
</svg>
