<svg width="20" height="20" viewBox="0 0 20 20" fill="none" xmlns="http://www.w3.org/2000/svg">
<path d="M14.9997 4.16666L12.988 2.15499C12.6755 1.84241 12.2517 1.66675 11.8097 1.66666H4.99967C4.55765 1.66666 4.13372 1.84225 3.82116 2.15481C3.5086 2.46737 3.33301 2.8913 3.33301 3.33332V16.6667C3.33301 17.1087 3.5086 17.5326 3.82116 17.8452C4.13372 18.1577 4.55765 18.3333 4.99967 18.3333H14.9997C15.4417 18.3333 15.8656 18.1577 16.1782 17.8452C16.4907 17.5326 16.6663 17.1087 16.6663 16.6667" stroke="#DBEAFE" stroke-opacity="0.6" stroke-width="1.66667" stroke-linecap="round" stroke-linejoin="round"/>
<path d="M17.8148 10.5217C18.1468 10.1897 18.3333 9.73947 18.3333 9.27C18.3333 8.80054 18.1468 8.3503 17.8148 8.01834C17.4829 7.68637 17.0326 7.49988 16.5632 7.49988C16.0937 7.49988 15.6434 7.68637 15.3115 8.01834L11.9698 11.3617C11.7717 11.5597 11.6267 11.8044 11.5482 12.0733L10.8507 14.465C10.8297 14.5367 10.8285 14.6127 10.847 14.6851C10.8656 14.7574 10.9032 14.8235 10.956 14.8763C11.0088 14.9291 11.0749 14.9668 11.1472 14.9853C11.2196 15.0038 11.2956 15.0026 11.3673 14.9817L13.759 14.2842C14.0279 14.2057 14.2726 14.0606 14.4707 13.8625L17.8148 10.5217Z" stroke="#DBEAFE" stroke-opacity="0.6" stroke-width="1.66667" stroke-linecap="round" stroke-linejoin="round"/>
<path d="M6.66699 15H7.50033" stroke="#DBEAFE" stroke-opacity="0.6" stroke-width="1.66667" stroke-linecap="round" stroke-linejoin="round"/>
</svg>
