<svg width="14" height="14" viewBox="0 0 14 14" fill="none" xmlns="http://www.w3.org/2000/svg">
<path d="M5.25 1.75H2.33333C2.01117 1.75 1.75 2.01117 1.75 2.33333V5.25C1.75 5.57217 2.01117 5.83333 2.33333 5.83333H5.25C5.57217 5.83333 5.83333 5.57217 5.83333 5.25V2.33333C5.83333 2.01117 5.57217 1.75 5.25 1.75Z" stroke="white" stroke-opacity="0.4" stroke-width="1.16667" stroke-linecap="round" stroke-linejoin="round"/>
<path d="M11.668 1.75H8.7513C8.42914 1.75 8.16797 2.01117 8.16797 2.33333V5.25C8.16797 5.57217 8.42914 5.83333 8.7513 5.83333H11.668C11.9901 5.83333 12.2513 5.57217 12.2513 5.25V2.33333C12.2513 2.01117 11.9901 1.75 11.668 1.75Z" stroke="white" stroke-opacity="0.4" stroke-width="1.16667" stroke-linecap="round" stroke-linejoin="round"/>
<path d="M11.668 8.16666H8.7513C8.42914 8.16666 8.16797 8.42782 8.16797 8.74999V11.6667C8.16797 11.9888 8.42914 12.25 8.7513 12.25H11.668C11.9901 12.25 12.2513 11.9888 12.2513 11.6667V8.74999C12.2513 8.42782 11.9901 8.16666 11.668 8.16666Z" stroke="white" stroke-opacity="0.4" stroke-width="1.16667" stroke-linecap="round" stroke-linejoin="round"/>
<path d="M5.25 8.16666H2.33333C2.01117 8.16666 1.75 8.42782 1.75 8.74999V11.6667C1.75 11.9888 2.01117 12.25 2.33333 12.25H5.25C5.57217 12.25 5.83333 11.9888 5.83333 11.6667V8.74999C5.83333 8.42782 5.57217 8.16666 5.25 8.16666Z" stroke="white" stroke-opacity="0.4" stroke-width="1.16667" stroke-linecap="round" stroke-linejoin="round"/>
</svg>
