<svg width="13" height="13" viewBox="0 0 13 13" fill="none" xmlns="http://www.w3.org/2000/svg">
<path d="M7.96322 3.4125C7.86397 3.51375 7.80838 3.64988 7.80838 3.79167C7.80838 3.93345 7.86397 4.06958 7.96322 4.17083L8.82988 5.0375C8.93113 5.13675 9.06727 5.19234 9.20905 5.19234C9.35083 5.19234 9.48696 5.13675 9.58822 5.0375L11.6303 2.99542C11.9027 3.59731 11.9851 4.26792 11.8667 4.91787C11.7483 5.56782 11.4346 6.16625 10.9674 6.6334C10.5003 7.10055 9.90187 7.41424 9.25192 7.53266C8.60197 7.65109 7.93136 7.56862 7.32947 7.29625L3.58655 11.0392C3.37106 11.2547 3.0788 11.3757 2.77405 11.3757C2.4693 11.3757 2.17704 11.2547 1.96155 11.0392C1.74606 10.8237 1.625 10.5314 1.625 10.2267C1.625 9.92192 1.74606 9.62965 1.96155 9.41417L5.70447 5.67125C5.4321 5.06936 5.34963 4.39875 5.46805 3.7488C5.58647 3.09884 5.90016 2.50042 6.36731 2.03327C6.83447 1.56611 7.43289 1.25242 8.08284 1.134C8.7328 1.01558 9.4034 1.09805 10.0053 1.37042L7.96863 3.40708L7.96322 3.4125Z" stroke="white" stroke-opacity="0.4" stroke-width="1.08333" stroke-linecap="round" stroke-linejoin="round"/>
</svg>
