<svg width="14" height="14" viewBox="0 0 14 14" fill="none" xmlns="http://www.w3.org/2000/svg">
<g clip-path="url(#clip0_4106_5356)">
<path d="M7.48345 1.27168C7.33146 1.20235 7.16635 1.16647 6.99929 1.16647C6.83223 1.16647 6.66712 1.20235 6.51512 1.27168L1.51595 3.54668C1.41244 3.59232 1.32443 3.66708 1.26265 3.76185C1.20086 3.85661 1.16797 3.9673 1.16797 4.08043C1.16797 4.19356 1.20086 4.30425 1.26265 4.39902C1.32443 4.49378 1.41244 4.56854 1.51595 4.61418L6.52095 6.89501C6.67295 6.96434 6.83806 7.00022 7.00512 7.00022C7.17218 7.00022 7.33729 6.96434 7.48929 6.89501L12.4943 4.62001C12.5978 4.57437 12.6858 4.49962 12.7476 4.40485C12.8094 4.31008 12.8423 4.19939 12.8423 4.08627C12.8423 3.97314 12.8094 3.86245 12.7476 3.76768C12.6858 3.67291 12.5978 3.59816 12.4943 3.55252L7.48345 1.27168Z" stroke="white" stroke-opacity="0.5" stroke-width="1.16667" stroke-linecap="round" stroke-linejoin="round"/>
<path d="M1.16797 7C1.16769 7.11157 1.19942 7.22088 1.25939 7.31497C1.31936 7.40906 1.40505 7.48397 1.5063 7.53083L6.52297 9.81167C6.67417 9.88013 6.83824 9.91555 7.00422 9.91555C7.1702 9.91555 7.33427 9.88013 7.48547 9.81167L12.4905 7.53667C12.5937 7.49026 12.6812 7.4148 12.7424 7.31951C12.8035 7.22422 12.8355 7.1132 12.8346 7" stroke="white" stroke-opacity="0.5" stroke-width="1.16667" stroke-linecap="round" stroke-linejoin="round"/>
<path d="M1.16797 9.91666C1.16769 10.0282 1.19942 10.1375 1.25939 10.2316C1.31936 10.3257 1.40505 10.4006 1.5063 10.4475L6.52297 12.7283C6.67417 12.7968 6.83824 12.8322 7.00422 12.8322C7.1702 12.8322 7.33427 12.7968 7.48547 12.7283L12.4905 10.4533C12.5937 10.4069 12.6812 10.3315 12.7424 10.2362C12.8035 10.1409 12.8355 10.0299 12.8346 9.91666" stroke="white" stroke-opacity="0.5" stroke-width="1.16667" stroke-linecap="round" stroke-linejoin="round"/>
</g>
<defs>
<clipPath id="clip0_4106_5356">
<rect width="14" height="14" fill="white"/>
</clipPath>
</defs>
</svg>
