<svg width="14" height="14" viewBox="0 0 14 14" fill="none" xmlns="http://www.w3.org/2000/svg">
<path d="M7.0013 7.58332C7.32347 7.58332 7.58464 7.32216 7.58464 6.99999C7.58464 6.67782 7.32347 6.41666 7.0013 6.41666C6.67914 6.41666 6.41797 6.67782 6.41797 6.99999C6.41797 7.32216 6.67914 7.58332 7.0013 7.58332Z" stroke="white" stroke-opacity="0.5" stroke-width="1.16667" stroke-linecap="round" stroke-linejoin="round"/>
<path d="M7.0013 3.50001C7.32347 3.50001 7.58464 3.23884 7.58464 2.91668C7.58464 2.59451 7.32347 2.33334 7.0013 2.33334C6.67914 2.33334 6.41797 2.59451 6.41797 2.91668C6.41797 3.23884 6.67914 3.50001 7.0013 3.50001Z" stroke="white" stroke-opacity="0.5" stroke-width="1.16667" stroke-linecap="round" stroke-linejoin="round"/>
<path d="M7.0013 11.6667C7.32347 11.6667 7.58464 11.4055 7.58464 11.0833C7.58464 10.7612 7.32347 10.5 7.0013 10.5C6.67914 10.5 6.41797 10.7612 6.41797 11.0833C6.41797 11.4055 6.67914 11.6667 7.0013 11.6667Z" stroke="white" stroke-opacity="0.5" stroke-width="1.16667" stroke-linecap="round" stroke-linejoin="round"/>
</svg>
