<svg width="16" height="16" viewBox="0 0 16 16" fill="none" xmlns="http://www.w3.org/2000/svg">
<path d="M7.9987 8.66668C8.36689 8.66668 8.66536 8.3682 8.66536 8.00001C8.66536 7.63182 8.36689 7.33334 7.9987 7.33334C7.63051 7.33334 7.33203 7.63182 7.33203 8.00001C7.33203 8.3682 7.63051 8.66668 7.9987 8.66668Z" stroke="white" stroke-opacity="0.2" stroke-width="1.33333" stroke-linecap="round" stroke-linejoin="round"/>
<path d="M12.6667 8.66668C13.0349 8.66668 13.3333 8.3682 13.3333 8.00001C13.3333 7.63182 13.0349 7.33334 12.6667 7.33334C12.2985 7.33334 12 7.63182 12 8.00001C12 8.3682 12.2985 8.66668 12.6667 8.66668Z" stroke="white" stroke-opacity="0.2" stroke-width="1.33333" stroke-linecap="round" stroke-linejoin="round"/>
<path d="M3.33464 8.66668C3.70283 8.66668 4.0013 8.3682 4.0013 8.00001C4.0013 7.63182 3.70283 7.33334 3.33464 7.33334C2.96645 7.33334 2.66797 7.63182 2.66797 8.00001C2.66797 8.3682 2.96645 8.66668 3.33464 8.66668Z" stroke="white" stroke-opacity="0.2" stroke-width="1.33333" stroke-linecap="round" stroke-linejoin="round"/>
</svg>
