<svg width="16" height="16" viewBox="0 0 16 16" fill="none" xmlns="http://www.w3.org/2000/svg">
<path d="M7.9987 8.66665C8.36689 8.66665 8.66536 8.36817 8.66536 7.99998C8.66536 7.63179 8.36689 7.33331 7.9987 7.33331C7.63051 7.33331 7.33203 7.63179 7.33203 7.99998C7.33203 8.36817 7.63051 8.66665 7.9987 8.66665Z" stroke="white" stroke-opacity="0.2" stroke-width="1.33333" stroke-linecap="round" stroke-linejoin="round"/>
<path d="M12.6667 8.66665C13.0349 8.66665 13.3333 8.36817 13.3333 7.99998C13.3333 7.63179 13.0349 7.33331 12.6667 7.33331C12.2985 7.33331 12 7.63179 12 7.99998C12 8.36817 12.2985 8.66665 12.6667 8.66665Z" stroke="white" stroke-opacity="0.2" stroke-width="1.33333" stroke-linecap="round" stroke-linejoin="round"/>
<path d="M3.33464 8.66665C3.70283 8.66665 4.0013 8.36817 4.0013 7.99998C4.0013 7.63179 3.70283 7.33331 3.33464 7.33331C2.96645 7.33331 2.66797 7.63179 2.66797 7.99998C2.66797 8.36817 2.96645 8.66665 3.33464 8.66665Z" stroke="white" stroke-opacity="0.2" stroke-width="1.33333" stroke-linecap="round" stroke-linejoin="round"/>
</svg>
