<svg width="14" height="14" viewBox="0 0 14 14" fill="none" xmlns="http://www.w3.org/2000/svg">
<path d="M11.6666 5.83329C11.6666 8.74588 8.4355 11.7792 7.3505 12.716C7.24942 12.792 7.12638 12.8331 6.99992 12.8331C6.87345 12.8331 6.75041 12.792 6.64934 12.716C5.56434 11.7792 2.33325 8.74588 2.33325 5.83329C2.33325 4.59562 2.82492 3.40863 3.70009 2.53346C4.57526 1.65829 5.76224 1.16663 6.99992 1.16663C8.2376 1.16663 9.42458 1.65829 10.2998 2.53346C11.1749 3.40863 11.6666 4.59562 11.6666 5.83329Z" stroke="white" stroke-opacity="0.4" stroke-width="1.16667" stroke-linecap="round" stroke-linejoin="round"/>
<path d="M7 7.58337C7.9665 7.58337 8.75 6.79987 8.75 5.83337C8.75 4.86688 7.9665 4.08337 7 4.08337C6.0335 4.08337 5.25 4.86688 5.25 5.83337C5.25 6.79987 6.0335 7.58337 7 7.58337Z" stroke="white" stroke-opacity="0.4" stroke-width="1.16667" stroke-linecap="round" stroke-linejoin="round"/>
</svg>
