<svg width="14" height="14" viewBox="0 0 14 14" fill="none" xmlns="http://www.w3.org/2000/svg">
<path d="M5.25 1.75H2.33333C2.01117 1.75 1.75 2.01117 1.75 2.33333V5.25C1.75 5.57217 2.01117 5.83333 2.33333 5.83333H5.25C5.57217 5.83333 5.83333 5.57217 5.83333 5.25V2.33333C5.83333 2.01117 5.57217 1.75 5.25 1.75Z" stroke="white" stroke-opacity="0.4" stroke-width="1.16667" stroke-linecap="round" stroke-linejoin="round"/>
<path d="M11.6667 1.75H8.75008C8.42792 1.75 8.16675 2.01117 8.16675 2.33333V5.25C8.16675 5.57217 8.42792 5.83333 8.75008 5.83333H11.6667C11.9889 5.83333 12.2501 5.57217 12.2501 5.25V2.33333C12.2501 2.01117 11.9889 1.75 11.6667 1.75Z" stroke="white" stroke-opacity="0.4" stroke-width="1.16667" stroke-linecap="round" stroke-linejoin="round"/>
<path d="M11.6667 8.16663H8.75008C8.42792 8.16663 8.16675 8.42779 8.16675 8.74996V11.6666C8.16675 11.9888 8.42792 12.25 8.75008 12.25H11.6667C11.9889 12.25 12.2501 11.9888 12.2501 11.6666V8.74996C12.2501 8.42779 11.9889 8.16663 11.6667 8.16663Z" stroke="white" stroke-opacity="0.4" stroke-width="1.16667" stroke-linecap="round" stroke-linejoin="round"/>
<path d="M5.25 8.16663H2.33333C2.01117 8.16663 1.75 8.42779 1.75 8.74996V11.6666C1.75 11.9888 2.01117 12.25 2.33333 12.25H5.25C5.57217 12.25 5.83333 11.9888 5.83333 11.6666V8.74996C5.83333 8.42779 5.57217 8.16663 5.25 8.16663Z" stroke="white" stroke-opacity="0.4" stroke-width="1.16667" stroke-linecap="round" stroke-linejoin="round"/>
</svg>
