<svg width="13" height="13" viewBox="0 0 13 13" fill="none" xmlns="http://www.w3.org/2000/svg">
<g clip-path="url(#clip0_3923_957)">
<path d="M6.5 1.0835V11.9168" stroke="white" stroke-opacity="0.4" stroke-width="1.08333" stroke-linecap="round" stroke-linejoin="round"/>
<path d="M9.20833 2.7085H5.14583C4.64303 2.7085 4.16081 2.90824 3.80528 3.26377C3.44974 3.61931 3.25 4.10152 3.25 4.60433C3.25 5.10714 3.44974 5.58935 3.80528 5.94489C4.16081 6.30042 4.64303 6.50016 5.14583 6.50016H7.85417C8.35697 6.50016 8.83919 6.6999 9.19472 7.05544C9.55026 7.41098 9.75 7.89319 9.75 8.396C9.75 8.8988 9.55026 9.38102 9.19472 9.73655C8.83919 10.0921 8.35697 10.2918 7.85417 10.2918H3.25" stroke="white" stroke-opacity="0.4" stroke-width="1.08333" stroke-linecap="round" stroke-linejoin="round"/>
</g>
<defs>
<clipPath id="clip0_3923_957">
<rect width="13" height="13" fill="white"/>
</clipPath>
</defs>
</svg>
