<svg width="13" height="13" viewBox="0 0 13 13" fill="none" xmlns="http://www.w3.org/2000/svg">
<g clip-path="url(#clip0_3923_962)">
<path d="M4.33341 11.9168C4.63257 11.9168 4.87508 11.6743 4.87508 11.3752C4.87508 11.076 4.63257 10.8335 4.33341 10.8335C4.03426 10.8335 3.79175 11.076 3.79175 11.3752C3.79175 11.6743 4.03426 11.9168 4.33341 11.9168Z" stroke="white" stroke-opacity="0.4" stroke-width="1.08333" stroke-linecap="round" stroke-linejoin="round"/>
<path d="M10.2917 11.9168C10.5908 11.9168 10.8333 11.6743 10.8333 11.3752C10.8333 11.076 10.5908 10.8335 10.2917 10.8335C9.99251 10.8335 9.75 11.076 9.75 11.3752C9.75 11.6743 9.99251 11.9168 10.2917 11.9168Z" stroke="white" stroke-opacity="0.4" stroke-width="1.08333" stroke-linecap="round" stroke-linejoin="round"/>
<path d="M1.11035 1.11035H2.19369L3.63452 7.83785C3.68737 8.08423 3.82446 8.30448 4.0222 8.46069C4.21993 8.6169 4.46593 8.69929 4.71785 8.69368H10.0154C10.2619 8.69329 10.5009 8.6088 10.693 8.45418C10.885 8.29956 11.0186 8.08406 11.0716 7.84327L11.9654 3.81868H2.77327" stroke="white" stroke-opacity="0.4" stroke-width="1.08333" stroke-linecap="round" stroke-linejoin="round"/>
</g>
<defs>
<clipPath id="clip0_3923_962">
<rect width="13" height="13" fill="white"/>
</clipPath>
</defs>
</svg>
