<svg width="12" height="12" viewBox="0 0 12 12" fill="none" xmlns="http://www.w3.org/2000/svg">
<g opacity="0.856998">
<mask id="path-1-inside-1_3923_1044" fill="white">
<path d="M0 6C0 2.68629 2.68629 0 6 0C9.31371 0 12 2.68629 12 6C12 9.31371 9.31371 12 6 12C2.68629 12 0 9.31371 0 6Z"/>
</mask>
<path d="M0 6C0 2.68629 2.68629 0 6 0C9.31371 0 12 2.68629 12 6C12 9.31371 9.31371 12 6 12C2.68629 12 0 9.31371 0 6Z" fill="#2B7FFF"/>
<path d="M0 6M12 6M12 6M0 6M6 0M12 6M6 12M0 6M6 12V10C3.79086 10 2 8.20914 2 6H0H-2C-2 10.4183 1.58172 14 6 14V12ZM12 6H10C10 8.20914 8.20914 10 6 10V12V14C10.4183 14 14 10.4183 14 6H12ZM6 0V2C8.20914 2 10 3.79086 10 6H12H14C14 1.58172 10.4183 -2 6 -2V0ZM6 0V-2C1.58172 -2 -2 1.58172 -2 6H0H2C2 3.79086 3.79086 2 6 2V0Z" fill="#2B7FFF" mask="url(#path-1-inside-1_3923_1044)"/>
</g>
</svg>
