<svg width="10" height="10" viewBox="0 0 10 10" fill="none" xmlns="http://www.w3.org/2000/svg">
<g clip-path="url(#clip0_3923_1139)">
<path d="M4.99992 9.16683C7.30111 9.16683 9.16658 7.30135 9.16658 5.00016C9.16658 2.69898 7.30111 0.833496 4.99992 0.833496C2.69873 0.833496 0.833252 2.69898 0.833252 5.00016C0.833252 7.30135 2.69873 9.16683 4.99992 9.16683Z" stroke="white" stroke-opacity="0.3" stroke-width="0.833333" stroke-linecap="round" stroke-linejoin="round"/>
<path d="M5 7.5C6.38071 7.5 7.5 6.38071 7.5 5C7.5 3.61929 6.38071 2.5 5 2.5C3.61929 2.5 2.5 3.61929 2.5 5C2.5 6.38071 3.61929 7.5 5 7.5Z" stroke="white" stroke-opacity="0.3" stroke-width="0.833333" stroke-linecap="round" stroke-linejoin="round"/>
<path d="M5.00008 5.83317C5.46032 5.83317 5.83341 5.46007 5.83341 4.99984C5.83341 4.5396 5.46032 4.1665 5.00008 4.1665C4.53984 4.1665 4.16675 4.5396 4.16675 4.99984C4.16675 5.46007 4.53984 5.83317 5.00008 5.83317Z" stroke="white" stroke-opacity="0.3" stroke-width="0.833333" stroke-linecap="round" stroke-linejoin="round"/>
</g>
<defs>
<clipPath id="clip0_3923_1139">
<rect width="10" height="10" fill="white"/>
</clipPath>
</defs>
</svg>
