<svg width="13" height="13" viewBox="0 0 13 13" fill="none" xmlns="http://www.w3.org/2000/svg">
<g clip-path="url(#clip0_3923_949)">
<path d="M11.7703 9.7502L7.43698 2.16687C7.3425 2.00015 7.20548 1.86147 7.0399 1.76499C6.87433 1.66851 6.68612 1.61768 6.49448 1.61768C6.30285 1.61768 6.11464 1.66851 5.94907 1.76499C5.78349 1.86147 5.64647 2.00015 5.55198 2.16687L1.21865 9.7502C1.12315 9.91561 1.07307 10.1033 1.07349 10.2943C1.07391 10.4853 1.12482 10.6728 1.22106 10.8378C1.3173 11.0028 1.45544 11.1394 1.62149 11.2337C1.78753 11.3281 1.97558 11.3769 2.16657 11.3752H10.8332C11.0233 11.375 11.21 11.3248 11.3745 11.2296C11.539 11.1345 11.6756 10.9977 11.7706 10.8331C11.8655 10.6684 11.9155 10.4817 11.9155 10.2916C11.9154 10.1015 11.8654 9.91481 11.7703 9.7502Z" stroke="white" stroke-opacity="0.4" stroke-width="1.08333" stroke-linecap="round" stroke-linejoin="round"/>
<path d="M6.5 4.875V7.04167" stroke="white" stroke-opacity="0.4" stroke-width="1.08333" stroke-linecap="round" stroke-linejoin="round"/>
<path d="M6.5 9.2085H6.50542" stroke="white" stroke-opacity="0.4" stroke-width="1.08333" stroke-linecap="round" stroke-linejoin="round"/>
</g>
<defs>
<clipPath id="clip0_3923_949">
<rect width="13" height="13" fill="white"/>
</clipPath>
</defs>
</svg>
