<svg width="20" height="20" viewBox="0 0 20 20" fill="none" xmlns="http://www.w3.org/2000/svg">
<path d="M4.08398 15.9167C0.833985 12.6667 0.833985 7.33333 4.08398 4.08333" stroke="#51A2FF" stroke-width="1.66667" stroke-linecap="round" stroke-linejoin="round"/>
<path d="M6.5 13.5C4.58333 11.5833 4.58333 8.41667 6.5 6.41667" stroke="#51A2FF" stroke-width="1.66667" stroke-linecap="round" stroke-linejoin="round"/>
<path d="M10.0007 11.6667C10.9211 11.6667 11.6673 10.9205 11.6673 9.99999C11.6673 9.07952 10.9211 8.33333 10.0007 8.33333C9.08018 8.33333 8.33398 9.07952 8.33398 9.99999C8.33398 10.9205 9.08018 11.6667 10.0007 11.6667Z" stroke="#51A2FF" stroke-width="1.66667" stroke-linecap="round" stroke-linejoin="round"/>
<path d="M13.5 6.5C15.4167 8.41667 15.4167 11.5833 13.5 13.5833" stroke="#51A2FF" stroke-width="1.66667" stroke-linecap="round" stroke-linejoin="round"/>
<path d="M15.916 4.08333C19.166 7.33333 19.166 12.5833 15.916 15.8333" stroke="#51A2FF" stroke-width="1.66667" stroke-linecap="round" stroke-linejoin="round"/>
</svg>
