<svg width="11" height="11" viewBox="0 0 11 11" fill="none" xmlns="http://www.w3.org/2000/svg">
<g clip-path="url(#clip0_4106_4035)">
<path d="M8.25065 1.83331H2.75065C2.24439 1.83331 1.83398 2.24372 1.83398 2.74998V8.24998C1.83398 8.75624 2.24439 9.16665 2.75065 9.16665H8.25065C8.75691 9.16665 9.16732 8.75624 9.16732 8.24998V2.74998C9.16732 2.24372 8.75691 1.83331 8.25065 1.83331Z" stroke="white" stroke-opacity="0.2" stroke-width="0.916667" stroke-linecap="round" stroke-linejoin="round"/>
<path d="M6.41667 4.125H4.58333C4.3302 4.125 4.125 4.3302 4.125 4.58333V6.41667C4.125 6.6698 4.3302 6.875 4.58333 6.875H6.41667C6.6698 6.875 6.875 6.6698 6.875 6.41667V4.58333C6.875 4.3302 6.6698 4.125 6.41667 4.125Z" stroke="white" stroke-opacity="0.2" stroke-width="0.916667" stroke-linecap="round" stroke-linejoin="round"/>
<path d="M6.875 0.916687V1.83335" stroke="white" stroke-opacity="0.2" stroke-width="0.916667" stroke-linecap="round" stroke-linejoin="round"/>
<path d="M6.875 9.16669V10.0834" stroke="white" stroke-opacity="0.2" stroke-width="0.916667" stroke-linecap="round" stroke-linejoin="round"/>
<path d="M0.916016 6.875H1.83268" stroke="white" stroke-opacity="0.2" stroke-width="0.916667" stroke-linecap="round" stroke-linejoin="round"/>
<path d="M0.916016 4.125H1.83268" stroke="white" stroke-opacity="0.2" stroke-width="0.916667" stroke-linecap="round" stroke-linejoin="round"/>
<path d="M9.16602 6.875H10.0827" stroke="white" stroke-opacity="0.2" stroke-width="0.916667" stroke-linecap="round" stroke-linejoin="round"/>
<path d="M9.16602 4.125H10.0827" stroke="white" stroke-opacity="0.2" stroke-width="0.916667" stroke-linecap="round" stroke-linejoin="round"/>
<path d="M4.125 0.916687V1.83335" stroke="white" stroke-opacity="0.2" stroke-width="0.916667" stroke-linecap="round" stroke-linejoin="round"/>
<path d="M4.125 9.16669V10.0834" stroke="white" stroke-opacity="0.2" stroke-width="0.916667" stroke-linecap="round" stroke-linejoin="round"/>
</g>
<defs>
<clipPath id="clip0_4106_4035">
<rect width="11" height="11" fill="white"/>
</clipPath>
</defs>
</svg>
