<svg width="20" height="20" viewBox="0 0 20 20" fill="none" xmlns="http://www.w3.org/2000/svg">
<path d="M3.33422 11.6667C3.17653 11.6672 3.02191 11.623 2.88835 11.5391C2.75479 11.4553 2.64775 11.3353 2.57968 11.193C2.51161 11.0508 2.4853 10.8921 2.5038 10.7355C2.52231 10.5789 2.58487 10.4308 2.68422 10.3083L10.9342 1.80833C10.9961 1.73689 11.0804 1.68862 11.1734 1.67144C11.2663 1.65425 11.3623 1.66917 11.4457 1.71375C11.529 1.75832 11.5947 1.82991 11.632 1.91675C11.6693 2.00359 11.676 2.10053 11.6509 2.19166L10.0509 7.20833C10.0037 7.3346 9.98786 7.47043 10.0047 7.60417C10.0216 7.7379 10.0706 7.86556 10.1476 7.97618C10.2247 8.0868 10.3274 8.17709 10.447 8.23929C10.5665 8.3015 10.6994 8.33377 10.8342 8.33333H16.6676C16.8253 8.33279 16.9799 8.37701 17.1134 8.46084C17.247 8.54468 17.354 8.6647 17.4221 8.80695C17.4902 8.94919 17.5165 9.10784 17.498 9.26444C17.4795 9.42105 17.4169 9.56919 17.3176 9.69166L9.06756 18.1917C9.00567 18.2631 8.92134 18.3114 8.8284 18.3285C8.73547 18.3457 8.63945 18.3308 8.55611 18.2862C8.47278 18.2417 8.40707 18.1701 8.36978 18.0832C8.33248 17.9964 8.32582 17.8995 8.35089 17.8083L9.95089 12.7917C9.99807 12.6654 10.0139 12.5296 9.99706 12.3958C9.98021 12.2621 9.93117 12.1344 9.85415 12.0238C9.77712 11.9132 9.67441 11.8229 9.55483 11.7607C9.43524 11.6985 9.30235 11.6662 9.16756 11.6667H3.33422Z" stroke="#00D492" stroke-width="1.66667" stroke-linecap="round" stroke-linejoin="round"/>
</svg>
