<svg width="22" height="22" viewBox="0 0 22 22" fill="none" xmlns="http://www.w3.org/2000/svg">
<path d="M3.66602 1.83331V20.1666L5.49935 19.25L7.33268 20.1666L9.16602 19.25L10.9993 20.1666L12.8327 19.25L14.666 20.1666L16.4993 19.25L18.3327 20.1666V1.83331L16.4993 2.74998L14.666 1.83331L12.8327 2.74998L10.9993 1.83331L9.16602 2.74998L7.33268 1.83331L5.49935 2.74998L3.66602 1.83331Z" stroke="white" stroke-width="1.83333" stroke-linecap="round" stroke-linejoin="round"/>
<path d="M14.6673 7.33331H9.16732C8.68109 7.33331 8.21477 7.52647 7.87096 7.87028C7.52714 8.2141 7.33398 8.68042 7.33398 9.16665C7.33398 9.65288 7.52714 10.1192 7.87096 10.463C8.21477 10.8068 8.68109 11 9.16732 11H12.834C13.3202 11 13.7865 11.1931 14.1303 11.537C14.4742 11.8808 14.6673 12.3471 14.6673 12.8333C14.6673 13.3195 14.4742 13.7859 14.1303 14.1297C13.7865 14.4735 13.3202 14.6666 12.834 14.6666H7.33398" stroke="white" stroke-width="1.83333" stroke-linecap="round" stroke-linejoin="round"/>
<path d="M11 16.0416V5.95831" stroke="white" stroke-width="1.83333" stroke-linecap="round" stroke-linejoin="round"/>
</svg>
