<svg width="22" height="22" viewBox="0 0 22 22" fill="none" xmlns="http://www.w3.org/2000/svg">
<path d="M13.7507 1.83331H8.25065C7.74439 1.83331 7.33398 2.24372 7.33398 2.74998V4.58331C7.33398 5.08957 7.74439 5.49998 8.25065 5.49998H13.7507C14.2569 5.49998 14.6673 5.08957 14.6673 4.58331V2.74998C14.6673 2.24372 14.2569 1.83331 13.7507 1.83331Z" stroke="white" stroke-width="1.83333" stroke-linecap="round" stroke-linejoin="round"/>
<path d="M14.666 3.66669H16.4993C16.9856 3.66669 17.4519 3.85984 17.7957 4.20366C18.1395 4.54747 18.3327 5.01379 18.3327 5.50002V18.3334C18.3327 18.8196 18.1395 19.2859 17.7957 19.6297C17.4519 19.9735 16.9856 20.1667 16.4993 20.1667H5.49935C5.01312 20.1667 4.5468 19.9735 4.20299 19.6297C3.85917 19.2859 3.66602 18.8196 3.66602 18.3334V5.50002C3.66602 5.01379 3.85917 4.54747 4.20299 4.20366C4.5468 3.85984 5.01312 3.66669 5.49935 3.66669H7.33268" stroke="white" stroke-width="1.83333" stroke-linecap="round" stroke-linejoin="round"/>
<path d="M8.25 12.8333L10.0833 14.6667L13.75 11" stroke="white" stroke-width="1.83333" stroke-linecap="round" stroke-linejoin="round"/>
</svg>
