<svg width="22" height="22" viewBox="0 0 22 22" fill="none" xmlns="http://www.w3.org/2000/svg">
<path d="M19.2509 11C19.7569 11 20.1722 10.5884 20.1218 10.0852C19.9104 7.98064 18.9778 6.01396 17.482 4.51853C15.9863 3.0231 14.0194 2.09094 11.9148 1.88007C11.4107 1.82965 11 2.2449 11 2.7509V10.0842C11 10.3274 11.0966 10.5605 11.2685 10.7324C11.4404 10.9043 11.6736 11.0009 11.9167 11.0009L19.2509 11Z" stroke="white" stroke-width="1.83333" stroke-linecap="round" stroke-linejoin="round"/>
<path d="M19.4416 14.5658C18.8584 15.945 17.9463 17.1602 16.785 18.1054C15.6236 19.0505 14.2484 19.6968 12.7796 19.9877C11.3108 20.2786 9.79312 20.2053 8.3592 19.7742C6.92528 19.343 5.61881 18.5672 4.554 17.5144C3.4892 16.4617 2.69848 15.1642 2.25098 13.7353C1.80349 12.3064 1.71283 10.7896 1.98695 9.31759C2.26107 7.84556 2.89161 6.46309 3.82344 5.29104C4.75528 4.11899 5.96004 3.19305 7.3324 2.59418" stroke="white" stroke-width="1.83333" stroke-linecap="round" stroke-linejoin="round"/>
</svg>
