<svg width="20" height="20" viewBox="0 0 20 20" fill="none" xmlns="http://www.w3.org/2000/svg">
<path d="M18.3327 10H16.266C15.9018 9.99923 15.5474 10.1178 15.2569 10.3375C14.9665 10.5572 14.756 10.866 14.6577 11.2167L12.6993 18.1833C12.6867 18.2266 12.6604 18.2646 12.6243 18.2917C12.5883 18.3187 12.5444 18.3333 12.4993 18.3333C12.4543 18.3333 12.4104 18.3187 12.3743 18.2917C12.3383 18.2646 12.312 18.2266 12.2993 18.1833L7.69935 1.81667C7.68673 1.7734 7.66041 1.73538 7.62435 1.70834C7.58829 1.68129 7.54443 1.66667 7.49935 1.66667C7.45427 1.66667 7.41041 1.68129 7.37435 1.70834C7.33829 1.73538 7.31197 1.7734 7.29935 1.81667L5.34102 8.78334C5.24307 9.13263 5.03383 9.44043 4.74507 9.66002C4.4563 9.8796 4.10378 9.99897 3.74102 10H1.66602" stroke="#A684FF" stroke-width="1.66667" stroke-linecap="round" stroke-linejoin="round"/>
</svg>
