<svg width="15" height="15" viewBox="0 0 15 15" fill="none" xmlns="http://www.w3.org/2000/svg">
<g clip-path="url(#clip0_4106_3970)">
<path d="M6.20967 9.6875C6.15387 9.47121 6.04113 9.27382 5.88318 9.11587C5.72523 8.95792 5.52784 8.84518 5.31155 8.78938L1.47717 7.80063C1.41175 7.78206 1.35418 7.74266 1.31318 7.68841C1.27218 7.63415 1.25 7.56801 1.25 7.5C1.25 7.432 1.27218 7.36585 1.31318 7.3116C1.35418 7.25735 1.41175 7.21795 1.47717 7.19938L5.31155 6.21C5.52777 6.15426 5.7251 6.04161 5.88305 5.88378C6.04099 5.72594 6.15378 5.52868 6.20967 5.3125L7.19842 1.47813C7.2168 1.41245 7.25616 1.35459 7.3105 1.31337C7.36483 1.27216 7.43116 1.24985 7.49936 1.24985C7.56756 1.24985 7.63389 1.27216 7.68822 1.31337C7.74256 1.35459 7.78192 1.41245 7.8003 1.47813L8.78842 5.3125C8.84422 5.5288 8.95696 5.72619 9.11491 5.88414C9.27286 6.04209 9.47025 6.15483 9.68655 6.21063L13.5209 7.19875C13.5869 7.21694 13.645 7.25626 13.6864 7.31068C13.7279 7.36509 13.7503 7.4316 13.7503 7.5C13.7503 7.5684 13.7279 7.63491 13.6864 7.68933C13.645 7.74375 13.5869 7.78307 13.5209 7.80125L9.68655 8.78938C9.47025 8.84518 9.27286 8.95792 9.11491 9.11587C8.95696 9.27382 8.84422 9.47121 8.78842 9.6875L7.79967 13.5219C7.78129 13.5876 7.74193 13.6454 7.6876 13.6866C7.63326 13.7278 7.56693 13.7502 7.49873 13.7502C7.43054 13.7502 7.36421 13.7278 7.30987 13.6866C7.25554 13.6454 7.21618 13.5876 7.1978 13.5219L6.20967 9.6875Z" stroke="#51A2FF" stroke-width="1.25" stroke-linecap="round" stroke-linejoin="round"/>
<path d="M12.5 1.875V4.375" stroke="#51A2FF" stroke-width="1.25" stroke-linecap="round" stroke-linejoin="round"/>
<path d="M13.75 3.125H11.25" stroke="#51A2FF" stroke-width="1.25" stroke-linecap="round" stroke-linejoin="round"/>
<path d="M2.5 10.625V11.875" stroke="#51A2FF" stroke-width="1.25" stroke-linecap="round" stroke-linejoin="round"/>
<path d="M3.125 11.25H1.875" stroke="#51A2FF" stroke-width="1.25" stroke-linecap="round" stroke-linejoin="round"/>
</g>
<defs>
<clipPath id="clip0_4106_3970">
<rect width="15" height="15" fill="white"/>
</clipPath>
</defs>
</svg>
