<svg width="22" height="22" viewBox="0 0 22 22" fill="none" xmlns="http://www.w3.org/2000/svg">
<path d="M9.16602 9.16666V4.58332C9.16602 4.34021 9.26259 4.10705 9.4345 3.93514C9.60641 3.76323 9.83957 3.66666 10.0827 3.66666H11.916C12.1591 3.66666 12.3923 3.76323 12.5642 3.93514C12.7361 4.10705 12.8327 4.34021 12.8327 4.58332V9.16666" stroke="white" stroke-width="1.83333" stroke-linecap="round" stroke-linejoin="round"/>
<path d="M12.834 5.5C14.2927 5.5 15.6916 6.07946 16.7231 7.11091C17.7545 8.14236 18.334 9.54131 18.334 11V13.75" stroke="white" stroke-width="1.83333" stroke-linecap="round" stroke-linejoin="round"/>
<path d="M3.66602 13.75V11C3.66602 9.54131 4.24548 8.14236 5.27693 7.11091C6.30838 6.07946 7.70733 5.5 9.16602 5.5" stroke="white" stroke-width="1.83333" stroke-linecap="round" stroke-linejoin="round"/>
<path d="M19.2507 13.75H2.75065C2.24439 13.75 1.83398 14.1604 1.83398 14.6667V16.5C1.83398 17.0063 2.24439 17.4167 2.75065 17.4167H19.2507C19.7569 17.4167 20.1673 17.0063 20.1673 16.5V14.6667C20.1673 14.1604 19.7569 13.75 19.2507 13.75Z" stroke="white" stroke-width="1.83333" stroke-linecap="round" stroke-linejoin="round"/>
</svg>
