<svg width="13" height="13" viewBox="0 0 13 13" fill="none" xmlns="http://www.w3.org/2000/svg">
<g clip-path="url(#clip0_4094_939)">
<path d="M1.4014 9.43259C1.19822 9.63571 1.08405 9.91121 1.08398 10.1985V11.375C1.08398 11.5187 1.14105 11.6564 1.24263 11.758C1.34422 11.8596 1.48199 11.9167 1.62565 11.9167H3.25065C3.39431 11.9167 3.53208 11.8596 3.63367 11.758C3.73525 11.6564 3.79232 11.5187 3.79232 11.375V10.8333C3.79232 10.6897 3.84939 10.5519 3.95097 10.4503C4.05255 10.3487 4.19033 10.2917 4.33398 10.2917H4.87565C5.01931 10.2917 5.15709 10.2346 5.25867 10.133C5.36025 10.0314 5.41732 9.89366 5.41732 9.75001V9.20834C5.41732 9.06468 5.47439 8.9269 5.57597 8.82532C5.67755 8.72374 5.81533 8.66667 5.95898 8.66667H6.05215C6.33945 8.66661 6.61495 8.55243 6.81807 8.34926L7.25898 7.90834C8.01181 8.17058 8.83135 8.16958 9.58354 7.9055C10.3357 7.64141 10.976 7.12988 11.3997 6.45457C11.8233 5.77927 12.0053 4.98018 11.9158 4.18803C11.8262 3.39588 11.4705 2.65756 10.9068 2.09386C10.3431 1.53015 9.60478 1.17444 8.81263 1.0849C8.02047 0.995369 7.22139 1.17732 6.54608 1.60098C5.87078 2.02464 5.35925 2.66494 5.09516 3.41712C4.83107 4.1693 4.83007 4.98884 5.09232 5.74167L1.4014 9.43259Z" stroke="white" stroke-opacity="0.4" stroke-width="1.08333" stroke-linecap="round" stroke-linejoin="round"/>
<path d="M8.93685 4.33329C9.08643 4.33329 9.20768 4.21204 9.20768 4.06246C9.20768 3.91288 9.08643 3.79163 8.93685 3.79163C8.78727 3.79163 8.66602 3.91288 8.66602 4.06246C8.66602 4.21204 8.78727 4.33329 8.93685 4.33329Z" fill="white" fill-opacity="0.4" stroke="white" stroke-opacity="0.4" stroke-width="1.08333" stroke-linecap="round" stroke-linejoin="round"/>
</g>
<defs>
<clipPath id="clip0_4094_939">
<rect width="13" height="13" fill="white"/>
</clipPath>
</defs>
</svg>
