<svg width="14" height="14" viewBox="0 0 14 14" fill="none" xmlns="http://www.w3.org/2000/svg">
<path d="M9.33366 11.6666V2.33329C9.33366 2.02387 9.21074 1.72713 8.99195 1.50833C8.77316 1.28954 8.47641 1.16663 8.16699 1.16663H5.83366C5.52424 1.16663 5.22749 1.28954 5.0087 1.50833C4.78991 1.72713 4.66699 2.02387 4.66699 2.33329V11.6666" stroke="#51A2FF" stroke-width="1.16667" stroke-linecap="round" stroke-linejoin="round"/>
<path d="M11.667 3.5H2.33366C1.68933 3.5 1.16699 4.02233 1.16699 4.66667V10.5C1.16699 11.1443 1.68933 11.6667 2.33366 11.6667H11.667C12.3113 11.6667 12.8337 11.1443 12.8337 10.5V4.66667C12.8337 4.02233 12.3113 3.5 11.667 3.5Z" stroke="#51A2FF" stroke-width="1.16667" stroke-linecap="round" stroke-linejoin="round"/>
</svg>
