<svg width="9" height="9" viewBox="0 0 9 9" fill="none" xmlns="http://www.w3.org/2000/svg">
<g clip-path="url(#clip0_4094_1055)">
<path d="M3 0.75V2.25" stroke="white" stroke-opacity="0.3" stroke-width="0.75" stroke-linecap="round" stroke-linejoin="round"/>
<path d="M6 0.75V2.25" stroke="white" stroke-opacity="0.3" stroke-width="0.75" stroke-linecap="round" stroke-linejoin="round"/>
<path d="M7.125 1.5H1.875C1.46079 1.5 1.125 1.83579 1.125 2.25V7.5C1.125 7.91421 1.46079 8.25 1.875 8.25H7.125C7.53921 8.25 7.875 7.91421 7.875 7.5V2.25C7.875 1.83579 7.53921 1.5 7.125 1.5Z" stroke="white" stroke-opacity="0.3" stroke-width="0.75" stroke-linecap="round" stroke-linejoin="round"/>
<path d="M1.125 3.75H7.875" stroke="white" stroke-opacity="0.3" stroke-width="0.75" stroke-linecap="round" stroke-linejoin="round"/>
<path d="M3 5.25H3.00375" stroke="white" stroke-opacity="0.3" stroke-width="0.75" stroke-linecap="round" stroke-linejoin="round"/>
<path d="M4.5 5.25H4.50375" stroke="white" stroke-opacity="0.3" stroke-width="0.75" stroke-linecap="round" stroke-linejoin="round"/>
<path d="M6 5.25H6.00375" stroke="white" stroke-opacity="0.3" stroke-width="0.75" stroke-linecap="round" stroke-linejoin="round"/>
<path d="M3 6.75H3.00375" stroke="white" stroke-opacity="0.3" stroke-width="0.75" stroke-linecap="round" stroke-linejoin="round"/>
<path d="M4.5 6.75H4.50375" stroke="white" stroke-opacity="0.3" stroke-width="0.75" stroke-linecap="round" stroke-linejoin="round"/>
<path d="M6 6.75H6.00375" stroke="white" stroke-opacity="0.3" stroke-width="0.75" stroke-linecap="round" stroke-linejoin="round"/>
</g>
<defs>
<clipPath id="clip0_4094_1055">
<rect width="9" height="9" fill="white"/>
</clipPath>
</defs>
</svg>
