<svg width="13" height="13" viewBox="0 0 13 13" fill="none" xmlns="http://www.w3.org/2000/svg">
<path d="M11.771 9.74996L7.43772 2.16663C7.34323 1.9999 7.20621 1.86123 7.04063 1.76475C6.87506 1.66827 6.68685 1.61743 6.49522 1.61743C6.30358 1.61743 6.11538 1.66827 5.9498 1.76475C5.78422 1.86123 5.6472 1.9999 5.55272 2.16663L1.21938 9.74996C1.12388 9.91536 1.0738 10.1031 1.07422 10.2941C1.07464 10.4851 1.12555 10.6726 1.22179 10.8375C1.31803 11.0025 1.45617 11.1391 1.62222 11.2335C1.78826 11.3279 1.97631 11.3767 2.1673 11.375H10.834C11.024 11.3748 11.2107 11.3246 11.3752 11.2294C11.5398 11.1342 11.6764 10.9975 11.7713 10.8328C11.8663 10.6682 11.9162 10.4814 11.9162 10.2913C11.9161 10.1013 11.8661 9.91457 11.771 9.74996Z" stroke="#FFB900" stroke-width="1.08333" stroke-linecap="round" stroke-linejoin="round"/>
<path d="M6.5 4.875V7.04167" stroke="#FFB900" stroke-width="1.08333" stroke-linecap="round" stroke-linejoin="round"/>
<path d="M6.5 9.20837H6.50542" stroke="#FFB900" stroke-width="1.08333" stroke-linecap="round" stroke-linejoin="round"/>
</svg>
