<svg width="11" height="11" viewBox="0 0 11 11" fill="none" xmlns="http://www.w3.org/2000/svg">
<g clip-path="url(#clip0_4094_1178)">
<path d="M7.33268 9.625V8.70833C7.33268 8.2221 7.13953 7.75579 6.79571 7.41197C6.45189 7.06815 5.98558 6.875 5.49935 6.875H2.74935C2.26312 6.875 1.7968 7.06815 1.45299 7.41197C1.10917 7.75579 0.916016 8.2221 0.916016 8.70833V9.625" stroke="#00D492" stroke-width="0.916667" stroke-linecap="round" stroke-linejoin="round"/>
<path d="M4.12435 5.04167C5.13687 5.04167 5.95768 4.22086 5.95768 3.20833C5.95768 2.19581 5.13687 1.375 4.12435 1.375C3.11183 1.375 2.29102 2.19581 2.29102 3.20833C2.29102 4.22086 3.11183 5.04167 4.12435 5.04167Z" stroke="#00D492" stroke-width="0.916667" stroke-linecap="round" stroke-linejoin="round"/>
<path d="M7.33398 5.04167L8.25065 5.95833L10.084 4.125" stroke="#00D492" stroke-width="0.916667" stroke-linecap="round" stroke-linejoin="round"/>
</g>
<defs>
<clipPath id="clip0_4094_1178">
<rect width="11" height="11" fill="white"/>
</clipPath>
</defs>
</svg>
