<svg width="11" height="11" viewBox="0 0 11 11" fill="none" xmlns="http://www.w3.org/2000/svg">
<g clip-path="url(#clip0_4094_1213)">
<path d="M1.83268 9.16667H9.16602C9.40913 9.16667 9.64229 9.07009 9.8142 8.89818C9.98611 8.72627 10.0827 8.49312 10.0827 8.25V3.66667C10.0827 3.42355 9.98611 3.19039 9.8142 3.01849C9.64229 2.84658 9.40913 2.75 9.16602 2.75H5.53143C5.38045 2.74922 5.232 2.71116 5.09927 2.63919C4.96654 2.56723 4.85364 2.4636 4.7706 2.3375L4.39477 1.7875C4.31173 1.6614 4.19883 1.55777 4.0661 1.48581C3.93337 1.41384 3.78491 1.37578 3.63393 1.375H1.83268C1.58957 1.375 1.35641 1.47158 1.1845 1.64349C1.01259 1.81539 0.916016 2.04855 0.916016 2.29167V8.25C0.916016 8.75417 1.32852 9.16667 1.83268 9.16667Z" stroke="#A684FF" stroke-width="0.916667" stroke-linecap="round" stroke-linejoin="round"/>
<path d="M3.66602 4.58325V6.41659" stroke="#A684FF" stroke-width="0.916667" stroke-linecap="round" stroke-linejoin="round"/>
<path d="M5.5 4.58325V5.49992" stroke="#A684FF" stroke-width="0.916667" stroke-linecap="round" stroke-linejoin="round"/>
<path d="M7.33398 4.58325V7.33325" stroke="#A684FF" stroke-width="0.916667" stroke-linecap="round" stroke-linejoin="round"/>
</g>
<defs>
<clipPath id="clip0_4094_1213">
<rect width="11" height="11" fill="white"/>
</clipPath>
</defs>
</svg>
