<svg width="11" height="11" viewBox="0 0 11 11" fill="none" xmlns="http://www.w3.org/2000/svg">
<g clip-path="url(#clip0_4094_869)">
<path d="M10.0841 7.755V9.13C10.0847 9.25765 10.0585 9.384 10.0074 9.50095C9.95623 9.61791 9.88123 9.7229 9.78717 9.80919C9.69311 9.89549 9.58207 9.96118 9.46115 10.0021C9.34023 10.043 9.2121 10.0582 9.08497 10.0467C7.6746 9.89342 6.31984 9.41149 5.12955 8.63959C4.02214 7.93589 3.08325 6.997 2.37955 5.88959C1.60496 4.69389 1.12291 3.33254 0.97247 1.91584C0.961017 1.78909 0.976079 1.66135 1.0167 1.54075C1.05732 1.42014 1.12261 1.30932 1.2084 1.21533C1.2942 1.12134 1.39863 1.04625 1.51504 0.994826C1.63145 0.943407 1.75729 0.91679 1.88455 0.91667H3.25955C3.48199 0.914481 3.69762 0.993248 3.86628 1.13829C4.03493 1.28333 4.14509 1.48475 4.17622 1.705C4.23426 2.14503 4.34188 2.57709 4.49705 2.99292C4.55872 3.15697 4.57207 3.33526 4.53551 3.50666C4.49896 3.67806 4.41403 3.83539 4.2908 3.96L3.70872 4.54209C4.36118 5.68955 5.31126 6.63962 6.45872 7.29209L7.0408 6.71C7.16542 6.58678 7.32275 6.50185 7.49415 6.4653C7.66555 6.42874 7.84384 6.44209 8.00789 6.50375C8.42372 6.65892 8.85577 6.76655 9.2958 6.82459C9.51845 6.856 9.72178 6.96814 9.86713 7.13969C10.0125 7.31124 10.0897 7.53023 10.0841 7.755Z" stroke="white" stroke-opacity="0.25" stroke-width="0.916667" stroke-linecap="round" stroke-linejoin="round"/>
</g>
<defs>
<clipPath id="clip0_4094_869">
<rect width="11" height="11" fill="white"/>
</clipPath>
</defs>
</svg>
