<svg width="11" height="11" viewBox="0 0 11 11" fill="none" xmlns="http://www.w3.org/2000/svg">
<g clip-path="url(#clip0_4094_874)">
<path d="M2.75 10.0833V1.83329C2.75 1.59018 2.84658 1.35702 3.01849 1.18511C3.19039 1.0132 3.42355 0.916626 3.66667 0.916626H7.33333C7.57645 0.916626 7.80961 1.0132 7.98151 1.18511C8.15342 1.35702 8.25 1.59018 8.25 1.83329V10.0833H2.75Z" stroke="white" stroke-opacity="0.25" stroke-width="0.916667" stroke-linecap="round" stroke-linejoin="round"/>
<path d="M2.74935 5.5H1.83268C1.58957 5.5 1.35641 5.59658 1.1845 5.76849C1.01259 5.94039 0.916016 6.17355 0.916016 6.41667V9.16667C0.916016 9.40978 1.01259 9.64294 1.1845 9.81485C1.35641 9.98676 1.58957 10.0833 1.83268 10.0833H2.74935" stroke="white" stroke-opacity="0.25" stroke-width="0.916667" stroke-linecap="round" stroke-linejoin="round"/>
<path d="M8.25 4.125H9.16667C9.40978 4.125 9.64294 4.22158 9.81485 4.39349C9.98676 4.56539 10.0833 4.79855 10.0833 5.04167V9.16667C10.0833 9.40978 9.98676 9.64294 9.81485 9.81485C9.64294 9.98676 9.40978 10.0833 9.16667 10.0833H8.25" stroke="white" stroke-opacity="0.25" stroke-width="0.916667" stroke-linecap="round" stroke-linejoin="round"/>
<path d="M4.58398 2.75H6.41732" stroke="white" stroke-opacity="0.25" stroke-width="0.916667" stroke-linecap="round" stroke-linejoin="round"/>
<path d="M4.58398 4.58337H6.41732" stroke="white" stroke-opacity="0.25" stroke-width="0.916667" stroke-linecap="round" stroke-linejoin="round"/>
<path d="M4.58398 6.41663H6.41732" stroke="white" stroke-opacity="0.25" stroke-width="0.916667" stroke-linecap="round" stroke-linejoin="round"/>
<path d="M4.58398 8.25H6.41732" stroke="white" stroke-opacity="0.25" stroke-width="0.916667" stroke-linecap="round" stroke-linejoin="round"/>
</g>
<defs>
<clipPath id="clip0_4094_874">
<rect width="11" height="11" fill="white"/>
</clipPath>
</defs>
</svg>
