<svg width="13" height="13" viewBox="0 0 13 13" fill="none" xmlns="http://www.w3.org/2000/svg">
<g clip-path="url(#clip0_4094_908)">
<path d="M6.49967 11.9167C9.49122 11.9167 11.9163 9.49158 11.9163 6.50004C11.9163 3.5085 9.49122 1.08337 6.49967 1.08337C3.50813 1.08337 1.08301 3.5085 1.08301 6.50004C1.08301 9.49158 3.50813 11.9167 6.49967 11.9167Z" stroke="white" stroke-width="1.08333" stroke-linecap="round" stroke-linejoin="round"/>
<path d="M6.5 9.75C8.29493 9.75 9.75 8.29493 9.75 6.5C9.75 4.70507 8.29493 3.25 6.5 3.25C4.70507 3.25 3.25 4.70507 3.25 6.5C3.25 8.29493 4.70507 9.75 6.5 9.75Z" stroke="white" stroke-width="1.08333" stroke-linecap="round" stroke-linejoin="round"/>
<path d="M6.50033 7.58329C7.09863 7.58329 7.58366 7.09827 7.58366 6.49996C7.58366 5.90165 7.09863 5.41663 6.50033 5.41663C5.90202 5.41663 5.41699 5.90165 5.41699 6.49996C5.41699 7.09827 5.90202 7.58329 6.50033 7.58329Z" stroke="white" stroke-width="1.08333" stroke-linecap="round" stroke-linejoin="round"/>
</g>
<defs>
<clipPath id="clip0_4094_908">
<rect width="13" height="13" fill="white"/>
</clipPath>
</defs>
</svg>
