<svg width="13" height="13" viewBox="0 0 13 13" fill="none" xmlns="http://www.w3.org/2000/svg">
<path d="M8.66634 10.8334V2.16671C8.66634 1.87939 8.5522 1.60384 8.34904 1.40067C8.14588 1.19751 7.87033 1.08337 7.58301 1.08337H5.41634C5.12902 1.08337 4.85347 1.19751 4.65031 1.40067C4.44714 1.60384 4.33301 1.87939 4.33301 2.16671V10.8334" stroke="white" stroke-opacity="0.4" stroke-width="1.08333" stroke-linecap="round" stroke-linejoin="round"/>
<path d="M10.833 3.25H2.16634C1.56803 3.25 1.08301 3.73502 1.08301 4.33333V9.75C1.08301 10.3483 1.56803 10.8333 2.16634 10.8333H10.833C11.4313 10.8333 11.9163 10.3483 11.9163 9.75V4.33333C11.9163 3.73502 11.4313 3.25 10.833 3.25Z" stroke="white" stroke-opacity="0.4" stroke-width="1.08333" stroke-linecap="round" stroke-linejoin="round"/>
</svg>
