<svg width="19" height="19" viewBox="0 0 19 19" fill="none" xmlns="http://www.w3.org/2000/svg">
<path d="M12.2399 15.3V3.06003C12.2399 2.65425 12.0787 2.26509 11.7917 1.97816C11.5048 1.69123 11.1157 1.53003 10.7099 1.53003H7.64987C7.24409 1.53003 6.85493 1.69123 6.568 1.97816C6.28107 2.26509 6.11987 2.65425 6.11987 3.06003V15.3" stroke="#51A2FF" stroke-width="1.53" stroke-linecap="round" stroke-linejoin="round"/>
<path d="M15.3 4.58997H3.06003C2.21503 4.58997 1.53003 5.27497 1.53003 6.11996V13.77C1.53003 14.615 2.21503 15.3 3.06003 15.3H15.3C16.145 15.3 16.83 14.615 16.83 13.77V6.11996C16.83 5.27497 16.145 4.58997 15.3 4.58997Z" stroke="#51A2FF" stroke-width="1.53" stroke-linecap="round" stroke-linejoin="round"/>
</svg>
