<svg width="20" height="20" viewBox="0 0 20 20" fill="none" xmlns="http://www.w3.org/2000/svg">
<path d="M13.3333 1.66663V3.33329" stroke="#DBEAFE" stroke-opacity="0.6" stroke-width="1.66667" stroke-linecap="round" stroke-linejoin="round"/>
<path d="M14.9292 18.3334C14.9292 17.0073 14.4024 15.7355 13.4647 14.7978C12.5271 13.8602 11.2553 13.3334 9.9292 13.3334C8.60312 13.3334 7.33135 13.8602 6.39367 14.7978C5.45598 15.7355 4.9292 17.0073 4.9292 18.3334" stroke="#DBEAFE" stroke-opacity="0.6" stroke-width="1.66667" stroke-linecap="round" stroke-linejoin="round"/>
<path d="M6.66675 1.66663V3.33329" stroke="#DBEAFE" stroke-opacity="0.6" stroke-width="1.66667" stroke-linecap="round" stroke-linejoin="round"/>
<path d="M10.0001 13.3333C11.841 13.3333 13.3334 11.8409 13.3334 9.99996C13.3334 8.15901 11.841 6.66663 10.0001 6.66663C8.15913 6.66663 6.66675 8.15901 6.66675 9.99996C6.66675 11.8409 8.15913 13.3333 10.0001 13.3333Z" stroke="#DBEAFE" stroke-opacity="0.6" stroke-width="1.66667" stroke-linecap="round" stroke-linejoin="round"/>
<path d="M15.8333 3.33337H4.16667C3.24619 3.33337 2.5 4.07957 2.5 5.00004V16.6667C2.5 17.5872 3.24619 18.3334 4.16667 18.3334H15.8333C16.7538 18.3334 17.5 17.5872 17.5 16.6667V5.00004C17.5 4.07957 16.7538 3.33337 15.8333 3.33337Z" stroke="#DBEAFE" stroke-opacity="0.6" stroke-width="1.66667" stroke-linecap="round" stroke-linejoin="round"/>
</svg>
