<svg width="11" height="11" viewBox="0 0 11 11" fill="none" xmlns="http://www.w3.org/2000/svg">
<g clip-path="url(#clip0_3848_662)">
<path d="M4.55457 7.10412C4.51365 6.9455 4.43098 6.80075 4.31515 6.68492C4.19932 6.56909 4.05456 6.48641 3.89595 6.44549L1.08407 5.72041C1.0361 5.70679 0.993877 5.6779 0.963812 5.63811C0.933747 5.59833 0.91748 5.54982 0.91748 5.49995C0.91748 5.45008 0.933747 5.40158 0.963812 5.36179C0.993877 5.322 1.0361 5.29311 1.08407 5.27949L3.89595 4.55395C4.05451 4.51307 4.19922 4.43046 4.31505 4.31472C4.43087 4.19897 4.51358 4.05432 4.55457 3.89578L5.27966 1.08391C5.29314 1.03575 5.322 0.993316 5.36185 0.963091C5.40169 0.932865 5.45033 0.916504 5.50034 0.916504C5.55036 0.916504 5.599 0.932865 5.63884 0.963091C5.67869 0.993316 5.70755 1.03575 5.72103 1.08391L6.44566 3.89578C6.48658 4.0544 6.56925 4.19915 6.68508 4.31498C6.80091 4.43082 6.94567 4.51349 7.10428 4.55441L9.91616 5.27903C9.96451 5.29237 10.0072 5.32121 10.0375 5.36111C10.0679 5.40102 10.0844 5.44979 10.0844 5.49995C10.0844 5.55011 10.0679 5.59889 10.0375 5.63879C10.0072 5.6787 9.96451 5.70753 9.91616 5.72087L7.10428 6.44549C6.94567 6.48641 6.80091 6.56909 6.68508 6.68492C6.56925 6.80075 6.48658 6.9455 6.44566 7.10412L5.72057 9.91599C5.70709 9.96416 5.67823 10.0066 5.63838 10.0368C5.59854 10.067 5.5499 10.0834 5.49989 10.0834C5.44987 10.0834 5.40123 10.067 5.36139 10.0368C5.32154 10.0066 5.29268 9.96416 5.2792 9.91599L4.55457 7.10412Z" stroke="#FFB900" stroke-width="0.916667" stroke-linecap="round" stroke-linejoin="round"/>
<path d="M9.1665 1.375V3.20833" stroke="#FFB900" stroke-width="0.916667" stroke-linecap="round" stroke-linejoin="round"/>
<path d="M10.0833 2.29163H8.25" stroke="#FFB900" stroke-width="0.916667" stroke-linecap="round" stroke-linejoin="round"/>
<path d="M1.8335 7.79163V8.70829" stroke="#FFB900" stroke-width="0.916667" stroke-linecap="round" stroke-linejoin="round"/>
<path d="M2.29167 8.25H1.375" stroke="#FFB900" stroke-width="0.916667" stroke-linecap="round" stroke-linejoin="round"/>
</g>
<defs>
<clipPath id="clip0_3848_662">
<rect width="11" height="11" fill="white"/>
</clipPath>
</defs>
</svg>
