<svg width="9" height="9" viewBox="0 0 9 9" fill="none" xmlns="http://www.w3.org/2000/svg">
<g opacity="0.736806" clip-path="url(#clip0_3848_719)">
<path d="M8.25 4.5H7.32C7.15611 4.49965 6.99662 4.55299 6.86592 4.65186C6.73522 4.75074 6.6405 4.8897 6.59625 5.0475L5.715 8.1825C5.70932 8.20197 5.69748 8.21908 5.68125 8.23125C5.66502 8.24342 5.64528 8.25 5.625 8.25C5.60472 8.25 5.58498 8.24342 5.56875 8.23125C5.55252 8.21908 5.54068 8.20197 5.535 8.1825L3.465 0.8175C3.45932 0.798027 3.44748 0.780921 3.43125 0.76875C3.41502 0.756579 3.39528 0.75 3.375 0.75C3.35472 0.75 3.33498 0.756579 3.31875 0.76875C3.30252 0.780921 3.29068 0.798027 3.285 0.8175L2.40375 3.9525C2.35967 4.10968 2.26552 4.24819 2.13557 4.34701C2.00563 4.44582 1.84699 4.49953 1.68375 4.5H0.75" stroke="#FFB900" stroke-width="0.75" stroke-linecap="round" stroke-linejoin="round"/>
</g>
<defs>
<clipPath id="clip0_3848_719">
<rect width="9" height="9" fill="white"/>
</clipPath>
</defs>
</svg>
