<svg width="12" height="12" viewBox="0 0 12 12" fill="none" xmlns="http://www.w3.org/2000/svg">
<path d="M10.8652 8.99999L6.86521 1.99999C6.77799 1.84609 6.65151 1.71808 6.49867 1.62902C6.34583 1.53997 6.1721 1.49304 5.99521 1.49304C5.81831 1.49304 5.64459 1.53997 5.49175 1.62902C5.33891 1.71808 5.21243 1.84609 5.12521 1.99999L1.12521 8.99999C1.03705 9.15267 0.990823 9.32594 0.991213 9.50224C0.991604 9.67855 1.0386 9.85162 1.12743 10.0039C1.21627 10.1562 1.34378 10.2823 1.49706 10.3694C1.65033 10.4565 1.82391 10.5016 2.00021 10.5H10.0002C10.1757 10.4998 10.348 10.4535 10.4998 10.3656C10.6517 10.2778 10.7778 10.1515 10.8655 9.99955C10.9531 9.84756 10.9992 9.67518 10.9992 9.49973C10.9991 9.32428 10.9529 9.15193 10.8652 8.99999Z" stroke="#FF6467" stroke-linecap="round" stroke-linejoin="round"/>
<path d="M6 4.5V6.5" stroke="#FF6467" stroke-linecap="round" stroke-linejoin="round"/>
<path d="M6 8.5H6.005" stroke="#FF6467" stroke-linecap="round" stroke-linejoin="round"/>
</svg>
