<svg width="63" height="45" viewBox="0 0 63 45" fill="none" xmlns="http://www.w3.org/2000/svg">
<path d="M51 15V6C51 5.20435 50.6839 4.44129 50.1213 3.87868C49.5587 3.31607 48.7956 3 48 3H9C7.4087 3 5.88258 3.63214 4.75736 4.75736C3.63214 5.88258 3 7.4087 3 9C3 10.5913 3.63214 12.1174 4.75736 13.2426C5.88258 14.3679 7.4087 15 9 15H54C54.7956 15 55.5587 15.3161 56.1213 15.8787C56.6839 16.4413 57 17.2044 57 18V30M57 30H48C46.4087 30 44.8826 30.6321 43.7574 31.7574C42.6321 32.8826 42 34.4087 42 36C42 37.5913 42.6321 39.1174 43.7574 40.2426C44.8826 41.3679 46.4087 42 48 42H57C57.7956 42 58.5587 41.6839 59.1213 41.1213C59.6839 40.5587 60 39.7956 60 39V33C60 32.2044 59.6839 31.4413 59.1213 30.8787C58.5587 30.3161 57.7956 30 57 30Z" stroke="white" stroke-width="6" stroke-linecap="round" stroke-linejoin="round"/>
</svg>
