<svg width="16" height="16" viewBox="0 0 16 16" fill="none" xmlns="http://www.w3.org/2000/svg">
<path d="M8.00065 8.66665C8.36884 8.66665 8.66732 8.36817 8.66732 7.99998C8.66732 7.63179 8.36884 7.33331 8.00065 7.33331C7.63246 7.33331 7.33398 7.63179 7.33398 7.99998C7.33398 8.36817 7.63246 8.66665 8.00065 8.66665Z" stroke="white" stroke-opacity="0.2" stroke-width="1.33333" stroke-linecap="round" stroke-linejoin="round"/>
<path d="M12.6667 8.66665C13.0349 8.66665 13.3333 8.36817 13.3333 7.99998C13.3333 7.63179 13.0349 7.33331 12.6667 7.33331C12.2985 7.33331 12 7.63179 12 7.99998C12 8.36817 12.2985 8.66665 12.6667 8.66665Z" stroke="white" stroke-opacity="0.2" stroke-width="1.33333" stroke-linecap="round" stroke-linejoin="round"/>
<path d="M3.33268 8.66665C3.70087 8.66665 3.99935 8.36817 3.99935 7.99998C3.99935 7.63179 3.70087 7.33331 3.33268 7.33331C2.96449 7.33331 2.66602 7.63179 2.66602 7.99998C2.66602 8.36817 2.96449 8.66665 3.33268 8.66665Z" stroke="white" stroke-opacity="0.2" stroke-width="1.33333" stroke-linecap="round" stroke-linejoin="round"/>
</svg>
