<svg width="13" height="13" viewBox="0 0 13 13" fill="none" xmlns="http://www.w3.org/2000/svg">
<path d="M2.16602 1.08334V11.9167L3.24935 11.375L4.33268 11.9167L5.41602 11.375L6.49935 11.9167L7.58268 11.375L8.66602 11.9167L9.74935 11.375L10.8327 11.9167V1.08334L9.74935 1.625L8.66602 1.08334L7.58268 1.625L6.49935 1.08334L5.41602 1.625L4.33268 1.08334L3.24935 1.625L2.16602 1.08334Z" stroke="white" stroke-opacity="0.4" stroke-width="1.08333" stroke-linecap="round" stroke-linejoin="round"/>
<path d="M8.66732 4.33334H5.41732C5.13 4.33334 4.85445 4.44747 4.65129 4.65064C4.44812 4.8538 4.33398 5.12935 4.33398 5.41667C4.33398 5.70399 4.44812 5.97954 4.65129 6.1827C4.85445 6.38587 5.13 6.5 5.41732 6.5H7.58398C7.8713 6.5 8.14685 6.61414 8.35002 6.8173C8.55318 7.02047 8.66732 7.29602 8.66732 7.58334C8.66732 7.87065 8.55318 8.1462 8.35002 8.34937C8.14685 8.55253 7.8713 8.66667 7.58398 8.66667H4.33398" stroke="white" stroke-opacity="0.4" stroke-width="1.08333" stroke-linecap="round" stroke-linejoin="round"/>
<path d="M6.5 9.47917V3.52084" stroke="white" stroke-opacity="0.4" stroke-width="1.08333" stroke-linecap="round" stroke-linejoin="round"/>
</svg>
