<svg width="14" height="14" viewBox="0 0 14 14" fill="none" xmlns="http://www.w3.org/2000/svg">
<g clip-path="url(#clip0_358_104)">
<path d="M7.48443 1.27168C7.33244 1.20235 7.16732 1.16647 7.00026 1.16647C6.8332 1.16647 6.66809 1.20235 6.5161 1.27168L1.51693 3.54668C1.41342 3.59232 1.32541 3.66708 1.26363 3.76185C1.20184 3.85661 1.16895 3.9673 1.16895 4.08043C1.16895 4.19356 1.20184 4.30425 1.26363 4.39902C1.32541 4.49378 1.41342 4.56854 1.51693 4.61418L6.52193 6.89501C6.67393 6.96434 6.83904 7.00022 7.0061 7.00022C7.17316 7.00022 7.33827 6.96434 7.49026 6.89501L12.4953 4.62001C12.5988 4.57437 12.6868 4.49962 12.7486 4.40485C12.8104 4.31008 12.8432 4.19939 12.8432 4.08627C12.8432 3.97314 12.8104 3.86245 12.7486 3.76768C12.6868 3.67291 12.5988 3.59816 12.4953 3.55252L7.48443 1.27168Z" stroke="white" stroke-opacity="0.5" stroke-width="1.16667" stroke-linecap="round" stroke-linejoin="round"/>
<path d="M1.16699 7C1.16672 7.11157 1.19844 7.22088 1.25841 7.31497C1.31838 7.40906 1.40407 7.48397 1.50533 7.53083L6.52199 9.81167C6.67319 9.88013 6.83726 9.91555 7.00324 9.91555C7.16922 9.91555 7.33329 9.88013 7.48449 9.81167L12.4895 7.53667C12.5927 7.49026 12.6803 7.4148 12.7414 7.31951C12.8025 7.22422 12.8346 7.1132 12.8337 7" stroke="white" stroke-opacity="0.5" stroke-width="1.16667" stroke-linecap="round" stroke-linejoin="round"/>
<path d="M1.16699 9.91666C1.16672 10.0282 1.19844 10.1375 1.25841 10.2316C1.31838 10.3257 1.40407 10.4006 1.50533 10.4475L6.52199 12.7283C6.67319 12.7968 6.83726 12.8322 7.00324 12.8322C7.16922 12.8322 7.33329 12.7968 7.48449 12.7283L12.4895 10.4533C12.5927 10.4069 12.6803 10.3315 12.7414 10.2362C12.8025 10.1409 12.8346 10.0299 12.8337 9.91666" stroke="white" stroke-opacity="0.5" stroke-width="1.16667" stroke-linecap="round" stroke-linejoin="round"/>
</g>
<defs>
<clipPath id="clip0_358_104">
<rect width="14" height="14" fill="white"/>
</clipPath>
</defs>
</svg>
