<svg width="14" height="14" viewBox="0 0 14 14" fill="none" xmlns="http://www.w3.org/2000/svg">
<path d="M7.00033 7.58332C7.32249 7.58332 7.58366 7.32216 7.58366 6.99999C7.58366 6.67782 7.32249 6.41666 7.00033 6.41666C6.67816 6.41666 6.41699 6.67782 6.41699 6.99999C6.41699 7.32216 6.67816 7.58332 7.00033 7.58332Z" stroke="white" stroke-opacity="0.5" stroke-width="1.16667" stroke-linecap="round" stroke-linejoin="round"/>
<path d="M7.00033 3.50001C7.32249 3.50001 7.58366 3.23884 7.58366 2.91668C7.58366 2.59451 7.32249 2.33334 7.00033 2.33334C6.67816 2.33334 6.41699 2.59451 6.41699 2.91668C6.41699 3.23884 6.67816 3.50001 7.00033 3.50001Z" stroke="white" stroke-opacity="0.5" stroke-width="1.16667" stroke-linecap="round" stroke-linejoin="round"/>
<path d="M7.00033 11.6667C7.32249 11.6667 7.58366 11.4055 7.58366 11.0833C7.58366 10.7612 7.32249 10.5 7.00033 10.5C6.67816 10.5 6.41699 10.7612 6.41699 11.0833C6.41699 11.4055 6.67816 11.6667 7.00033 11.6667Z" stroke="white" stroke-opacity="0.5" stroke-width="1.16667" stroke-linecap="round" stroke-linejoin="round"/>
</svg>
