<svg width="13" height="13" viewBox="0 0 13 13" fill="none" xmlns="http://www.w3.org/2000/svg">
<path d="M10.8332 7.04167C10.8332 9.75 8.93734 11.1042 6.684 11.8896C6.56601 11.9296 6.43784 11.9277 6.32109 11.8842C4.06234 11.1042 2.1665 9.75 2.1665 7.04167V3.25C2.1665 3.10634 2.22357 2.96857 2.32515 2.86699C2.42674 2.7654 2.56451 2.70834 2.70817 2.70834C3.7915 2.70834 5.14567 2.05834 6.08817 1.235C6.20293 1.13696 6.3489 1.08309 6.49984 1.08309C6.65077 1.08309 6.79675 1.13696 6.9115 1.235C7.85942 2.06375 9.20817 2.70834 10.2915 2.70834C10.4352 2.70834 10.5729 2.7654 10.6745 2.86699C10.7761 2.96857 10.8332 3.10634 10.8332 3.25V7.04167Z" stroke="white" stroke-opacity="0.4" stroke-width="1.08333" stroke-linecap="round" stroke-linejoin="round"/>
</svg>
