<svg width="14" height="14" viewBox="0 0 14 14" fill="none" xmlns="http://www.w3.org/2000/svg">
<path d="M7.00033 7.58335C7.32249 7.58335 7.58366 7.32219 7.58366 7.00002C7.58366 6.67785 7.32249 6.41669 7.00033 6.41669C6.67816 6.41669 6.41699 6.67785 6.41699 7.00002C6.41699 7.32219 6.67816 7.58335 7.00033 7.58335Z" stroke="white" stroke-opacity="0.2" stroke-width="1.16667" stroke-linecap="round" stroke-linejoin="round"/>
<path d="M11.0833 7.58335C11.4055 7.58335 11.6667 7.32219 11.6667 7.00002C11.6667 6.67785 11.4055 6.41669 11.0833 6.41669C10.7612 6.41669 10.5 6.67785 10.5 7.00002C10.5 7.32219 10.7612 7.58335 11.0833 7.58335Z" stroke="white" stroke-opacity="0.2" stroke-width="1.16667" stroke-linecap="round" stroke-linejoin="round"/>
<path d="M2.91634 7.58335C3.23851 7.58335 3.49967 7.32219 3.49967 7.00002C3.49967 6.67785 3.23851 6.41669 2.91634 6.41669C2.59418 6.41669 2.33301 6.67785 2.33301 7.00002C2.33301 7.32219 2.59418 7.58335 2.91634 7.58335Z" stroke="white" stroke-opacity="0.2" stroke-width="1.16667" stroke-linecap="round" stroke-linejoin="round"/>
</svg>
