<svg width="20" height="20" viewBox="0 0 20 20" fill="none" xmlns="http://www.w3.org/2000/svg">
<path d="M10 17.5V5.83331" stroke="#DBEAFE" stroke-opacity="0.6" stroke-width="1.66667" stroke-linecap="round" stroke-linejoin="round"/>
<path d="M13.3335 9.99998L15.0002 11.6666L18.3335 8.33331" stroke="#DBEAFE" stroke-opacity="0.6" stroke-width="1.66667" stroke-linecap="round" stroke-linejoin="round"/>
<path d="M18.3332 5V3.33333C18.3332 3.11232 18.2454 2.90036 18.0891 2.74408C17.9328 2.5878 17.7209 2.5 17.4998 2.5H13.3332C12.4491 2.5 11.6013 2.85119 10.9761 3.47631C10.351 4.10143 9.99984 4.94928 9.99984 5.83333C9.99984 4.94928 9.64865 4.10143 9.02353 3.47631C8.39841 2.85119 7.55056 2.5 6.6665 2.5H2.49984C2.27882 2.5 2.06686 2.5878 1.91058 2.74408C1.7543 2.90036 1.6665 3.11232 1.6665 3.33333V14.1667C1.6665 14.3877 1.7543 14.5996 1.91058 14.7559C2.06686 14.9122 2.27882 15 2.49984 15H7.49984C8.16288 15 8.79876 15.2634 9.2676 15.7322C9.73645 16.2011 9.99984 16.837 9.99984 17.5C9.99984 16.837 10.2632 16.2011 10.7321 15.7322C11.2009 15.2634 11.8368 15 12.4998 15H17.4998C17.7209 15 17.9328 14.9122 18.0891 14.7559C18.2454 14.5996 18.3332 14.3877 18.3332 14.1667V13.0833" stroke="#DBEAFE" stroke-opacity="0.6" stroke-width="1.66667" stroke-linecap="round" stroke-linejoin="round"/>
</svg>
