<svg width="13" height="13" viewBox="0 0 13 13" fill="none" xmlns="http://www.w3.org/2000/svg">
<g clip-path="url(#clip0_374_41)">
<path d="M11.7703 9.74996L7.43698 2.16663C7.3425 1.9999 7.20548 1.86123 7.0399 1.76475C6.87433 1.66827 6.68612 1.61743 6.49448 1.61743C6.30285 1.61743 6.11464 1.66827 5.94907 1.76475C5.78349 1.86123 5.64647 1.9999 5.55198 2.16663L1.21865 9.74996C1.12315 9.91536 1.07307 10.1031 1.07349 10.2941C1.07391 10.4851 1.12482 10.6726 1.22106 10.8375C1.3173 11.0025 1.45544 11.1391 1.62149 11.2335C1.78753 11.3279 1.97558 11.3767 2.16657 11.375H10.8332C11.0233 11.3748 11.21 11.3246 11.3745 11.2294C11.539 11.1342 11.6756 10.9975 11.7706 10.8328C11.8655 10.6682 11.9155 10.4814 11.9155 10.2913C11.9154 10.1013 11.8654 9.91457 11.7703 9.74996Z" stroke="white" stroke-opacity="0.4" stroke-width="1.08333" stroke-linecap="round" stroke-linejoin="round"/>
<path d="M6.5 4.875V7.04167" stroke="white" stroke-opacity="0.4" stroke-width="1.08333" stroke-linecap="round" stroke-linejoin="round"/>
<path d="M6.5 9.20837H6.50542" stroke="white" stroke-opacity="0.4" stroke-width="1.08333" stroke-linecap="round" stroke-linejoin="round"/>
</g>
<defs>
<clipPath id="clip0_374_41">
<rect width="13" height="13" fill="white"/>
</clipPath>
</defs>
</svg>
