<svg width="13" height="13" viewBox="0 0 13 13" fill="none" xmlns="http://www.w3.org/2000/svg">
<g clip-path="url(#clip0_374_49)">
<path d="M6.5 1.08337V11.9167" stroke="white" stroke-opacity="0.4" stroke-width="1.08333" stroke-linecap="round" stroke-linejoin="round"/>
<path d="M9.20833 2.70837H5.14583C4.64303 2.70837 4.16081 2.90811 3.80528 3.26365C3.44974 3.61919 3.25 4.1014 3.25 4.60421C3.25 5.10701 3.44974 5.58923 3.80528 5.94476C4.16081 6.3003 4.64303 6.50004 5.14583 6.50004H7.85417C8.35697 6.50004 8.83919 6.69978 9.19472 7.05532C9.55026 7.41086 9.75 7.89307 9.75 8.39587C9.75 8.89868 9.55026 9.38089 9.19472 9.73643C8.83919 10.092 8.35697 10.2917 7.85417 10.2917H3.25" stroke="white" stroke-opacity="0.4" stroke-width="1.08333" stroke-linecap="round" stroke-linejoin="round"/>
</g>
<defs>
<clipPath id="clip0_374_49">
<rect width="13" height="13" fill="white"/>
</clipPath>
</defs>
</svg>
