<svg width="13" height="13" viewBox="0 0 13 13" fill="none" xmlns="http://www.w3.org/2000/svg">
<g clip-path="url(#clip0_374_54)">
<path d="M4.33341 11.9167C4.63257 11.9167 4.87508 11.6742 4.87508 11.375C4.87508 11.0759 4.63257 10.8334 4.33341 10.8334C4.03426 10.8334 3.79175 11.0759 3.79175 11.375C3.79175 11.6742 4.03426 11.9167 4.33341 11.9167Z" stroke="white" stroke-opacity="0.4" stroke-width="1.08333" stroke-linecap="round" stroke-linejoin="round"/>
<path d="M10.2917 11.9167C10.5908 11.9167 10.8333 11.6742 10.8333 11.375C10.8333 11.0759 10.5908 10.8334 10.2917 10.8334C9.99251 10.8334 9.75 11.0759 9.75 11.375C9.75 11.6742 9.99251 11.9167 10.2917 11.9167Z" stroke="white" stroke-opacity="0.4" stroke-width="1.08333" stroke-linecap="round" stroke-linejoin="round"/>
<path d="M1.11035 1.11047H2.19369L3.63452 7.83797C3.68737 8.08436 3.82446 8.30461 4.0222 8.46081C4.21993 8.61702 4.46593 8.69941 4.71785 8.69381H10.0154C10.2619 8.69341 10.5009 8.60892 10.693 8.4543C10.885 8.29968 11.0186 8.08418 11.0716 7.84339L11.9654 3.81881H2.77327" stroke="white" stroke-opacity="0.4" stroke-width="1.08333" stroke-linecap="round" stroke-linejoin="round"/>
</g>
<defs>
<clipPath id="clip0_374_54">
<rect width="13" height="13" fill="white"/>
</clipPath>
</defs>
</svg>
