<svg width="13" height="13" viewBox="0 0 13 13" fill="none" xmlns="http://www.w3.org/2000/svg">
<g clip-path="url(#clip0_374_62)">
<path d="M10.8333 10.8333C11.1206 10.8333 11.3961 10.7192 11.5993 10.516C11.8024 10.3129 11.9166 10.0373 11.9166 9.75V4.33333C11.9166 4.04602 11.8024 3.77047 11.5993 3.5673C11.3961 3.36414 11.1206 3.25 10.8333 3.25H6.55409C6.37291 3.25178 6.19417 3.20808 6.03425 3.12291C5.87432 3.03775 5.73831 2.91383 5.63867 2.7625L5.19992 2.1125C5.10128 1.96271 4.96699 1.83976 4.80911 1.75467C4.65122 1.66959 4.47469 1.62503 4.29534 1.625H2.16659C1.87927 1.625 1.60372 1.73914 1.40055 1.9423C1.19739 2.14547 1.08325 2.42102 1.08325 2.70833V9.75C1.08325 10.0373 1.19739 10.3129 1.40055 10.516C1.60372 10.7192 1.87927 10.8333 2.16659 10.8333H10.8333Z" stroke="white" stroke-opacity="0.4" stroke-width="1.08333" stroke-linecap="round" stroke-linejoin="round"/>
</g>
<defs>
<clipPath id="clip0_374_62">
<rect width="13" height="13" fill="white"/>
</clipPath>
</defs>
</svg>
