<svg width="14" height="14" viewBox="0 0 14 14" fill="none" xmlns="http://www.w3.org/2000/svg">
<g clip-path="url(#clip0_4048_394)">
<path d="M7.48345 1.27171C7.33146 1.20238 7.16635 1.1665 6.99929 1.1665C6.83223 1.1665 6.66712 1.20238 6.51512 1.27171L1.51595 3.54671C1.41244 3.59235 1.32443 3.66711 1.26265 3.76188C1.20086 3.85665 1.16797 3.96733 1.16797 4.08046C1.16797 4.19359 1.20086 4.30428 1.26265 4.39905C1.32443 4.49381 1.41244 4.56857 1.51595 4.61421L6.52095 6.89504C6.67295 6.96437 6.83806 7.00025 7.00512 7.00025C7.17218 7.00025 7.33729 6.96437 7.48929 6.89504L12.4943 4.62005C12.5978 4.5744 12.6858 4.49965 12.7476 4.40488C12.8094 4.31011 12.8423 4.19942 12.8423 4.0863C12.8423 3.97317 12.8094 3.86248 12.7476 3.76771C12.6858 3.67294 12.5978 3.59819 12.4943 3.55255L7.48345 1.27171Z" stroke="#51A2FF" stroke-width="1.16667" stroke-linecap="round" stroke-linejoin="round"/>
<path d="M1.16602 7C1.16574 7.11157 1.19747 7.22088 1.25744 7.31497C1.3174 7.40906 1.4031 7.48397 1.50435 7.53083L6.52102 9.81167C6.67222 9.88013 6.83629 9.91555 7.00227 9.91555C7.16825 9.91555 7.33232 9.88013 7.48352 9.81167L12.4885 7.53667C12.5918 7.49026 12.6793 7.4148 12.7404 7.31951C12.8015 7.22422 12.8336 7.1132 12.8327 7" stroke="#51A2FF" stroke-width="1.16667" stroke-linecap="round" stroke-linejoin="round"/>
<path d="M1.16602 9.91675C1.16574 10.0283 1.19747 10.1376 1.25744 10.2317C1.3174 10.3258 1.4031 10.4007 1.50435 10.4476L6.52102 12.7284C6.67222 12.7969 6.83629 12.8323 7.00227 12.8323C7.16825 12.8323 7.33232 12.7969 7.48352 12.7284L12.4885 10.4534C12.5918 10.407 12.6793 10.3316 12.7404 10.2363C12.8015 10.141 12.8336 10.0299 12.8327 9.91675" stroke="#51A2FF" stroke-width="1.16667" stroke-linecap="round" stroke-linejoin="round"/>
</g>
<defs>
<clipPath id="clip0_4048_394">
<rect width="14" height="14" fill="white"/>
</clipPath>
</defs>
</svg>
