<svg width="13" height="13" viewBox="0 0 13 13" fill="none" xmlns="http://www.w3.org/2000/svg">
<path d="M2.16732 10.8333H10.834C11.1213 10.8333 11.3969 10.7192 11.6 10.516C11.8032 10.3129 11.9173 10.0373 11.9173 9.75V4.33333C11.9173 4.04602 11.8032 3.77047 11.6 3.5673C11.3969 3.36414 11.1213 3.25 10.834 3.25H6.53857C6.36014 3.24908 6.18469 3.20409 6.02783 3.11905C5.87097 3.034 5.73754 2.91152 5.6394 2.7625L5.19523 2.1125C5.0971 1.96348 4.96367 1.841 4.80681 1.75595C4.64994 1.67091 4.4745 1.62592 4.29607 1.625H2.16732C1.88 1.625 1.60445 1.73914 1.40129 1.9423C1.19812 2.14547 1.08398 2.42102 1.08398 2.70833V9.75C1.08398 10.3458 1.57148 10.8333 2.16732 10.8333Z" stroke="white" stroke-width="1.08333" stroke-linecap="round" stroke-linejoin="round"/>
<path d="M4.33398 5.41675V7.58341" stroke="white" stroke-width="1.08333" stroke-linecap="round" stroke-linejoin="round"/>
<path d="M6.5 5.41675V6.50008" stroke="white" stroke-width="1.08333" stroke-linecap="round" stroke-linejoin="round"/>
<path d="M8.66602 5.41675V8.66675" stroke="white" stroke-width="1.08333" stroke-linecap="round" stroke-linejoin="round"/>
</svg>
