<svg width="13" height="13" viewBox="0 0 13 13" fill="none" xmlns="http://www.w3.org/2000/svg">
<path d="M6.95032 1.18095C6.80918 1.11657 6.65586 1.08325 6.50073 1.08325C6.34561 1.08325 6.19229 1.11657 6.05115 1.18095L1.40907 3.29345C1.31295 3.33583 1.23123 3.40524 1.17385 3.49324C1.11648 3.58124 1.08594 3.68402 1.08594 3.78907C1.08594 3.89412 1.11648 3.9969 1.17385 4.0849C1.23123 4.1729 1.31295 4.24231 1.40907 4.2847L6.05657 6.40261C6.1977 6.46699 6.35102 6.50031 6.50615 6.50031C6.66128 6.50031 6.8146 6.46699 6.95573 6.40261L11.6032 4.29011C11.6994 4.24773 11.7811 4.17831 11.8384 4.09031C11.8958 4.00232 11.9264 3.89954 11.9264 3.79449C11.9264 3.68944 11.8958 3.58666 11.8384 3.49866C11.7811 3.41066 11.6994 3.34124 11.6032 3.29886L6.95032 1.18095Z" stroke="white" stroke-opacity="0.4" stroke-width="1.08333" stroke-linecap="round" stroke-linejoin="round"/>
<path d="M1.08399 6.5C1.08373 6.6036 1.11319 6.70511 1.16887 6.79247C1.22456 6.87984 1.30413 6.9494 1.39815 6.99292L6.05649 9.11083C6.19689 9.17441 6.34924 9.2073 6.50336 9.2073C6.65749 9.2073 6.80984 9.17441 6.95024 9.11083L11.5977 6.99833C11.6936 6.95524 11.7749 6.88518 11.8316 6.79669C11.8884 6.7082 11.9182 6.60512 11.9173 6.5" stroke="white" stroke-opacity="0.4" stroke-width="1.08333" stroke-linecap="round" stroke-linejoin="round"/>
<path d="M1.08399 9.20825C1.08373 9.31185 1.11319 9.41336 1.16887 9.50072C1.22456 9.58809 1.30413 9.65766 1.39815 9.70117L6.05649 11.8191C6.19689 11.8827 6.34924 11.9155 6.50336 11.9155C6.65749 11.9155 6.80984 11.8827 6.95024 11.8191L11.5977 9.70659C11.6936 9.66349 11.7749 9.59343 11.8316 9.50494C11.8884 9.41645 11.9182 9.31337 11.9173 9.20825" stroke="white" stroke-opacity="0.4" stroke-width="1.08333" stroke-linecap="round" stroke-linejoin="round"/>
</svg>
