<svg width="20" height="20" viewBox="0 0 20 20" fill="none" xmlns="http://www.w3.org/2000/svg">
<path d="M13.334 1.66675V3.33341" stroke="#DBEAFE" stroke-opacity="0.6" stroke-width="1.66667" stroke-linecap="round" stroke-linejoin="round"/>
<path d="M14.9297 18.3333C14.9297 17.0072 14.4029 15.7354 13.4652 14.7977C12.5275 13.86 11.2558 13.3333 9.92969 13.3333C8.60361 13.3333 7.33184 13.86 6.39415 14.7977C5.45647 15.7354 4.92969 17.0072 4.92969 18.3333" stroke="#DBEAFE" stroke-opacity="0.6" stroke-width="1.66667" stroke-linecap="round" stroke-linejoin="round"/>
<path d="M6.66602 1.66675V3.33341" stroke="#DBEAFE" stroke-opacity="0.6" stroke-width="1.66667" stroke-linecap="round" stroke-linejoin="round"/>
<path d="M9.99935 13.3334C11.8403 13.3334 13.3327 11.841 13.3327 10.0001C13.3327 8.15913 11.8403 6.66675 9.99935 6.66675C8.1584 6.66675 6.66602 8.15913 6.66602 10.0001C6.66602 11.841 8.1584 13.3334 9.99935 13.3334Z" stroke="#DBEAFE" stroke-opacity="0.6" stroke-width="1.66667" stroke-linecap="round" stroke-linejoin="round"/>
<path d="M15.8333 3.33325H4.16667C3.24619 3.33325 2.5 4.07944 2.5 4.99992V16.6666C2.5 17.5871 3.24619 18.3333 4.16667 18.3333H15.8333C16.7538 18.3333 17.5 17.5871 17.5 16.6666V4.99992C17.5 4.07944 16.7538 3.33325 15.8333 3.33325Z" stroke="#DBEAFE" stroke-opacity="0.6" stroke-width="1.66667" stroke-linecap="round" stroke-linejoin="round"/>
</svg>
