<svg width="20" height="20" viewBox="0 0 20 20" fill="none" xmlns="http://www.w3.org/2000/svg">
<path d="M15.0007 4.16675L12.989 2.15508C12.6765 1.8425 12.2526 1.66684 11.8107 1.66675H5.00065C4.55862 1.66675 4.1347 1.84234 3.82214 2.1549C3.50958 2.46746 3.33398 2.89139 3.33398 3.33341V16.6667C3.33398 17.1088 3.50958 17.5327 3.82214 17.8453C4.1347 18.1578 4.55862 18.3334 5.00065 18.3334H15.0007C15.4427 18.3334 15.8666 18.1578 16.1792 17.8453C16.4917 17.5327 16.6673 17.1088 16.6673 16.6667" stroke="#DBEAFE" stroke-opacity="0.6" stroke-width="1.66667" stroke-linecap="round" stroke-linejoin="round"/>
<path d="M17.8148 10.5215C18.1468 10.1896 18.3333 9.73935 18.3333 9.26988C18.3333 8.80041 18.1468 8.35018 17.8148 8.01821C17.4829 7.68625 17.0326 7.49976 16.5632 7.49976C16.0937 7.49976 15.6434 7.68625 15.3115 8.01821L11.9698 11.3615C11.7717 11.5596 11.6267 11.8043 11.5482 12.0732L10.8507 14.4649C10.8297 14.5366 10.8285 14.6126 10.847 14.685C10.8656 14.7573 10.9032 14.8234 10.956 14.8762C11.0088 14.929 11.0749 14.9666 11.1472 14.9852C11.2196 15.0037 11.2956 15.0025 11.3673 14.9815L13.759 14.284C14.0279 14.2055 14.2726 14.0605 14.4707 13.8624L17.8148 10.5215Z" stroke="#DBEAFE" stroke-opacity="0.6" stroke-width="1.66667" stroke-linecap="round" stroke-linejoin="round"/>
<path d="M6.66602 15H7.49935" stroke="#DBEAFE" stroke-opacity="0.6" stroke-width="1.66667" stroke-linecap="round" stroke-linejoin="round"/>
</svg>
