<svg width="20" height="20" viewBox="0 0 20 20" fill="none" xmlns="http://www.w3.org/2000/svg">
<g clip-path="url(#clip0_4048_546)">
<path d="M6.66732 18.3334C7.12756 18.3334 7.50065 17.9603 7.50065 17.5001C7.50065 17.0398 7.12756 16.6667 6.66732 16.6667C6.20708 16.6667 5.83398 17.0398 5.83398 17.5001C5.83398 17.9603 6.20708 18.3334 6.66732 18.3334Z" stroke="#DBEAFE" stroke-opacity="0.6" stroke-width="1.66667" stroke-linecap="round" stroke-linejoin="round"/>
<path d="M15.8333 18.3334C16.2936 18.3334 16.6667 17.9603 16.6667 17.5001C16.6667 17.0398 16.2936 16.6667 15.8333 16.6667C15.3731 16.6667 15 17.0398 15 17.5001C15 17.9603 15.3731 18.3334 15.8333 18.3334Z" stroke="#DBEAFE" stroke-opacity="0.6" stroke-width="1.66667" stroke-linecap="round" stroke-linejoin="round"/>
<path d="M1.70898 1.70825H3.37565L5.59232 12.0583C5.67363 12.4373 5.88454 12.7761 6.18874 13.0165C6.49294 13.2568 6.87141 13.3835 7.25898 13.3749H15.409C15.7883 13.3743 16.1561 13.2443 16.4515 13.0064C16.747 12.7686 16.9524 12.437 17.034 12.0666L18.409 5.87492H4.26732" stroke="#DBEAFE" stroke-opacity="0.6" stroke-width="1.66667" stroke-linecap="round" stroke-linejoin="round"/>
</g>
<defs>
<clipPath id="clip0_4048_546">
<rect width="20" height="20" fill="white"/>
</clipPath>
</defs>
</svg>
