<svg width="13" height="13" viewBox="0 0 13 13" fill="none" xmlns="http://www.w3.org/2000/svg">
<path d="M10.8327 7.04158C10.8327 9.74992 8.93685 11.1041 6.68352 11.8895C6.56552 11.9295 6.43735 11.9276 6.3206 11.8841C4.06185 11.1041 2.16602 9.74992 2.16602 7.04158V3.24992C2.16602 3.10626 2.22308 2.96848 2.32467 2.8669C2.42625 2.76532 2.56402 2.70825 2.70768 2.70825C3.79102 2.70825 5.14518 2.05825 6.08768 1.23492C6.20244 1.13688 6.34842 1.08301 6.49935 1.08301C6.65028 1.08301 6.79626 1.13688 6.91102 1.23492C7.85893 2.06367 9.20768 2.70825 10.291 2.70825C10.4347 2.70825 10.5725 2.76532 10.674 2.8669C10.7756 2.96848 10.8327 3.10626 10.8327 3.24992V7.04158Z" stroke="white" stroke-opacity="0.4" stroke-width="1.08333" stroke-linecap="round" stroke-linejoin="round"/>
</svg>
