<svg width="13" height="13" viewBox="0 0 13 13" fill="none" xmlns="http://www.w3.org/2000/svg">
<path d="M1.11784 6.68845C1.0727 6.56684 1.0727 6.43306 1.11784 6.31145C1.55751 5.24537 2.30383 4.33385 3.26218 3.69244C4.22052 3.05103 5.34774 2.70862 6.50093 2.70862C7.65411 2.70862 8.78133 3.05103 9.73967 3.69244C10.698 4.33385 11.4443 5.24537 11.884 6.31145C11.9292 6.43306 11.9292 6.56684 11.884 6.68845C11.4443 7.75453 10.698 8.66605 9.73967 9.30746C8.78133 9.94887 7.65411 10.2913 6.50093 10.2913C5.34774 10.2913 4.22052 9.94887 3.26218 9.30746C2.30383 8.66605 1.55751 7.75453 1.11784 6.68845Z" stroke="white" stroke-width="1.08333" stroke-linecap="round" stroke-linejoin="round"/>
<path d="M6.5 8.125C7.39746 8.125 8.125 7.39746 8.125 6.5C8.125 5.60254 7.39746 4.875 6.5 4.875C5.60254 4.875 4.875 5.60254 4.875 6.5C4.875 7.39746 5.60254 8.125 6.5 8.125Z" stroke="white" stroke-width="1.08333" stroke-linecap="round" stroke-linejoin="round"/>
</svg>
