<svg width="13" height="13" viewBox="0 0 13 13" fill="none" xmlns="http://www.w3.org/2000/svg">
<g clip-path="url(#clip0_4287_125)">
<path d="M8.12435 1.08337H3.24935C2.96203 1.08337 2.68648 1.19751 2.48332 1.40067C2.28015 1.60384 2.16602 1.87939 2.16602 2.16671V10.8334C2.16602 11.1207 2.28015 11.3962 2.48332 11.5994C2.68648 11.8026 2.96203 11.9167 3.24935 11.9167H9.74935C10.0367 11.9167 10.3122 11.8026 10.5154 11.5994C10.7185 11.3962 10.8327 11.1207 10.8327 10.8334V3.79171L8.12435 1.08337Z" stroke="white" stroke-opacity="0.4" stroke-width="1.08333" stroke-linecap="round" stroke-linejoin="round"/>
<path d="M7.58398 1.08337V3.25004C7.58398 3.53736 7.69812 3.81291 7.90129 4.01607C8.10445 4.21924 8.38 4.33337 8.66732 4.33337H10.834" stroke="white" stroke-opacity="0.4" stroke-width="1.08333" stroke-linecap="round" stroke-linejoin="round"/>
<path d="M5.41732 4.875H4.33398" stroke="white" stroke-opacity="0.4" stroke-width="1.08333" stroke-linecap="round" stroke-linejoin="round"/>
<path d="M8.66732 7.04163H4.33398" stroke="white" stroke-opacity="0.4" stroke-width="1.08333" stroke-linecap="round" stroke-linejoin="round"/>
<path d="M8.66732 9.20837H4.33398" stroke="white" stroke-opacity="0.4" stroke-width="1.08333" stroke-linecap="round" stroke-linejoin="round"/>
</g>
<defs>
<clipPath id="clip0_4287_125">
<rect width="13" height="13" fill="white"/>
</clipPath>
</defs>
</svg>
