<svg width="13" height="13" viewBox="0 0 13 13" fill="none" xmlns="http://www.w3.org/2000/svg">
<g clip-path="url(#clip0_4287_135)">
<path d="M8.38348 6.98206L9.20411 11.6003C9.2133 11.6547 9.20567 11.7106 9.18224 11.7605C9.15881 11.8104 9.12069 11.852 9.07299 11.8797C9.02529 11.9074 8.97027 11.9198 8.9153 11.9154C8.86032 11.911 8.80801 11.8899 8.76536 11.8549L6.82619 10.3994C6.73258 10.3295 6.61886 10.2917 6.50201 10.2917C6.38515 10.2917 6.27143 10.3295 6.17782 10.3994L4.2354 11.8543C4.19278 11.8892 4.14053 11.9103 4.08563 11.9148C4.03072 11.9192 3.97577 11.9068 3.92809 11.8792C3.88042 11.8516 3.8423 11.8101 3.81882 11.7603C3.79533 11.7104 3.7876 11.6546 3.79665 11.6003L4.61673 6.98206" stroke="white" stroke-opacity="0.4" stroke-width="1.08333" stroke-linecap="round" stroke-linejoin="round"/>
<path d="M6.5 7.58337C8.29493 7.58337 9.75 6.1283 9.75 4.33337C9.75 2.53845 8.29493 1.08337 6.5 1.08337C4.70507 1.08337 3.25 2.53845 3.25 4.33337C3.25 6.1283 4.70507 7.58337 6.5 7.58337Z" stroke="white" stroke-opacity="0.4" stroke-width="1.08333" stroke-linecap="round" stroke-linejoin="round"/>
</g>
<defs>
<clipPath id="clip0_4287_135">
<rect width="13" height="13" fill="white"/>
</clipPath>
</defs>
</svg>
