<svg width="13" height="13" viewBox="0 0 13 13" fill="none" xmlns="http://www.w3.org/2000/svg">
<g clip-path="url(#clip0_4287_142)">
<path d="M10.8327 7.04171C10.8327 9.75004 8.93685 11.1042 6.68352 11.8896C6.56552 11.9296 6.43735 11.9277 6.3206 11.8842C4.06185 11.1042 2.16602 9.75004 2.16602 7.04171V3.25004C2.16602 3.10638 2.22308 2.96861 2.32467 2.86702C2.42625 2.76544 2.56402 2.70837 2.70768 2.70837C3.79102 2.70837 5.14518 2.05837 6.08768 1.23504C6.20244 1.137 6.34842 1.08313 6.49935 1.08313C6.65028 1.08313 6.79626 1.137 6.91102 1.23504C7.85893 2.06379 9.20768 2.70837 10.291 2.70837C10.4347 2.70837 10.5725 2.76544 10.674 2.86702C10.7756 2.96861 10.8327 3.10638 10.8327 3.25004V7.04171Z" stroke="white" stroke-opacity="0.4" stroke-width="1.08333" stroke-linecap="round" stroke-linejoin="round"/>
</g>
<defs>
<clipPath id="clip0_4287_142">
<rect width="13" height="13" fill="white"/>
</clipPath>
</defs>
</svg>
