<svg width="32" height="32" viewBox="0 0 32 32" fill="none" xmlns="http://www.w3.org/2000/svg">
<path d="M20.0002 16L8.83624 27.164C8.30581 27.6944 7.58639 27.9924 6.83624 27.9924C6.08609 27.9924 5.36667 27.6944 4.83624 27.164C4.30581 26.6336 4.00781 25.9141 4.00781 25.164C4.00781 24.4139 4.30581 23.6944 4.83624 23.164L16.0002 12" stroke="#00D492" stroke-width="2.66667" stroke-linecap="round" stroke-linejoin="round"/>
<path d="M24 20L29.3333 14.6666" stroke="#00D492" stroke-width="2.66667" stroke-linecap="round" stroke-linejoin="round"/>
<path d="M28.6667 15.3333L26.1147 12.7813C25.6145 12.2813 25.3335 11.6032 25.3333 10.896V9.33332L22.32 6.31999C20.8327 4.83357 18.82 3.99247 16.7173 3.97866L12 3.94666L13.2267 5.03999C14.0979 5.81251 14.7956 6.76093 15.2736 7.82271C15.7517 8.8845 15.9992 10.0356 16 11.2V13.3333L18.6667 16H20.2293C20.9365 16.0001 21.6147 16.2812 22.1147 16.7813L24.6667 19.3333" stroke="#00D492" stroke-width="2.66667" stroke-linecap="round" stroke-linejoin="round"/>
</svg>
