<svg width="1090" height="160" viewBox="0 0 1090 160" fill="none" xmlns="http://www.w3.org/2000/svg">
<path d="M0 84.444C72.667 68.889 145.333 53.333 218 53.333C290.667 53.333 363.333 75.556 436 75.556C508.667 75.556 581.333 26.667 654 26.667C726.667 26.667 799.333 44.444 872 44.444C944.667 44.444 1017.33 22.222 1090 0V160C1017.33 160 944.667 160 872 160C799.333 160 726.667 160 654 160C581.333 160 508.667 160 436 160C363.333 160 290.667 160 218 160C145.333 160 72.667 160 0 160V84.444Z" fill="url(#paint0_linear_4287_331)" fill-opacity="0.6"/>
<defs>
<linearGradient id="paint0_linear_4287_331" x1="0" y1="0" x2="0" y2="160" gradientUnits="userSpaceOnUse">
<stop stop-color="#3B82F6" stop-opacity="0.3"/>
<stop offset="1" stop-color="#3B82F6" stop-opacity="0"/>
</linearGradient>
</defs>
</svg>
