<svg width="14" height="14" viewBox="0 0 14 14" fill="none" xmlns="http://www.w3.org/2000/svg">
<g clip-path="url(#clip0_4287_453)">
<path d="M7.34118 1.50858C7.12244 1.28977 6.82574 1.16681 6.51635 1.16675H2.33268C2.02326 1.16675 1.72652 1.28966 1.50772 1.50846C1.28893 1.72725 1.16602 2.024 1.16602 2.33341V6.51708C1.16608 6.82648 1.28904 7.12317 1.50785 7.34191L6.58518 12.4192C6.85032 12.6827 7.20891 12.8306 7.58268 12.8306C7.95645 12.8306 8.31505 12.6827 8.58018 12.4192L12.4185 8.58091C12.682 8.31578 12.8298 7.95719 12.8298 7.58341C12.8298 7.20964 12.682 6.85105 12.4185 6.58591L7.34118 1.50858Z" stroke="#00D3F2" stroke-width="1.16667" stroke-linecap="round" stroke-linejoin="round"/>
<path d="M4.37565 4.66659C4.53673 4.66659 4.66732 4.536 4.66732 4.37492C4.66732 4.21384 4.53673 4.08325 4.37565 4.08325C4.21457 4.08325 4.08398 4.21384 4.08398 4.37492C4.08398 4.536 4.21457 4.66659 4.37565 4.66659Z" fill="#00D3F2" stroke="#00D3F2" stroke-width="1.16667" stroke-linecap="round" stroke-linejoin="round"/>
</g>
<defs>
<clipPath id="clip0_4287_453">
<rect width="14" height="14" fill="white"/>
</clipPath>
</defs>
</svg>
