<svg width="20" height="20" viewBox="0 0 20 20" fill="none" xmlns="http://www.w3.org/2000/svg">
<g clip-path="url(#clip0_4287_605)">
<path d="M6.66732 18.3333C7.12756 18.3333 7.50065 17.9602 7.50065 17.5C7.50065 17.0397 7.12756 16.6666 6.66732 16.6666C6.20708 16.6666 5.83398 17.0397 5.83398 17.5C5.83398 17.9602 6.20708 18.3333 6.66732 18.3333Z" stroke="#DBEAFE" stroke-opacity="0.6" stroke-width="1.66667" stroke-linecap="round" stroke-linejoin="round"/>
<path d="M15.8333 18.3333C16.2936 18.3333 16.6667 17.9602 16.6667 17.5C16.6667 17.0397 16.2936 16.6666 15.8333 16.6666C15.3731 16.6666 15 17.0397 15 17.5C15 17.9602 15.3731 18.3333 15.8333 18.3333Z" stroke="#DBEAFE" stroke-opacity="0.6" stroke-width="1.66667" stroke-linecap="round" stroke-linejoin="round"/>
<path d="M1.70898 1.70837H3.37565L5.59232 12.0584C5.67363 12.4374 5.88454 12.7763 6.18874 13.0166C6.49294 13.2569 6.87141 13.3837 7.25898 13.375H15.409C15.7883 13.3744 16.1561 13.2444 16.4515 13.0066C16.747 12.7687 16.9524 12.4371 17.034 12.0667L18.409 5.87504H4.26732" stroke="#DBEAFE" stroke-opacity="0.6" stroke-width="1.66667" stroke-linecap="round" stroke-linejoin="round"/>
</g>
<defs>
<clipPath id="clip0_4287_605">
<rect width="20" height="20" fill="white"/>
</clipPath>
</defs>
</svg>
