<svg width="14" height="14" viewBox="0 0 14 14" fill="none" xmlns="http://www.w3.org/2000/svg">
<path d="M6.99935 7.58335C7.32152 7.58335 7.58268 7.32219 7.58268 7.00002C7.58268 6.67785 7.32152 6.41669 6.99935 6.41669C6.67718 6.41669 6.41602 6.67785 6.41602 7.00002C6.41602 7.32219 6.67718 7.58335 6.99935 7.58335Z" stroke="white" stroke-opacity="0.3" stroke-width="1.16667" stroke-linecap="round" stroke-linejoin="round"/>
<path d="M11.0833 7.58335C11.4055 7.58335 11.6667 7.32219 11.6667 7.00002C11.6667 6.67785 11.4055 6.41669 11.0833 6.41669C10.7612 6.41669 10.5 6.67785 10.5 7.00002C10.5 7.32219 10.7612 7.58335 11.0833 7.58335Z" stroke="white" stroke-opacity="0.3" stroke-width="1.16667" stroke-linecap="round" stroke-linejoin="round"/>
<path d="M2.91732 7.58335C3.23948 7.58335 3.50065 7.32219 3.50065 7.00002C3.50065 6.67785 3.23948 6.41669 2.91732 6.41669C2.59515 6.41669 2.33398 6.67785 2.33398 7.00002C2.33398 7.32219 2.59515 7.58335 2.91732 7.58335Z" stroke="white" stroke-opacity="0.3" stroke-width="1.16667" stroke-linecap="round" stroke-linejoin="round"/>
</svg>
