<svg width="20" height="20" viewBox="0 0 20 20" fill="none" xmlns="http://www.w3.org/2000/svg">
<path d="M13.333 1.66666V3.33332" stroke="#DBEAFE" stroke-opacity="0.6" stroke-width="1.66667" stroke-linecap="round" stroke-linejoin="round"/>
<path d="M14.9287 18.3333C14.9287 17.0073 14.4019 15.7355 13.4642 14.7978C12.5266 13.8601 11.2548 13.3333 9.92871 13.3333C8.60263 13.3333 7.33086 13.8601 6.39318 14.7978C5.4555 15.7355 4.92871 17.0073 4.92871 18.3333" stroke="#DBEAFE" stroke-opacity="0.6" stroke-width="1.66667" stroke-linecap="round" stroke-linejoin="round"/>
<path d="M6.66699 1.66666V3.33332" stroke="#DBEAFE" stroke-opacity="0.6" stroke-width="1.66667" stroke-linecap="round" stroke-linejoin="round"/>
<path d="M10.0003 13.3333C11.8413 13.3333 13.3337 11.8409 13.3337 9.99999C13.3337 8.15904 11.8413 6.66666 10.0003 6.66666C8.15938 6.66666 6.66699 8.15904 6.66699 9.99999C6.66699 11.8409 8.15938 13.3333 10.0003 13.3333Z" stroke="#DBEAFE" stroke-opacity="0.6" stroke-width="1.66667" stroke-linecap="round" stroke-linejoin="round"/>
<path d="M15.8333 3.33334H4.16667C3.24619 3.33334 2.5 4.07954 2.5 5.00001V16.6667C2.5 17.5872 3.24619 18.3333 4.16667 18.3333H15.8333C16.7538 18.3333 17.5 17.5872 17.5 16.6667V5.00001C17.5 4.07954 16.7538 3.33334 15.8333 3.33334Z" stroke="#DBEAFE" stroke-opacity="0.6" stroke-width="1.66667" stroke-linecap="round" stroke-linejoin="round"/>
</svg>
