<svg width="19" height="19" viewBox="0 0 19 19" fill="none" xmlns="http://www.w3.org/2000/svg">
<path d="M4.58984 16.83V3.06001C4.58984 2.65422 4.75104 2.26506 5.03797 1.97813C5.3249 1.6912 5.71406 1.53001 6.11984 1.53001H12.2398C12.6456 1.53001 13.0348 1.6912 13.3217 1.97813C13.6086 2.26506 13.7698 2.65422 13.7698 3.06001V16.83H4.58984Z" stroke="#51A2FF" stroke-width="1.53" stroke-linecap="round" stroke-linejoin="round"/>
<path d="M4.59125 9.18H3.06125C2.65547 9.18 2.26631 9.3412 1.97938 9.62813C1.69245 9.91506 1.53125 10.3042 1.53125 10.71V15.3C1.53125 15.7058 1.69245 16.0949 1.97938 16.3819C2.26631 16.6688 2.65547 16.83 3.06125 16.83H4.59125" stroke="#51A2FF" stroke-width="1.53" stroke-linecap="round" stroke-linejoin="round"/>
<path d="M13.7695 6.885H15.2995C15.7053 6.885 16.0945 7.0462 16.3814 7.33313C16.6683 7.62006 16.8295 8.00922 16.8295 8.415V15.3C16.8295 15.7058 16.6683 16.0949 16.3814 16.3819C16.0945 16.6688 15.7053 16.83 15.2995 16.83H13.7695" stroke="#51A2FF" stroke-width="1.53" stroke-linecap="round" stroke-linejoin="round"/>
<path d="M7.64844 4.59H10.7084" stroke="#51A2FF" stroke-width="1.53" stroke-linecap="round" stroke-linejoin="round"/>
<path d="M7.64844 7.65H10.7084" stroke="#51A2FF" stroke-width="1.53" stroke-linecap="round" stroke-linejoin="round"/>
<path d="M7.64844 10.71H10.7084" stroke="#51A2FF" stroke-width="1.53" stroke-linecap="round" stroke-linejoin="round"/>
<path d="M7.64844 13.77H10.7084" stroke="#51A2FF" stroke-width="1.53" stroke-linecap="round" stroke-linejoin="round"/>
</svg>
