<svg width="13" height="13" viewBox="0 0 13 13" fill="none" xmlns="http://www.w3.org/2000/svg">
<path d="M5.41517 10.8333C5.41512 10.934 5.44312 11.0327 5.49603 11.1183C5.54894 11.2039 5.62467 11.2731 5.71471 11.3181L6.79804 11.8598C6.88065 11.9011 6.97243 11.9205 7.06468 11.9164C7.15692 11.9122 7.24657 11.8845 7.3251 11.8359C7.40364 11.7873 7.46845 11.7195 7.51338 11.6388C7.55831 11.5582 7.58188 11.4673 7.58184 11.375V7.58333C7.58196 7.31487 7.68175 7.05602 7.86188 6.85696L11.7743 2.52958C11.8445 2.45189 11.8906 2.35554 11.9071 2.25219C11.9236 2.14884 11.9099 2.04291 11.8675 1.94722C11.825 1.85153 11.7558 1.77018 11.6682 1.71299C11.5805 1.65581 11.4782 1.62525 11.3735 1.625H1.6235C1.51875 1.62504 1.41625 1.65545 1.32843 1.71255C1.24061 1.76966 1.17123 1.851 1.12869 1.94673C1.08616 2.04246 1.0723 2.14847 1.08878 2.25192C1.10527 2.35537 1.1514 2.45182 1.22159 2.52958L5.13513 6.85696C5.31525 7.05602 5.41505 7.31487 5.41517 7.58333V10.8333Z" stroke="white" stroke-opacity="0.6" stroke-width="1.08333" stroke-linecap="round" stroke-linejoin="round"/>
</svg>
