<svg width="13" height="13" viewBox="0 0 13 13" fill="none" xmlns="http://www.w3.org/2000/svg">
<path d="M10.8346 5.41668C10.8346 8.12122 7.83434 10.9379 6.82684 11.8078C6.73299 11.8784 6.61873 11.9165 6.5013 11.9165C6.38387 11.9165 6.26962 11.8784 6.17576 11.8078C5.16826 10.9379 2.16797 8.12122 2.16797 5.41668C2.16797 4.26741 2.62452 3.16521 3.43717 2.35255C4.24983 1.53989 5.35203 1.08334 6.5013 1.08334C7.65057 1.08334 8.75277 1.53989 9.56543 2.35255C10.3781 3.16521 10.8346 4.26741 10.8346 5.41668Z" stroke="white" stroke-opacity="0.7" stroke-width="1.08333" stroke-linecap="round" stroke-linejoin="round"/>
<path d="M6.5 7.04166C7.39746 7.04166 8.125 6.31412 8.125 5.41666C8.125 4.51919 7.39746 3.79166 6.5 3.79166C5.60254 3.79166 4.875 4.51919 4.875 5.41666C4.875 6.31412 5.60254 7.04166 6.5 7.04166Z" stroke="white" stroke-opacity="0.7" stroke-width="1.08333" stroke-linecap="round" stroke-linejoin="round"/>
</svg>
