<svg width="13" height="13" viewBox="0 0 13 13" fill="none" xmlns="http://www.w3.org/2000/svg">
<path d="M6.81612 1.40076C6.613 1.19758 6.33749 1.0834 6.0502 1.08334H2.16536C1.87805 1.08334 1.6025 1.19748 1.39933 1.40064C1.19617 1.60381 1.08203 1.87936 1.08203 2.16668V6.05151C1.08209 6.3388 1.19627 6.61431 1.39945 6.81743L6.11411 11.5321C6.36031 11.7767 6.69329 11.914 7.04036 11.914C7.38744 11.914 7.72042 11.7767 7.96661 11.5321L11.5308 7.96793C11.7754 7.72173 11.9127 7.38875 11.9127 7.04168C11.9127 6.6946 11.7754 6.36162 11.5308 6.11543L6.81612 1.40076Z" stroke="white" stroke-opacity="0.7" stroke-width="1.08333" stroke-linecap="round" stroke-linejoin="round"/>
<path d="M4.0638 4.33332C4.21338 4.33332 4.33464 4.21207 4.33464 4.06249C4.33464 3.91291 4.21338 3.79166 4.0638 3.79166C3.91422 3.79166 3.79297 3.91291 3.79297 4.06249C3.79297 4.21207 3.91422 4.33332 4.0638 4.33332Z" fill="white" fill-opacity="0.7" stroke="white" stroke-opacity="0.7" stroke-width="1.08333" stroke-linecap="round" stroke-linejoin="round"/>
</svg>
