<svg width="14" height="14" viewBox="0 0 14 14" fill="none" xmlns="http://www.w3.org/2000/svg">
<path d="M1.20443 7.203C1.15581 7.07203 1.15581 6.92796 1.20443 6.797C1.67792 5.64891 2.48165 4.66727 3.51371 3.97652C4.54578 3.28577 5.75971 2.91702 7.0016 2.91702C8.24349 2.91702 9.45741 3.28577 10.4895 3.97652C11.5215 4.66727 12.3253 5.64891 12.7988 6.797C12.8474 6.92796 12.8474 7.07203 12.7988 7.203C12.3253 8.35108 11.5215 9.33272 10.4895 10.0235C9.45741 10.7142 8.24349 11.083 7.0016 11.083C5.75971 11.083 4.54578 10.7142 3.51371 10.0235C2.48165 9.33272 1.67792 8.35108 1.20443 7.203Z" stroke="white" stroke-opacity="0.3" stroke-width="1.16667" stroke-linecap="round" stroke-linejoin="round"/>
<path d="M7 8.75C7.9665 8.75 8.75 7.9665 8.75 7C8.75 6.0335 7.9665 5.25 7 5.25C6.0335 5.25 5.25 6.0335 5.25 7C5.25 7.9665 6.0335 8.75 7 8.75Z" stroke="white" stroke-opacity="0.3" stroke-width="1.16667" stroke-linecap="round" stroke-linejoin="round"/>
</svg>
