<svg width="14" height="14" viewBox="0 0 14 14" fill="none" xmlns="http://www.w3.org/2000/svg">
<path d="M7.0013 7.58332C7.32347 7.58332 7.58464 7.32216 7.58464 6.99999C7.58464 6.67782 7.32347 6.41666 7.0013 6.41666C6.67914 6.41666 6.41797 6.67782 6.41797 6.99999C6.41797 7.32216 6.67914 7.58332 7.0013 7.58332Z" stroke="white" stroke-opacity="0.3" stroke-width="1.16667" stroke-linecap="round" stroke-linejoin="round"/>
<path d="M11.0833 7.58332C11.4055 7.58332 11.6667 7.32216 11.6667 6.99999C11.6667 6.67782 11.4055 6.41666 11.0833 6.41666C10.7612 6.41666 10.5 6.67782 10.5 6.99999C10.5 7.32216 10.7612 7.58332 11.0833 7.58332Z" stroke="white" stroke-opacity="0.3" stroke-width="1.16667" stroke-linecap="round" stroke-linejoin="round"/>
<path d="M2.91536 7.58332C3.23753 7.58332 3.4987 7.32216 3.4987 6.99999C3.4987 6.67782 3.23753 6.41666 2.91536 6.41666C2.5932 6.41666 2.33203 6.67782 2.33203 6.99999C2.33203 7.32216 2.5932 7.58332 2.91536 7.58332Z" stroke="white" stroke-opacity="0.3" stroke-width="1.16667" stroke-linecap="round" stroke-linejoin="round"/>
</svg>
