<svg width="14" height="14" viewBox="0 0 14 14" fill="none" xmlns="http://www.w3.org/2000/svg">
<path d="M7.0013 7.58335C7.32347 7.58335 7.58464 7.32219 7.58464 7.00002C7.58464 6.67785 7.32347 6.41669 7.0013 6.41669C6.67914 6.41669 6.41797 6.67785 6.41797 7.00002C6.41797 7.32219 6.67914 7.58335 7.0013 7.58335Z" stroke="white" stroke-opacity="0.3" stroke-width="1.16667" stroke-linecap="round" stroke-linejoin="round"/>
<path d="M11.0833 7.58335C11.4055 7.58335 11.6667 7.32219 11.6667 7.00002C11.6667 6.67785 11.4055 6.41669 11.0833 6.41669C10.7612 6.41669 10.5 6.67785 10.5 7.00002C10.5 7.32219 10.7612 7.58335 11.0833 7.58335Z" stroke="white" stroke-opacity="0.3" stroke-width="1.16667" stroke-linecap="round" stroke-linejoin="round"/>
<path d="M2.91536 7.58335C3.23753 7.58335 3.4987 7.32219 3.4987 7.00002C3.4987 6.67785 3.23753 6.41669 2.91536 6.41669C2.5932 6.41669 2.33203 6.67785 2.33203 7.00002C2.33203 7.32219 2.5932 7.58335 2.91536 7.58335Z" stroke="white" stroke-opacity="0.3" stroke-width="1.16667" stroke-linecap="round" stroke-linejoin="round"/>
</svg>
