<svg width="18" height="18" viewBox="0 0 18 18" fill="none" xmlns="http://www.w3.org/2000/svg">
<path d="M2.88789 6.465C2.77842 5.97189 2.79523 5.45913 2.93676 4.97425C3.07828 4.48937 3.33995 4.04808 3.69749 3.69129C4.05503 3.3345 4.49687 3.07376 4.98204 2.93324C5.46722 2.79273 5.98001 2.777 6.47289 2.8875C6.74417 2.46322 7.11789 2.11407 7.5596 1.87221C8.00131 1.63036 8.4968 1.50359 9.00039 1.50359C9.50398 1.50359 9.99946 1.63036 10.4412 1.87221C10.8829 2.11407 11.2566 2.46322 11.5279 2.8875C12.0215 2.77651 12.5352 2.79218 13.0211 2.93303C13.5071 3.07389 13.9495 3.33535 14.3073 3.69311C14.665 4.05087 14.9265 4.4933 15.0674 4.97925C15.2082 5.46519 15.2239 5.97887 15.1129 6.4725C15.5372 6.74378 15.8863 7.1175 16.1282 7.55921C16.37 8.00092 16.4968 8.49641 16.4968 9C16.4968 9.50359 16.37 9.99907 16.1282 10.4408C15.8863 10.8825 15.5372 11.2562 15.1129 11.5275C15.2234 12.0204 15.2077 12.5332 15.0671 13.0183C14.9266 13.5035 14.6659 13.9454 14.3091 14.3029C13.9523 14.6604 13.511 14.9221 13.0261 15.0636C12.5413 15.2052 12.0285 15.222 11.5354 15.1125C11.2645 15.5384 10.8904 15.889 10.448 16.132C10.0055 16.3749 9.50891 16.5023 9.00414 16.5023C8.49937 16.5023 8.00276 16.3749 7.56029 16.132C7.11783 15.889 6.74382 15.5384 6.47289 15.1125C5.98001 15.223 5.46722 15.2073 4.98204 15.0668C4.49687 14.9262 4.05503 14.6655 3.69749 14.3087C3.33995 13.9519 3.07828 13.5106 2.93676 13.0257C2.79523 12.5409 2.77842 12.0281 2.88789 11.535C2.46036 11.2644 2.1082 10.8901 1.86418 10.4469C1.62015 10.0037 1.49219 9.50595 1.49219 9C1.49219 8.49404 1.62015 7.9963 1.86418 7.55309C2.1082 7.10987 2.46036 6.73556 2.88789 6.465Z" stroke="#00D492" stroke-width="1.5" stroke-linecap="round" stroke-linejoin="round"/>
<path d="M6.75 9L8.25 10.5L11.25 7.5" stroke="#00D492" stroke-width="1.5" stroke-linecap="round" stroke-linejoin="round"/>
</svg>
