<svg width="14" height="14" viewBox="0 0 14 14" fill="none" xmlns="http://www.w3.org/2000/svg">
<path d="M1.20443 7.20303C1.15581 7.07206 1.15581 6.92799 1.20443 6.79703C1.67792 5.64894 2.48165 4.6673 3.51371 3.97655C4.54578 3.2858 5.75971 2.91705 7.0016 2.91705C8.24349 2.91705 9.45741 3.2858 10.4895 3.97655C11.5215 4.6673 12.3253 5.64894 12.7988 6.79703C12.8474 6.92799 12.8474 7.07206 12.7988 7.20303C12.3253 8.35111 11.5215 9.33275 10.4895 10.0235C9.45741 10.7143 8.24349 11.083 7.0016 11.083C5.75971 11.083 4.54578 10.7143 3.51371 10.0235C2.48165 9.33275 1.67792 8.35111 1.20443 7.20303Z" stroke="white" stroke-opacity="0.3" stroke-width="1.16667" stroke-linecap="round" stroke-linejoin="round"/>
<path d="M7 8.75C7.9665 8.75 8.75 7.9665 8.75 7C8.75 6.0335 7.9665 5.25 7 5.25C6.0335 5.25 5.25 6.0335 5.25 7C5.25 7.9665 6.0335 8.75 7 8.75Z" stroke="white" stroke-opacity="0.3" stroke-width="1.16667" stroke-linecap="round" stroke-linejoin="round"/>
</svg>
