<svg width="14" height="14" viewBox="0 0 14 14" fill="none" xmlns="http://www.w3.org/2000/svg">
<path d="M7 11.6667H12.25" stroke="white" stroke-opacity="0.3" stroke-width="1.16667" stroke-linecap="round" stroke-linejoin="round"/>
<path d="M9.55208 2.11286C9.7843 1.88064 10.0993 1.75018 10.4277 1.75018C10.7561 1.75018 11.071 1.88064 11.3033 2.11286C11.5355 2.34508 11.6659 2.66004 11.6659 2.98845C11.6659 3.31685 11.5355 3.63181 11.3033 3.86403L4.29742 10.8704C4.15864 11.0092 3.9871 11.1107 3.79867 11.1656L2.12333 11.6544C2.07314 11.6691 2.01993 11.67 1.96928 11.657C1.91863 11.644 1.8724 11.6177 1.83543 11.5807C1.79846 11.5437 1.7721 11.4975 1.75913 11.4468C1.74615 11.3962 1.74703 11.343 1.76167 11.2928L2.2505 9.61744C2.30546 9.42922 2.40698 9.25789 2.54567 9.11928L9.55208 2.11286Z" stroke="white" stroke-opacity="0.3" stroke-width="1.16667" stroke-linecap="round" stroke-linejoin="round"/>
</svg>
