<svg width="20" height="20" viewBox="0 0 20 20" fill="none" xmlns="http://www.w3.org/2000/svg">
<path d="M13.332 1.66666V3.33332" stroke="#FEF9C2" stroke-width="1.66667" stroke-linecap="round" stroke-linejoin="round"/>
<path d="M14.9297 18.3333C14.9297 17.0073 14.4029 15.7355 13.4652 14.7978C12.5275 13.8601 11.2558 13.3333 9.92969 13.3333C8.60361 13.3333 7.33184 13.8601 6.39415 14.7978C5.45647 15.7355 4.92969 17.0073 4.92969 18.3333" stroke="#FEF9C2" stroke-width="1.66667" stroke-linecap="round" stroke-linejoin="round"/>
<path d="M6.66797 1.66666V3.33332" stroke="#FEF9C2" stroke-width="1.66667" stroke-linecap="round" stroke-linejoin="round"/>
<path d="M10.0013 13.3333C11.8423 13.3333 13.3346 11.8409 13.3346 9.99999C13.3346 8.15904 11.8423 6.66666 10.0013 6.66666C8.16035 6.66666 6.66797 8.15904 6.66797 9.99999C6.66797 11.8409 8.16035 13.3333 10.0013 13.3333Z" stroke="#FEF9C2" stroke-width="1.66667" stroke-linecap="round" stroke-linejoin="round"/>
<path d="M15.8333 3.33334H4.16667C3.24619 3.33334 2.5 4.07954 2.5 5.00001V16.6667C2.5 17.5872 3.24619 18.3333 4.16667 18.3333H15.8333C16.7538 18.3333 17.5 17.5872 17.5 16.6667V5.00001C17.5 4.07954 16.7538 3.33334 15.8333 3.33334Z" stroke="#FEF9C2" stroke-width="1.66667" stroke-linecap="round" stroke-linejoin="round"/>
</svg>
