<svg width="20" height="20" viewBox="0 0 20 20" fill="none" xmlns="http://www.w3.org/2000/svg">
<path d="M12.2511 5.25C12.0984 5.40578 12.0129 5.61521 12.0129 5.83334C12.0129 6.05146 12.0984 6.2609 12.2511 6.41667L13.5844 7.75C13.7402 7.90269 13.9496 7.98822 14.1678 7.98822C14.3859 7.98822 14.5953 7.90269 14.7511 7.75L17.8928 4.60834C18.3118 5.53433 18.4387 6.56603 18.2565 7.56596C18.0743 8.56588 17.5917 9.48654 16.873 10.2052C16.1543 10.9239 15.2336 11.4065 14.2337 11.5887C13.2338 11.7709 12.2021 11.644 11.2761 11.225L5.51777 16.9833C5.18625 17.3149 4.73661 17.5011 4.26777 17.5011C3.79893 17.5011 3.34929 17.3149 3.01777 16.9833C2.68625 16.6518 2.5 16.2022 2.5 15.7333C2.5 15.2645 2.68625 14.8149 3.01777 14.4833L8.7761 8.725C8.35707 7.79901 8.2302 6.76731 8.41239 5.76738C8.59457 4.76746 9.07717 3.8468 9.79587 3.1281C10.5146 2.40941 11.4352 1.92681 12.4351 1.74462C13.4351 1.56243 14.4668 1.68931 15.3928 2.10834L12.2594 5.24167L12.2511 5.25Z" stroke="#DBEAFE" stroke-opacity="0.6" stroke-width="1.66667" stroke-linecap="round" stroke-linejoin="round"/>
</svg>
