<svg width="10" height="10" viewBox="0 0 10 10" fill="none" xmlns="http://www.w3.org/2000/svg">
<g opacity="0.618478">
<mask id="path-1-inside-1_4203_1422" fill="white">
<path d="M0 5C0 2.23858 2.23858 0 5 0C7.76142 0 10 2.23858 10 5C10 7.76142 7.76142 10 5 10C2.23858 10 0 7.76142 0 5Z"/>
</mask>
<path d="M0 5C0 2.23858 2.23858 0 5 0C7.76142 0 10 2.23858 10 5C10 7.76142 7.76142 10 5 10C2.23858 10 0 7.76142 0 5Z" fill="#00D492"/>
<path d="M0 5M10 5M10 5M0 5M5 0M10 5M5 10M0 5M5 10V8C3.34315 8 2 6.65685 2 5H0H-2C-2 8.86599 1.13401 12 5 12V10ZM10 5H8C8 6.65685 6.65685 8 5 8V10V12C8.86599 12 12 8.86599 12 5H10ZM5 0V2C6.65685 2 8 3.34315 8 5H10H12C12 1.13401 8.86599 -2 5 -2V0ZM5 0V-2C1.13401 -2 -2 1.13401 -2 5H0H2C2 3.34315 3.34315 2 5 2V0Z" fill="#07173D" mask="url(#path-1-inside-1_4203_1422)"/>
</g>
</svg>
