<svg width="11" height="11" viewBox="0 0 11 11" fill="none" xmlns="http://www.w3.org/2000/svg">
<g clip-path="url(#clip0_4203_1437)">
<path d="M4.55506 7.10416C4.51414 6.94555 4.43147 6.80079 4.31564 6.68496C4.19981 6.56913 4.05505 6.48646 3.89644 6.44554L1.08456 5.72046C1.03659 5.70684 0.994366 5.67795 0.964301 5.63816C0.934235 5.59837 0.917969 5.54987 0.917969 5.5C0.917969 5.45013 0.934235 5.40162 0.964301 5.36183C0.994366 5.32205 1.03659 5.29316 1.08456 5.27954L3.89644 4.554C4.055 4.51312 4.19971 4.43051 4.31554 4.31477C4.43136 4.19902 4.51407 4.05436 4.55506 3.89583L5.28014 1.08396C5.29362 1.03579 5.32249 0.993362 5.36233 0.963136C5.40218 0.932911 5.45082 0.91655 5.50083 0.91655C5.55085 0.91655 5.59949 0.932911 5.63933 0.963136C5.67918 0.993362 5.70804 1.03579 5.72152 1.08396L6.44614 3.89583C6.48706 4.05445 6.56974 4.1992 6.68557 4.31503C6.8014 4.43086 6.94615 4.51354 7.10477 4.55446L9.91665 5.27908C9.965 5.29242 10.0076 5.32125 10.038 5.36116C10.0684 5.40106 10.0849 5.44984 10.0849 5.5C10.0849 5.55016 10.0684 5.59893 10.038 5.63884C10.0076 5.67874 9.965 5.70758 9.91665 5.72091L7.10477 6.44554C6.94615 6.48646 6.8014 6.56913 6.68557 6.68496C6.56974 6.80079 6.48706 6.94555 6.44614 7.10416L5.72106 9.91604C5.70758 9.9642 5.67872 10.0066 5.63887 10.0369C5.59903 10.0671 5.55039 10.0834 5.50037 10.0834C5.45036 10.0834 5.40172 10.0671 5.36188 10.0369C5.32203 10.0066 5.29316 9.9642 5.27969 9.91604L4.55506 7.10416Z" stroke="#FFB900" stroke-width="0.916667" stroke-linecap="round" stroke-linejoin="round"/>
<path d="M9.16797 1.375V3.20833" stroke="#FFB900" stroke-width="0.916667" stroke-linecap="round" stroke-linejoin="round"/>
<path d="M10.0833 2.29166H8.25" stroke="#FFB900" stroke-width="0.916667" stroke-linecap="round" stroke-linejoin="round"/>
<path d="M1.83203 7.79166V8.70833" stroke="#FFB900" stroke-width="0.916667" stroke-linecap="round" stroke-linejoin="round"/>
<path d="M2.29167 8.25H1.375" stroke="#FFB900" stroke-width="0.916667" stroke-linecap="round" stroke-linejoin="round"/>
</g>
<defs>
<clipPath id="clip0_4203_1437">
<rect width="11" height="11" fill="white"/>
</clipPath>
</defs>
</svg>
