<svg width="12" height="12" viewBox="0 0 12 12" fill="none" xmlns="http://www.w3.org/2000/svg">
<g clip-path="url(#clip0_4203_1604)">
<path d="M1.485 6.46C1.33738 6.54869 1.21516 6.674 1.13019 6.82379C1.04522 6.97359 1.00038 7.14279 1 7.315V8.935C1.00038 9.10721 1.04522 9.27641 1.13019 9.42621C1.21516 9.576 1.33738 9.70131 1.485 9.79L2.985 10.69C3.14053 10.7834 3.31856 10.8328 3.5 10.8328C3.68144 10.8328 3.85947 10.7834 4.015 10.69L6 9.5V6.75L3.5 5.25L1.485 6.46Z" stroke="#00D492" stroke-linecap="round" stroke-linejoin="round"/>
<path d="M3.49891 8.25001L1.12891 6.82501" stroke="#00D492" stroke-linecap="round" stroke-linejoin="round"/>
<path d="M3.5 8.25L6 6.75" stroke="#00D492" stroke-linecap="round" stroke-linejoin="round"/>
<path d="M3.5 8.25V10.835" stroke="#00D492" stroke-linecap="round" stroke-linejoin="round"/>
<path d="M6 6.75V9.5L7.985 10.69C8.14053 10.7834 8.31856 10.8328 8.5 10.8328C8.68144 10.8328 8.85947 10.7834 9.015 10.69L10.515 9.79C10.6626 9.70131 10.7848 9.576 10.8698 9.42621C10.9548 9.27641 10.9996 9.10721 11 8.935V7.315C10.9996 7.14279 10.9548 6.97359 10.8698 6.82379C10.7848 6.674 10.6626 6.54869 10.515 6.46L8.5 5.25L6 6.75Z" stroke="#00D492" stroke-linecap="round" stroke-linejoin="round"/>
<path d="M8.5 8.25L6 6.75" stroke="#00D492" stroke-linecap="round" stroke-linejoin="round"/>
<path d="M8.5 8.25001L10.87 6.82501" stroke="#00D492" stroke-linecap="round" stroke-linejoin="round"/>
<path d="M8.5 8.25V10.835" stroke="#00D492" stroke-linecap="round" stroke-linejoin="round"/>
<path d="M3.985 2.20999C3.83738 2.29868 3.71516 2.42399 3.63019 2.57378C3.54522 2.72357 3.50038 2.89277 3.5 3.06499V5.24999L6 6.74999L8.5 5.24999V3.06499C8.49962 2.89277 8.45478 2.72357 8.36981 2.57378C8.28484 2.42399 8.16262 2.29868 8.015 2.20999L6.515 1.30999C6.35947 1.21654 6.18144 1.16718 6 1.16718C5.81856 1.16718 5.64053 1.21654 5.485 1.30999L3.985 2.20999Z" stroke="#00D492" stroke-linecap="round" stroke-linejoin="round"/>
<path d="M5.99891 4.00001L3.62891 2.57501" stroke="#00D492" stroke-linecap="round" stroke-linejoin="round"/>
<path d="M6 4.00001L8.37 2.57501" stroke="#00D492" stroke-linecap="round" stroke-linejoin="round"/>
<path d="M6 6.75V4" stroke="#00D492" stroke-linecap="round" stroke-linejoin="round"/>
</g>
<defs>
<clipPath id="clip0_4203_1604">
<rect width="12" height="12" fill="white"/>
</clipPath>
</defs>
</svg>
