<svg width="14" height="14" viewBox="0 0 14 14" fill="none" xmlns="http://www.w3.org/2000/svg">
<path d="M7.48394 1.27167C7.33195 1.20234 7.16684 1.16646 6.99978 1.16646C6.83272 1.16646 6.6676 1.20234 6.51561 1.27167L1.51644 3.54667C1.41293 3.59231 1.32492 3.66707 1.26314 3.76183C1.20135 3.8566 1.16846 3.96729 1.16846 4.08042C1.16846 4.19355 1.20135 4.30423 1.26314 4.399C1.32492 4.49377 1.41293 4.56852 1.51644 4.61417L6.52144 6.895C6.67344 6.96433 6.83855 7.00021 7.00561 7.00021C7.17267 7.00021 7.33778 6.96433 7.48978 6.895L12.4948 4.62C12.5983 4.57436 12.6863 4.4996 12.7481 4.40483C12.8099 4.31007 12.8428 4.19938 12.8428 4.08625C12.8428 3.97312 12.8099 3.86243 12.7481 3.76767C12.6863 3.6729 12.5983 3.59814 12.4948 3.5525L7.48394 1.27167Z" stroke="white" stroke-opacity="0.5" stroke-width="1.16667" stroke-linecap="round" stroke-linejoin="round"/>
<path d="M1.16651 7C1.16623 7.11157 1.19796 7.22088 1.25792 7.31497C1.31789 7.40906 1.40358 7.48397 1.50484 7.53083L6.52151 9.81167C6.67271 9.88013 6.83678 9.91555 7.00276 9.91555C7.16874 9.91555 7.3328 9.88013 7.48401 9.81167L12.489 7.53667C12.5923 7.49026 12.6798 7.4148 12.7409 7.31951C12.802 7.22422 12.8341 7.1132 12.8332 7" stroke="white" stroke-opacity="0.5" stroke-width="1.16667" stroke-linecap="round" stroke-linejoin="round"/>
<path d="M1.16651 9.91667C1.16623 10.0282 1.19796 10.1376 1.25792 10.2316C1.31789 10.3257 1.40358 10.4006 1.50484 10.4475L6.52151 12.7283C6.67271 12.7968 6.83678 12.8322 7.00276 12.8322C7.16874 12.8322 7.3328 12.7968 7.48401 12.7283L12.489 10.4533C12.5923 10.4069 12.6798 10.3315 12.7409 10.2362C12.802 10.1409 12.8341 10.0299 12.8332 9.91667" stroke="white" stroke-opacity="0.5" stroke-width="1.16667" stroke-linecap="round" stroke-linejoin="round"/>
</svg>
