<svg width="14" height="14" viewBox="0 0 14 14" fill="none" xmlns="http://www.w3.org/2000/svg">
<path d="M7.12833 1.16667H6.87167C6.56225 1.16667 6.2655 1.28959 6.04671 1.50838C5.82792 1.72717 5.705 2.02392 5.705 2.33334V2.43834C5.70479 2.64293 5.65078 2.84387 5.5484 3.02099C5.44601 3.19812 5.29885 3.34521 5.12167 3.4475L4.87083 3.59334C4.69348 3.69573 4.49229 3.74964 4.2875 3.74964C4.08271 3.74964 3.88152 3.69573 3.70417 3.59334L3.61667 3.54667C3.34896 3.39224 3.03091 3.35035 2.73234 3.43018C2.43377 3.51002 2.17907 3.70507 2.02417 3.9725L1.89583 4.19417C1.7414 4.46188 1.69951 4.77993 1.77935 5.0785C1.85918 5.37707 2.05423 5.63177 2.32167 5.78667L2.40917 5.84501C2.5855 5.9468 2.73211 6.09297 2.83445 6.26899C2.93678 6.44501 2.99127 6.64474 2.9925 6.84834V7.14584C2.99332 7.35142 2.9398 7.55356 2.83736 7.7318C2.73492 7.91004 2.58721 8.05805 2.40917 8.16084L2.32167 8.21334C2.05423 8.36824 1.85918 8.62294 1.77935 8.92151C1.69951 9.22008 1.7414 9.53813 1.89583 9.80584L2.02417 10.0275C2.17907 10.2949 2.43377 10.49 2.73234 10.5698C3.03091 10.6497 3.34896 10.6078 3.61667 10.4533L3.70417 10.4067C3.88152 10.3043 4.08271 10.2504 4.2875 10.2504C4.49229 10.2504 4.69348 10.3043 4.87083 10.4067L5.12167 10.5525C5.29885 10.6548 5.44601 10.8019 5.5484 10.979C5.65078 11.1561 5.70479 11.3571 5.705 11.5617V11.6667C5.705 11.9761 5.82792 12.2728 6.04671 12.4916C6.2655 12.7104 6.56225 12.8333 6.87167 12.8333H7.12833C7.43775 12.8333 7.7345 12.7104 7.95329 12.4916C8.17208 12.2728 8.295 11.9761 8.295 11.6667V11.5617C8.29521 11.3571 8.34922 11.1561 8.4516 10.979C8.55399 10.8019 8.70115 10.6548 8.87833 10.5525L9.12917 10.4067C9.30652 10.3043 9.50771 10.2504 9.7125 10.2504C9.91729 10.2504 10.1185 10.3043 10.2958 10.4067L10.3833 10.4533C10.651 10.6078 10.9691 10.6497 11.2677 10.5698C11.5662 10.49 11.8209 10.2949 11.9758 10.0275L12.1042 9.8C12.2586 9.53229 12.3005 9.21424 12.2207 8.91567C12.1408 8.6171 11.9458 8.36241 11.6783 8.2075L11.5908 8.16084C11.4128 8.05805 11.2651 7.91004 11.1626 7.7318C11.0602 7.55356 11.0067 7.35142 11.0075 7.14584V6.85417C11.0067 6.64859 11.0602 6.44645 11.1626 6.26821C11.2651 6.08997 11.4128 5.94196 11.5908 5.83917L11.6783 5.78667C11.9458 5.63177 12.1408 5.37707 12.2207 5.0785C12.3005 4.77993 12.2586 4.46188 12.1042 4.19417L11.9758 3.9725C11.8209 3.70507 11.5662 3.51002 11.2677 3.43018C10.9691 3.35035 10.651 3.39224 10.3833 3.54667L10.2958 3.59334C10.1185 3.69573 9.91729 3.74964 9.7125 3.74964C9.50771 3.74964 9.30652 3.69573 9.12917 3.59334L8.87833 3.4475C8.70115 3.34521 8.55399 3.19812 8.4516 3.02099C8.34922 2.84387 8.29521 2.64293 8.295 2.43834V2.33334C8.295 2.02392 8.17208 1.72717 7.95329 1.50838C7.7345 1.28959 7.43775 1.16667 7.12833 1.16667Z" stroke="white" stroke-opacity="0.5" stroke-width="1.16667" stroke-linecap="round" stroke-linejoin="round"/>
<path d="M7 8.75C7.9665 8.75 8.75 7.9665 8.75 7C8.75 6.0335 7.9665 5.25 7 5.25C6.0335 5.25 5.25 6.0335 5.25 7C5.25 7.9665 6.0335 8.75 7 8.75Z" stroke="white" stroke-opacity="0.5" stroke-width="1.16667" stroke-linecap="round" stroke-linejoin="round"/>
</svg>
