<svg width="14" height="14" viewBox="0 0 14 14" fill="none" xmlns="http://www.w3.org/2000/svg">
<path d="M5.25 1.75H2.33333C2.01117 1.75 1.75 2.01117 1.75 2.33333V5.25C1.75 5.57217 2.01117 5.83333 2.33333 5.83333H5.25C5.57217 5.83333 5.83333 5.57217 5.83333 5.25V2.33333C5.83333 2.01117 5.57217 1.75 5.25 1.75Z" stroke="white" stroke-opacity="0.4" stroke-width="1.16667" stroke-linecap="round" stroke-linejoin="round"/>
<path d="M11.6665 1.75H8.74984C8.42767 1.75 8.1665 2.01117 8.1665 2.33333V5.25C8.1665 5.57217 8.42767 5.83333 8.74984 5.83333H11.6665C11.9887 5.83333 12.2498 5.57217 12.2498 5.25V2.33333C12.2498 2.01117 11.9887 1.75 11.6665 1.75Z" stroke="white" stroke-opacity="0.4" stroke-width="1.16667" stroke-linecap="round" stroke-linejoin="round"/>
<path d="M11.6665 8.16667H8.74984C8.42767 8.16667 8.1665 8.42784 8.1665 8.75001V11.6667C8.1665 11.9888 8.42767 12.25 8.74984 12.25H11.6665C11.9887 12.25 12.2498 11.9888 12.2498 11.6667V8.75001C12.2498 8.42784 11.9887 8.16667 11.6665 8.16667Z" stroke="white" stroke-opacity="0.4" stroke-width="1.16667" stroke-linecap="round" stroke-linejoin="round"/>
<path d="M5.25 8.16667H2.33333C2.01117 8.16667 1.75 8.42784 1.75 8.75001V11.6667C1.75 11.9888 2.01117 12.25 2.33333 12.25H5.25C5.57217 12.25 5.83333 11.9888 5.83333 11.6667V8.75001C5.83333 8.42784 5.57217 8.16667 5.25 8.16667Z" stroke="white" stroke-opacity="0.4" stroke-width="1.16667" stroke-linecap="round" stroke-linejoin="round"/>
</svg>
