<svg width="16" height="16" viewBox="0 0 16 16" fill="none" xmlns="http://www.w3.org/2000/svg">
<path d="M8.00065 8.66668C8.36884 8.66668 8.66732 8.3682 8.66732 8.00001C8.66732 7.63182 8.36884 7.33334 8.00065 7.33334C7.63246 7.33334 7.33398 7.63182 7.33398 8.00001C7.33398 8.3682 7.63246 8.66668 8.00065 8.66668Z" stroke="white" stroke-opacity="0.2" stroke-width="1.33333" stroke-linecap="round" stroke-linejoin="round"/>
<path d="M12.6667 8.66668C13.0349 8.66668 13.3333 8.3682 13.3333 8.00001C13.3333 7.63182 13.0349 7.33334 12.6667 7.33334C12.2985 7.33334 12 7.63182 12 8.00001C12 8.3682 12.2985 8.66668 12.6667 8.66668Z" stroke="white" stroke-opacity="0.2" stroke-width="1.33333" stroke-linecap="round" stroke-linejoin="round"/>
<path d="M3.33268 8.66668C3.70087 8.66668 3.99935 8.3682 3.99935 8.00001C3.99935 7.63182 3.70087 7.33334 3.33268 7.33334C2.96449 7.33334 2.66602 7.63182 2.66602 8.00001C2.66602 8.3682 2.96449 8.66668 3.33268 8.66668Z" stroke="white" stroke-opacity="0.2" stroke-width="1.33333" stroke-linecap="round" stroke-linejoin="round"/>
</svg>
