<svg width="13" height="13" viewBox="0 0 13 13" fill="none" xmlns="http://www.w3.org/2000/svg">
<path d="M6.61892 1.08334H6.38059C6.09327 1.08334 5.81772 1.19747 5.61456 1.40064C5.41139 1.6038 5.29726 1.87935 5.29726 2.16667V2.26417C5.29706 2.45415 5.24691 2.64073 5.15184 2.80521C5.05677 2.96968 4.92011 3.10626 4.75559 3.20125L4.52267 3.33667C4.35799 3.43175 4.17117 3.48181 3.98101 3.48181C3.79084 3.48181 3.60403 3.43175 3.43934 3.33667L3.35809 3.29334C3.1095 3.14994 2.81417 3.11103 2.53692 3.18517C2.25968 3.2593 2.02318 3.44042 1.87934 3.68875L1.76017 3.89459C1.61677 4.14318 1.57787 4.43851 1.65201 4.71575C1.72614 4.993 1.90726 5.2295 2.15559 5.37334L2.23684 5.4275C2.40057 5.52203 2.53672 5.65776 2.63174 5.8212C2.72677 5.98465 2.77737 6.17011 2.77851 6.35917V6.63542C2.77926 6.82631 2.72957 7.01402 2.63445 7.17953C2.53933 7.34504 2.40216 7.48247 2.23684 7.57792L2.15559 7.62667C1.90726 7.77051 1.72614 8.00701 1.65201 8.28425C1.57787 8.5615 1.61677 8.85683 1.76017 9.10542L1.87934 9.31125C2.02318 9.55959 2.25968 9.7407 2.53692 9.81484C2.81417 9.88897 3.1095 9.85007 3.35809 9.70667L3.43934 9.66334C3.60403 9.56825 3.79084 9.5182 3.98101 9.5182C4.17117 9.5182 4.35799 9.56825 4.52267 9.66334L4.75559 9.79875C4.92011 9.89374 5.05677 10.0303 5.15184 10.1948C5.24691 10.3593 5.29706 10.5459 5.29726 10.7358V10.8333C5.29726 11.1207 5.41139 11.3962 5.61456 11.5994C5.81772 11.8025 6.09327 11.9167 6.38059 11.9167H6.61892C6.90624 11.9167 7.18179 11.8025 7.38496 11.5994C7.58812 11.3962 7.70226 11.1207 7.70226 10.8333V10.7358C7.70245 10.5459 7.7526 10.3593 7.84767 10.1948C7.94275 10.0303 8.0794 9.89374 8.24392 9.79875L8.47684 9.66334C8.64153 9.56825 8.82834 9.5182 9.01851 9.5182C9.20867 9.5182 9.39549 9.56825 9.56017 9.66334L9.64142 9.70667C9.89001 9.85007 10.1853 9.88897 10.4626 9.81484C10.7398 9.7407 10.9763 9.55959 11.1202 9.31125L11.2393 9.1C11.3827 8.85141 11.4216 8.55608 11.3475 8.27884C11.2734 8.00159 11.0923 7.76509 10.8439 7.62125L10.7627 7.57792C10.5974 7.48247 10.4602 7.34504 10.3651 7.17953C10.2699 7.01402 10.2202 6.82631 10.221 6.63542V6.36459C10.2202 6.17369 10.2699 5.98599 10.3651 5.82048C10.4602 5.65497 10.5974 5.51753 10.7627 5.42209L10.8439 5.37334C11.0923 5.2295 11.2734 4.993 11.3475 4.71575C11.4216 4.43851 11.3827 4.14318 11.2393 3.89459L11.1202 3.68875C10.9763 3.44042 10.7398 3.2593 10.4626 3.18517C10.1853 3.11103 9.89001 3.14994 9.64142 3.29334L9.56017 3.33667C9.39549 3.43175 9.20867 3.48181 9.01851 3.48181C8.82834 3.48181 8.64153 3.43175 8.47684 3.33667L8.24392 3.20125C8.0794 3.10626 7.94275 2.96968 7.84767 2.80521C7.7526 2.64073 7.70245 2.45415 7.70226 2.26417V2.16667C7.70226 1.87935 7.58812 1.6038 7.38496 1.40064C7.18179 1.19747 6.90624 1.08334 6.61892 1.08334Z" stroke="white" stroke-opacity="0.4" stroke-width="1.08333" stroke-linecap="round" stroke-linejoin="round"/>
<path d="M6.5 8.125C7.39746 8.125 8.125 7.39746 8.125 6.5C8.125 5.60254 7.39746 4.875 6.5 4.875C5.60254 4.875 4.875 5.60254 4.875 6.5C4.875 7.39746 5.60254 8.125 6.5 8.125Z" stroke="white" stroke-opacity="0.4" stroke-width="1.08333" stroke-linecap="round" stroke-linejoin="round"/>
</svg>
