<svg width="16" height="16" viewBox="0 0 16 16" fill="none" xmlns="http://www.w3.org/2000/svg">
<path d="M8.00065 8.66671C8.36884 8.66671 8.66732 8.36823 8.66732 8.00004C8.66732 7.63185 8.36884 7.33337 8.00065 7.33337C7.63246 7.33337 7.33398 7.63185 7.33398 8.00004C7.33398 8.36823 7.63246 8.66671 8.00065 8.66671Z" stroke="white" stroke-opacity="0.2" stroke-width="1.33333" stroke-linecap="round" stroke-linejoin="round"/>
<path d="M12.6667 8.66671C13.0349 8.66671 13.3333 8.36823 13.3333 8.00004C13.3333 7.63185 13.0349 7.33337 12.6667 7.33337C12.2985 7.33337 12 7.63185 12 8.00004C12 8.36823 12.2985 8.66671 12.6667 8.66671Z" stroke="white" stroke-opacity="0.2" stroke-width="1.33333" stroke-linecap="round" stroke-linejoin="round"/>
<path d="M3.33268 8.66671C3.70087 8.66671 3.99935 8.36823 3.99935 8.00004C3.99935 7.63185 3.70087 7.33337 3.33268 7.33337C2.96449 7.33337 2.66602 7.63185 2.66602 8.00004C2.66602 8.36823 2.96449 8.66671 3.33268 8.66671Z" stroke="white" stroke-opacity="0.2" stroke-width="1.33333" stroke-linecap="round" stroke-linejoin="round"/>
</svg>
