<svg width="20" height="20" viewBox="0 0 20 20" fill="none" xmlns="http://www.w3.org/2000/svg">
<path d="M10.1824 1.66669H9.81569C9.37366 1.66669 8.94974 1.84228 8.63718 2.15484C8.32462 2.4674 8.14902 2.89133 8.14902 3.33335V3.48335C8.14872 3.77562 8.07157 4.06268 7.92531 4.31572C7.77904 4.56876 7.56881 4.77888 7.31569 4.92502L6.95736 5.13335C6.70399 5.27963 6.41659 5.35664 6.12402 5.35664C5.83146 5.35664 5.54406 5.27963 5.29069 5.13335L5.16569 5.06669C4.78325 4.84607 4.32889 4.78622 3.90236 4.90028C3.47583 5.01433 3.11198 5.29297 2.89069 5.67502L2.70736 5.99169C2.48674 6.37413 2.42689 6.82849 2.54095 7.25502C2.655 7.68155 2.93364 8.04539 3.31569 8.26669L3.44069 8.35002C3.69259 8.49545 3.90204 8.70426 4.04823 8.95571C4.19443 9.20716 4.27227 9.4925 4.27403 9.78335V10.2084C4.27519 10.502 4.19873 10.7908 4.05239 11.0454C3.90606 11.3001 3.69503 11.5115 3.44069 11.6584L3.31569 11.7334C2.93364 11.9546 2.655 12.3185 2.54095 12.745C2.42689 13.1716 2.48674 13.6259 2.70736 14.0084L2.89069 14.325C3.11198 14.7071 3.47583 14.9857 3.90236 15.0998C4.32889 15.2138 4.78325 15.154 5.16569 14.9334L5.29069 14.8667C5.54406 14.7204 5.83146 14.6434 6.12402 14.6434C6.41659 14.6434 6.70399 14.7204 6.95736 14.8667L7.31569 15.075C7.56881 15.2212 7.77904 15.4313 7.92531 15.6843C8.07157 15.9374 8.14872 16.2244 8.14902 16.5167V16.6667C8.14902 17.1087 8.32462 17.5326 8.63718 17.8452C8.94974 18.1578 9.37366 18.3334 9.81569 18.3334H10.1824C10.6244 18.3334 11.0483 18.1578 11.3609 17.8452C11.6734 17.5326 11.849 17.1087 11.849 16.6667V16.5167C11.8493 16.2244 11.9265 15.9374 12.0727 15.6843C12.219 15.4313 12.4292 15.2212 12.6824 15.075L13.0407 14.8667C13.2941 14.7204 13.5815 14.6434 13.874 14.6434C14.1666 14.6434 14.454 14.7204 14.7074 14.8667L14.8324 14.9334C15.2148 15.154 15.6692 15.2138 16.0957 15.0998C16.5222 14.9857 16.8861 14.7071 17.1074 14.325L17.2907 14C17.5113 13.6176 17.5712 13.1632 17.4571 12.7367C17.343 12.3102 17.0644 11.9463 16.6824 11.725L16.5574 11.6584C16.303 11.5115 16.092 11.3001 15.9457 11.0454C15.7993 10.7908 15.7229 10.502 15.724 10.2084V9.79169C15.7229 9.498 15.7993 9.20923 15.9457 8.9546C16.092 8.69997 16.303 8.48853 16.5574 8.34169L16.6824 8.26669C17.0644 8.04539 17.343 7.68155 17.4571 7.25502C17.5712 6.82849 17.5113 6.37413 17.2907 5.99169L17.1074 5.67502C16.8861 5.29297 16.5222 5.01433 16.0957 4.90028C15.6692 4.78622 15.2148 4.84607 14.8324 5.06669L14.7074 5.13335C14.454 5.27963 14.1666 5.35664 13.874 5.35664C13.5815 5.35664 13.2941 5.27963 13.0407 5.13335L12.6824 4.92502C12.4292 4.77888 12.219 4.56876 12.0727 4.31572C11.9265 4.06268 11.8493 3.77562 11.849 3.48335V3.33335C11.849 2.89133 11.6734 2.4674 11.3609 2.15484C11.0483 1.84228 10.6244 1.66669 10.1824 1.66669Z" stroke="#DBEAFE" stroke-opacity="0.6" stroke-width="1.66667" stroke-linecap="round" stroke-linejoin="round"/>
<path d="M10 12.5C11.3807 12.5 12.5 11.3807 12.5 10C12.5 8.61929 11.3807 7.5 10 7.5C8.61929 7.5 7.5 8.61929 7.5 10C7.5 11.3807 8.61929 12.5 10 12.5Z" stroke="#DBEAFE" stroke-opacity="0.6" stroke-width="1.66667" stroke-linecap="round" stroke-linejoin="round"/>
</svg>
